aileron_bold.sfdir

StartChar: exclam
Encoding: 33 33 249
Width: 263
Flags: MW
HStem: -14 156<108.5 154> 670 20G<64 199 199 199>
VStem: 53 157<41 87> 70 123
LayerCount: 2
Fore
SplineSet
187 197 m 1xd0
 76 197 l 1
 64 690 l 1
 199 690 l 1
 187 197 l 1xd0
131 142 m 0xe0
 177 142 210 110 210 64 c 0
 210 18 177 -14 131 -14 c 0
 86 -14 53 18 53 64 c 0
 53 110 86 142 131 142 c 0xe0
EndSplineSet
EndChar

StartChar: quotedbl
Encoding: 34 34 256
Width: 378
Flags: MW
HStem: 460 275<68 164 68 68 235 235 235 332>
VStem: 61.5 109.5 228.5 110
LayerCount: 2
Fore
SplineSet
164 460 m 1
 68 460 l 1
 55 735 l 1
 178 735 l 1
 164 460 l 1
332 460 m 1
 235 460 l 1
 222 735 l 1
 345 735 l 1
 332 460 l 1
EndSplineSet
EndChar

StartChar: numbersign
Encoding: 35 35 251
Width: 625
Flags: MW
HStem: 0 21G<112 195 112 112 283 366 283 283> 209 78<71 157 71 173 256 328 71 240 427 525> 403 78<101 198 101 214 101 281 297 369 468 555> 670 20G<259 342 342 342 430 513 513 513>
VStem: 71 484<209 481 287 481>
LayerCount: 2
Fore
SplineSet
452 403 m 1
 427 287 l 1
 525 287 l 1
 525 209 l 1
 411 209 l 1
 366 0 l 1
 283 0 l 1
 328 209 l 1
 240 209 l 1
 195 0 l 1
 112 0 l 1
 157 209 l 1
 71 209 l 1
 71 287 l 1
 173 287 l 1
 198 403 l 1
 101 403 l 1
 101 481 l 1
 214 481 l 1
 259 690 l 1
 342 690 l 1
 297 481 l 1
 385 481 l 1
 430 690 l 1
 513 690 l 1
 468 481 l 1
 555 481 l 1
 555 403 l 1
 452 403 l 1
369 403 m 1
 281 403 l 1
 256 287 l 1
 344 287 l 1
 369 403 l 1
EndSplineSet
EndChar

StartChar: dollar
Encoding: 36 36 283
Width: 625
Flags: MW
HStem: -12 21G<277 277 359 359> 682 20G<277 277 359 359>
VStem: 74 131<491 539.5 491 561.5> 277 82<-90 -12 -90 -12 89 274 424 601 702 780> 441 136<148.5 196.5>
LayerCount: 2
Fore
SplineSet
577 185 m 0
 577 70 484 0 359 -12 c 1
 359 -90 l 1
 277 -90 l 1
 277 -12 l 1
 145 -1 57 66 47 194 c 1
 182 194 l 1
 191 137 225 101 277 89 c 1
 277 292 l 1
 149 333 74 386 74 500 c 0
 74 623 167 688 277 702 c 1
 277 780 l 1
 359 780 l 1
 359 702 l 1
 493 689 560 606 573 497 c 1
 438 497 l 1
 432 549 409 587 359 601 c 1
 359 408 l 1
 515 359 577 296 577 185 c 0
205 516 m 0
 205 466 229 442 277 424 c 1
 277 602 l 1
 233 592 205 563 205 516 c 0
359 274 m 1
 359 87 l 1
 411 95 441 122 441 175 c 0
 441 218 422 251 359 274 c 1
EndSplineSet
EndChar

StartChar: percent
Encoding: 37 37 303
Width: 763
Flags: MW
HStem: -14 73<554.5 591.5 554.5 621> 0 21G<107 214 107 107> 242 73<554.5 591.5> 373 73<171.5 208.5 171.5 238> 629 73<171.5 208.5> 670 20G<555 662 662 662>
VStem: 36 97<508.5 567.5 508.5 589.5> 248 97<508.5 567.5> 418 98<121.5 180.5 121.5 202.5> 630 98<121.5 180.5>
LayerCount: 2
Fore
SplineSet
190 702 m 0xbbc0
 286 702 345 641 345 538 c 0
 345 435 286 373 190 373 c 0
 95 373 36 435 36 538 c 0
 36 641 95 702 190 702 c 0xbbc0
214 0 m 1x77c0
 107 0 l 1
 555 690 l 1
 662 690 l 1
 214 0 l 1x77c0
190 629 m 0xbbc0
 153 629 133 597 133 538 c 0
 133 479 153 446 190 446 c 0
 227 446 248 479 248 538 c 0
 248 597 227 629 190 629 c 0xbbc0
573 315 m 0
 669 315 728 254 728 151 c 0
 728 48 669 -14 573 -14 c 0
 478 -14 418 48 418 151 c 0
 418 254 478 315 573 315 c 0
573 242 m 0
 536 242 516 210 516 151 c 0
 516 92 536 59 573 59 c 0
 610 59 630 92 630 151 c 0
 630 210 610 242 573 242 c 0
EndSplineSet
EndChar

StartChar: ampersand
Encoding: 38 38 311
Width: 673
Flags: MW
HStem: -14 103<291 352 291 376.5> 296 108<373 429 393 429 393 429 567 661> 601 103<311.5 368> 674 20G<456 456>
VStem: 53 147<154.5 222 154.5 222.5> 89 146<469 535.5 469 569> 429 138<97 296 10 296 404 497>
LayerCount: 2
Fore
SplineSet
661 404 m 1xea
 661 296 l 1
 567 296 l 1
 567 10 l 1
 499 -4 421 -14 332 -14 c 0
 171 -14 53 30 53 176 c 0xea
 53 269 117 334 217 353 c 1
 141 373 89 431 89 507 c 0
 89 631 188 704 347 704 c 0xe6
 391 704 424 701 456 694 c 1xda
 456 592 l 1
 415 599 388 601 348 601 c 0
 275 601 235 567 235 504 c 0
 235 434 278 408 334 405 c 0xe6
 352 404 374 404 393 404 c 2
 429 404 l 1
 429 497 l 1
 567 497 l 1
 567 404 l 1
 661 404 l 1xea
200 194 m 0
 200 115 247 89 335 89 c 0
 369 89 393 90 429 97 c 1
 429 296 l 1
 384 296 l 2
 362 296 348 296 328 294 c 0
 240 288 200 250 200 194 c 0
EndSplineSet
EndChar

StartChar: quotesingle
Encoding: 39 39 257
Width: 200
Flags: MW
HStem: 460 275<49 145 49 49>
VStem: 42 109.5
LayerCount: 2
Fore
SplineSet
145 460 m 1
 49 460 l 1
 35 735 l 1
 158 735 l 1
 145 460 l 1
EndSplineSet
EndChar

StartChar: parenleft
Encoding: 40 40 265
Width: 363
Flags: MW
HStem: -80 860<251 326 251 326>
VStem: 110 88<269.5 430.5 269.5 437.5>
LayerCount: 2
Fore
SplineSet
251 780 m 1
 326 780 l 1
 243 653 198 511 198 350 c 0
 198 189 243 47 326 -80 c 1
 251 -80 l 1
 161 29 110 176 110 350 c 0
 110 525 161 671 251 780 c 1
EndSplineSet
EndChar

StartChar: parenright
Encoding: 41 41 266
Width: 362
Flags: MW
HStem: -80 860<33 108 33 108>
VStem: 161 88<269.5 430.5>
LayerCount: 2
Fore
SplineSet
33 780 m 1
 108 780 l 1
 198 671 249 525 249 350 c 0
 249 176 198 29 108 -80 c 1
 33 -80 l 1
 116 47 161 189 161 350 c 0
 161 511 116 653 33 780 c 1
EndSplineSet
EndChar

StartChar: asterisk
Encoding: 42 42 243
Width: 599
Flags: MW
HStem: 73 402<214 345 253 385>
VStem: 259.5 79.5
LayerCount: 2
Fore
SplineSet
333 315 m 1
 470 373 l 1
 498 285 l 1
 353 251 l 1
 459 127 l 1
 385 73 l 1
 299 211 l 1
 214 73 l 1
 140 127 l 1
 245 251 l 1
 100 285 l 1
 128 373 l 1
 266 315 l 1
 253 475 l 1
 345 475 l 1
 333 315 l 1
EndSplineSet
EndChar

StartChar: plus
Encoding: 43 43 305
Width: 625
Flags: MW
HStem: 279 74<94 272 94 272 353 531>
VStem: 272 81<80 279 80 279 353 554>
LayerCount: 2
Fore
SplineSet
531 279 m 1
 353 279 l 1
 353 80 l 1
 272 80 l 1
 272 279 l 1
 94 279 l 1
 94 353 l 1
 272 353 l 1
 272 554 l 1
 353 554 l 1
 353 353 l 1
 531 353 l 1
 531 279 l 1
EndSplineSet
EndChar

StartChar: comma
Encoding: 44 44 247
Width: 245
Flags: MW
HStem: -122 262<51 84 -28 185>
VStem: -28 213
LayerCount: 2
Fore
SplineSet
185 130 m 1
 84 -122 l 1
 -28 -122 l 1
 51 140 l 1
 185 140 l 1
 185 130 l 1
EndSplineSet
EndChar

StartChar: hyphen
Encoding: 45 45 269
Width: 296
Flags: MW
HStem: 244 78<32 264 32 264>
VStem: 32 232<244 322 244 322>
LayerCount: 2
Fore
SplineSet
264 244 m 1
 32 244 l 1
 32 322 l 1
 264 322 l 1
 264 244 l 1
EndSplineSet
EndChar

StartChar: period
Encoding: 46 46 252
Width: 245
Flags: MW
HStem: -14 168<97.5 147>
VStem: 39 167<45.5 94.5>
LayerCount: 2
Fore
SplineSet
122 154 m 0
 172 154 206 119 206 70 c 0
 206 21 172 -14 122 -14 c 0
 73 -14 39 21 39 70 c 0
 39 119 73 154 122 154 c 0
EndSplineSet
EndChar

StartChar: slash
Encoding: 47 47 259
Width: 327
Flags: MW
HStem: -30 750<-5 332 -5 332>
VStem: -5 337
LayerCount: 2
Fore
SplineSet
81 -30 m 1
 -5 -30 l 1
 246 720 l 1
 332 720 l 1
 81 -30 l 1
EndSplineSet
EndChar

StartChar: zero
Encoding: 48 48 232
Width: 625
Flags: MW
HStem: -14 103<270.5 355 270.5 410.5> 601 103<270.5 355>
VStem: 44 146<258 433 258 454> 435 146<258 433>
LayerCount: 2
Fore
SplineSet
313 704 m 0
 508 704 581 563 581 345 c 0
 581 129 508 -14 313 -14 c 0
 117 -14 44 129 44 345 c 0
 44 563 117 704 313 704 c 0
313 89 m 0
 397 89 435 171 435 345 c 0
 435 521 397 601 313 601 c 0
 228 601 190 521 190 345 c 0
 190 171 228 89 313 89 c 0
EndSplineSet
EndChar

StartChar: one
Encoding: 49 49 233
Width: 625
Flags: MW
HStem: 0 21G<324 462 324 324> 670 20G<394 462 462 462>
VStem: 324 138<0 545 545 545>
LayerCount: 2
Fore
SplineSet
462 690 m 1
 462 0 l 1
 324 0 l 1
 324 545 l 1
 123 434 l 1
 123 564 l 1
 283 659 l 2
 320 680 356 690 394 690 c 2
 462 690 l 1
EndSplineSet
EndChar

StartChar: two
Encoding: 50 50 234
Width: 625
Flags: MW
HStem: 0 109<270 562 270 562> 602 103<287.5 354>
VStem: 421 146<465 528.5>
LayerCount: 2
Fore
SplineSet
270 109 m 1
 562 109 l 1
 562 0 l 1
 59 0 l 1
 59 65 l 1
 291 292 l 2
 384 383 421 432 421 498 c 0
 421 559 386 602 322 602 c 0
 253 602 220 559 211 476 c 2
 210 466 l 1
 73 466 l 1
 74 476 l 2
 88 624 180 705 335 705 c 0
 487 705 567 624 567 506 c 0
 567 419 524 357 398 234 c 2
 270 109 l 1
EndSplineSet
EndChar

StartChar: three
Encoding: 51 51 235
Width: 625
Flags: MW
HStem: -14 103<271 342.5 271 384.5> 302 96.5 601 103<283 344.5>
VStem: 412 146<484 536> 428 146<162.5 228.5>
LayerCount: 2
Fore
SplineSet
430 365 m 1xe8
 523 344 574 289 574 199 c 0
 574 69 462 -14 307 -14 c 0
 151 -14 54 59 39 202 c 2
 38 212 l 1
 176 212 l 1
 178 202 l 1
 188 132 236 89 306 89 c 0
 379 89 428 131 428 194 c 0xe8
 428 263 381 300 291 302 c 1
 268 302 l 1
 268 398 l 1
 291 399 l 2
 364 402 412 443 412 508 c 0
 412 564 375 601 314 601 c 0
 252 601 214 557 207 492 c 2
 206 482 l 1
 69 482 l 1
 70 492 l 2
 82 612 168 704 329 704 c 0
 479 704 558 625 558 524 c 0xf0
 558 444 513 387 430 365 c 1xe8
EndSplineSet
EndChar

StartChar: four
Encoding: 52 52 236
Width: 625
Flags: MW
HStem: 0 21G<368 506 368 368> 163 109<187 368 187 368 506 591> 670 20G<359 506 506 506>
VStem: 368 138<0 163 0 163 272 534 534 534>
LayerCount: 2
Fore
SplineSet
591 163 m 1
 506 163 l 1
 506 0 l 1
 368 0 l 1
 368 163 l 1
 36 163 l 1
 36 237 l 1
 359 690 l 1
 506 690 l 1
 506 272 l 1
 591 272 l 1
 591 163 l 1
368 272 m 1
 368 534 l 1
 353 508 338 484 322 461 c 2
 187 272 l 1
 368 272 l 1
EndSplineSet
EndChar

StartChar: five
Encoding: 53 53 237
Width: 625
Flags: MW
HStem: -14 103<274 345.5 274 381.5> 282 107<69 205> 360 103<327 347.5> 582 108<231 548 231 231>
VStem: 58 137.5 429 147<183.5 264.5>
LayerCount: 2
Fore
SplineSet
347 463 m 0xb4
 492 463 576 371 576 229 c 0
 576 71 449 -14 314 -14 c 0
 160 -14 72 50 58 189 c 2
 57 199 l 1
 195 199 l 1
 196 189 l 1
 206 128 241 89 307 89 c 0
 384 89 429 143 429 224 c 0
 429 305 385 360 310 360 c 0xbc
 256 360 221 337 197 282 c 1
 69 282 l 1
 118 690 l 1
 548 690 l 1
 548 582 l 1
 231 582 l 1
 205 389 l 1xd4
 239 436 l 1
 271 455 307 463 347 463 c 0xb4
EndSplineSet
EndChar

StartChar: six
Encoding: 54 54 238
Width: 625
Flags: MW
HStem: -14 103<277.5 349 277.5 385> 361 103<324.5 351.5> 601 103<285.5 352.5>
VStem: 49 142<361 361 361 451> 430 146<184 261.5>
LayerCount: 2
Fore
SplineSet
349 464 m 0
 500 464 576 365 576 238 c 0
 576 78 456 -14 314 -14 c 0
 141 -14 49 89 49 323 c 0
 49 579 171 704 334 704 c 0
 471 704 554 629 568 510 c 1
 569 500 l 1
 429 500 l 1
 427 510 l 1
 412 572 380 601 325 601 c 0
 246 601 197 531 191 361 c 1
 226 424 l 1
 263 454 300 464 349 464 c 0
313 89 m 0
 385 89 430 147 430 221 c 0
 430 302 391 361 312 361 c 0
 250 361 197 313 197 225 c 0
 197 146 242 89 313 89 c 0
EndSplineSet
EndChar

StartChar: seven
Encoding: 55 55 239
Width: 625
Flags: MW
HStem: 0 21G<101 251 101 101> 582 108<54 418 54 582>
VStem: 54 528<617 690 617 690 617 690>
LayerCount: 2
Fore
SplineSet
582 690 m 1
 582 617 l 1
 251 0 l 1
 101 0 l 1
 418 582 l 1
 54 582 l 1
 54 690 l 1
 582 690 l 1
EndSplineSet
EndChar

StartChar: eight
Encoding: 56 56 240
Width: 625
Flags: MW
HStem: -15 103<274.5 354 274.5 382.5> 309 102<287.5 349 287.5 353> 601 103<289 350.5>
VStem: 48 145<164.5 230 164.5 239> 80 143<477.5 534.5 477.5 570> 418 142<477.5 534.5> 432 145<164.5 229>
LayerCount: 2
Fore
SplineSet
446 365 m 1xf2
 516 342 577 283 577 195 c 0
 577 44 454 -15 311 -15 c 0
 158 -15 48 44 48 195 c 0xf2
 48 283 111 342 182 365 c 1
 124 387 80 434 80 513 c 0
 80 627 169 704 321 704 c 0
 472 704 560 627 560 513 c 0xec
 560 433 507 386 446 365 c 1xf2
319 601 m 0xec
 259 601 223 562 223 507 c 0
 223 448 257 411 318 411 c 0
 380 411 418 448 418 507 c 0
 418 562 382 601 319 601 c 0xec
313 88 m 0xf2
 395 88 432 132 432 197 c 0
 432 261 394 309 312 309 c 0
 236 309 193 262 193 198 c 0
 193 131 236 88 313 88 c 0xf2
EndSplineSet
EndChar

StartChar: nine
Encoding: 57 57 241
Width: 625
Flags: MW
HStem: -14 103<271.5 339.5 271.5 374> 226 103<273.5 300.5> 601 103<276 347.5>
VStem: 49 147<429 506> 434 142<329 329>
LayerCount: 2
Fore
SplineSet
311 704 m 0
 484 704 576 602 576 367 c 0
 576 111 457 -14 291 -14 c 0
 151 -14 69 61 57 180 c 2
 56 190 l 1
 196 190 l 1
 198 180 l 2
 211 118 243 89 300 89 c 0
 379 89 428 159 434 329 c 1
 399 266 l 1
 362 236 325 226 276 226 c 0
 125 226 49 325 49 452 c 0
 49 612 169 704 311 704 c 0
313 329 m 0
 375 329 428 377 428 465 c 0
 428 544 383 601 312 601 c 0
 240 601 196 543 196 469 c 0
 196 389 234 329 313 329 c 0
EndSplineSet
EndChar

StartChar: colon
Encoding: 58 58 246
Width: 245
Flags: MW
HStem: -14 168<97.5 147> 379 167<97.5 147>
VStem: 39 167<45.5 94.5 437.5 487>
LayerCount: 2
Fore
SplineSet
122 546 m 0
 172 546 206 512 206 462 c 0
 206 413 172 379 122 379 c 0
 73 379 39 413 39 462 c 0
 39 512 73 546 122 546 c 0
122 154 m 0
 172 154 206 119 206 70 c 0
 206 21 172 -14 122 -14 c 0
 73 -14 39 21 39 70 c 0
 39 119 73 154 122 154 c 0
EndSplineSet
EndChar

StartChar: semicolon
Encoding: 59 59 258
Width: 245
Flags: MW
HStem: -122 266<51 85 -28 185> 379 167<97.5 147>
VStem: 39 167<437.5 487>
LayerCount: 2
Fore
SplineSet
122 546 m 0
 172 546 206 512 206 462 c 0
 206 413 172 379 122 379 c 0
 73 379 39 413 39 462 c 0
 39 512 73 546 122 546 c 0
185 128 m 1
 85 -122 l 1
 -28 -122 l 1
 51 144 l 1
 185 144 l 1
 185 128 l 1
EndSplineSet
EndChar

StartChar: less
Encoding: 60 60 296
Width: 625
Flags: MW
HStem: 25 481<545 545>
VStem: 105 440<25 318 25 318>
LayerCount: 2
Fore
SplineSet
545 410 m 1
 193 266 l 1
 545 121 l 1
 545 25 l 1
 105 212 l 1
 105 318 l 1
 545 506 l 1
 545 410 l 1
EndSplineSet
EndChar

StartChar: equal
Encoding: 61 61 291
Width: 625
Flags: MW
HStem: 179 74<83 542 83 542> 379 74<83 542 83 542>
VStem: 83 459<179 253 179 253 379 453 179 453>
LayerCount: 2
Fore
SplineSet
542 379 m 1
 83 379 l 1
 83 453 l 1
 542 453 l 1
 542 379 l 1
542 179 m 1
 83 179 l 1
 83 253 l 1
 542 253 l 1
 542 179 l 1
EndSplineSet
EndChar

StartChar: greater
Encoding: 62 62 292
Width: 625
Flags: MW
HStem: 25 481<69 69>
VStem: 69 440<25 318 120 318 212 506 212 506>
LayerCount: 2
Fore
SplineSet
509 318 m 1
 509 212 l 1
 69 25 l 1
 69 120 l 1
 421 265 l 1
 69 409 l 1
 69 506 l 1
 509 318 l 1
EndSplineSet
EndChar

StartChar: question
Encoding: 63 63 254
Width: 549
Flags: MW
HStem: -14 156<244.5 290> 601 103<242 300.5>
VStem: 32 140<483 483> 189 157<41 87> 207 119<197 197> 362 146<484 536.5>
LayerCount: 2
Fore
SplineSet
280 704 m 0xec
 425 704 508 630 508 516 c 0
 508 440 474 387 403 323 c 0
 348 273 330 248 326 197 c 1
 207 197 l 1
 211 268 230 304 279 358 c 0
 340 426 362 461 362 507 c 0
 362 566 330 601 271 601 c 0
 213 601 176 562 172 483 c 1
 32 483 l 1
 36 620 132 704 280 704 c 0xec
267 142 m 0xf4
 313 142 346 110 346 64 c 0
 346 18 313 -14 267 -14 c 0
 222 -14 189 18 189 64 c 0
 189 110 222 142 267 142 c 0xf4
EndSplineSet
EndChar

StartChar: at
Encoding: 64 64 313
Width: 895
Flags: MW
HStem: -121 79<339.5 462> 71 79<638 679.5> 71 97<340.5 437.5> 390 97<435.5 457 378.5 481.5> 606 79<398.5 565>
VStem: 49 87<159 364.5 159 378.5> 236 133<217.5 285 217.5 305> 510.26 22.74 758 88<274 423>
LayerCount: 2
Fore
SplineSet
671 469 m 1xdf80
 625 277 l 2
 615 231 613 216 613 202 c 0
 613 172 623 150 653 150 c 0
 707 150 758 212 758 336 c 0
 758 510 645 606 485 606 c 0
 312 606 136 477 136 252 c 0
 136 66 250 -42 429 -42 c 0
 512 -42 598 -18 664 30 c 1
 695 -38 l 1
 605 -98 504 -121 420 -121 c 0
 242 -121 49 -13 49 247 c 0
 49 510 253 685 488 685 c 0
 714 685 846 530 846 343 c 0
 846 147 737 71 622 71 c 0
 556 71 509 99 494 159 c 1xdf80
 467 105 l 1
 437 80 406 71 374 71 c 0xbf80
 307 71 236 110 236 236 c 0
 236 374 319 487 438 487 c 0
 476 487 505 475 520 458 c 1
 533 405 l 1
 552 469 l 1
 671 469 l 1xdf80
418 168 m 0xbf80
 457 168 483 206 494 249 c 1
 506 306 l 1
 520 365 499 390 464 390 c 0
 407 390 369 324 369 246 c 0
 369 189 389 168 418 168 c 0xbf80
EndSplineSet
EndChar

StartChar: A
Encoding: 65 65 1
Width: 676
GlyphClass: 2
Flags: MW
HStem: 0 21G<15 162 15 15 531 531 531 681> 208 109<266 428 266 463 231 428> 572 118<348 348> 670 20G<264 437 437 437>
VStem: 15 666<0 0>
LayerCount: 2
Fore
SplineSet
463 208 m 1xd8
 231 208 l 1
 162 0 l 1
 15 0 l 1
 264 690 l 1
 437 690 l 1
 681 0 l 1
 531 0 l 1
 463 208 l 1xd8
348 572 m 1xe8
 266 317 l 1
 428 317 l 1
 348 572 l 1xe8
EndSplineSet
Position2: "'cpsp' Capital Spacing in Latin lookup 0 subtable" dx=5 dy=0 dh=10 dv=0
EndChar

StartChar: B
Encoding: 66 66 12
Width: 657
GlyphClass: 2
Flags: MW
HStem: 0 109<227 340> 304 103<227 331 331 339.5 227 342 227 331> 582 108<227 227 227 327>
VStem: 89 138<109 304 407 582> 455 144<478.5 522> 480 145<176 237>
LayerCount: 2
Fore
SplineSet
492 372 m 1xf4
 581 349 625 295 625 206 c 0xf4
 625 78 528 17 436 4 c 0
 401 0 379 0 340 0 c 2
 89 0 l 1
 89 690 l 1
 336 690 l 2
 371 690 391 690 425 686 c 0
 537 672 599 607 599 514 c 0xf8
 599 443 561 396 492 372 c 1xf4
227 582 m 1
 227 407 l 1
 331 407 l 2
 348 407 364 408 380 410 c 0
 430 418 455 446 455 496 c 0
 455 548 423 573 377 579 c 0xf8
 361 581 343 582 327 582 c 2
 227 582 l 1
393 110 m 0xf4
 441 114 480 147 480 205 c 0
 480 269 441 296 391 301 c 0
 374 303 358 304 342 304 c 2
 227 304 l 1
 227 109 l 1
 347 109 l 2
 363 109 380 109 393 110 c 0xf4
EndSplineSet
Position2: "'cpsp' Capital Spacing in Latin lookup 0 subtable" dx=5 dy=0 dh=10 dv=0
EndChar

StartChar: F
Encoding: 70 70 31
Width: 593
GlyphClass: 2
Flags: MW
HStem: 0 21G<89 227 89 89> 291 109<227 542 227 542> 582 108<227 227 227 577>
VStem: 89 138<0 291 400 582>
LayerCount: 2
Fore
SplineSet
227 582 m 1
 227 400 l 1
 542 400 l 1
 542 291 l 1
 227 291 l 1
 227 0 l 1
 89 0 l 1
 89 690 l 1
 577 690 l 1
 577 582 l 1
 227 582 l 1
EndSplineSet
Position2: "'cpsp' Capital Spacing in Latin lookup 0 subtable" dx=5 dy=0 dh=10 dv=0
EndChar

StartChar: H
Encoding: 72 72 36
Width: 752
GlyphClass: 2
Flags: MW
HStem: 0 21G<89 227 89 89 550 687 550 550> 283 110<227 550 227 550> 670 20G<89 227 227 227 550 687 687 687>
VStem: 89 138<0 283 0 393 393 690> 550 137<0 283 283 283 393 690 0 690>
LayerCount: 2
Fore
SplineSet
687 690 m 1
 687 0 l 1
 550 0 l 1
 550 283 l 1
 227 283 l 1
 227 0 l 1
 89 0 l 1
 89 690 l 1
 227 690 l 1
 227 393 l 1
 550 393 l 1
 550 690 l 1
 687 690 l 1
EndSplineSet
Position2: "'cpsp' Capital Spacing in Latin lookup 0 subtable" dx=5 dy=0 dh=10 dv=0
EndChar

StartChar: I
Encoding: 73 73 38
Width: 292
GlyphClass: 2
Flags: MW
HStem: 0 21G<89 227 89 89> 670 20G<89 227 227 227>
VStem: 89 138<0 690>
LayerCount: 2
Fore
SplineSet
227 0 m 1
 89 0 l 1
 89 690 l 1
 227 690 l 1
 227 0 l 1
EndSplineSet
Position2: "'cpsp' Capital Spacing in Latin lookup 0 subtable" dx=5 dy=0 dh=10 dv=0
EndChar

StartChar: J
Encoding: 74 74 47
Width: 596
GlyphClass: 2
Flags: MW
HStem: -14 103<268.5 333 268.5 375> 670 20G<404 542 542 542>
VStem: 51.5 138.5 404 138<269 283 283 690>
LayerCount: 2
Fore
SplineSet
542 690 m 1
 542 283 l 2
 542 254 542 232 539 188 c 0
 532 69 457 -14 293 -14 c 0
 133 -14 56 75 52 216 c 2
 51 251 l 1
 189 251 l 1
 191 216 l 2
 196 124 236 89 301 89 c 0
 365 89 397 130 403 196 c 0
 404 218 404 241 404 269 c 2
 404 690 l 1
 542 690 l 1
EndSplineSet
Position2: "'cpsp' Capital Spacing in Latin lookup 0 subtable" dx=5 dy=0 dh=10 dv=0
EndChar

StartChar: K
Encoding: 75 75 48
Width: 683
GlyphClass: 2
Flags: MW
HStem: 0 21G<89 227 89 89 497 675 497 497> 670 20G<89 227 227 227 525 689 689 689>
VStem: 89 138<0 217 357 690>
AnchorPoint: "Anchor-0" 351 0 basechar 0
LayerCount: 2
Fore
SplineSet
384 360 m 1
 675 0 l 1
 497 0 l 1
 284 279 l 1
 227 217 l 1
 227 0 l 1
 89 0 l 1
 89 690 l 1
 227 690 l 1
 227 357 l 1
 525 690 l 1
 689 690 l 1
 384 360 l 1
EndSplineSet
Position2: "'cpsp' Capital Spacing in Latin lookup 0 subtable" dx=5 dy=0 dh=10 dv=0
EndChar

StartChar: L
Encoding: 76 76 50
Width: 604
GlyphClass: 2
Flags: MW
HStem: 0 115<227 587 227 587> 670 20G<89 227 227 227>
VStem: 89 138<115 690 115 690 115 690>
AnchorPoint: "Anchor-0" 335 0 basechar 0
LayerCount: 2
Fore
SplineSet
587 115 m 1
 587 0 l 1
 89 0 l 1
 89 690 l 1
 227 690 l 1
 227 115 l 1
 587 115 l 1
EndSplineSet
Position2: "'cpsp' Capital Spacing in Latin lookup 0 subtable" dx=5 dy=0 dh=10 dv=0
EndChar

StartChar: M
Encoding: 77 77 56
Width: 897
GlyphClass: 2
Flags: MW
HStem: 0 21G<89 227 89 89 386 536 386 386 695 833 695 695> 0 127<463 463 463 536 386 463> 554 136 670 20G<89 307 307 307 619 833 833 833>
VStem: 89 138<0 319 0 690> 695 138<0 319 319 355>
LayerCount: 2
Fore
SplineSet
833 690 m 1x9c
 833 0 l 1
 695 0 l 1
 695 319 l 2
 695 391 695 483 697 555 c 1
 680 483 655 391 633 320 c 2
 536 0 l 1
 386 0 l 1
 287 321 l 2
 266 391 241 483 225 554 c 1xac
 227 482 227 391 227 319 c 2
 227 0 l 1
 89 0 l 1
 89 690 l 1
 307 690 l 1
 463 127 l 1x5c
 619 690 l 1
 833 690 l 1x9c
EndSplineSet
Position2: "'cpsp' Capital Spacing in Latin lookup 0 subtable" dx=5 dy=0 dh=10 dv=0
EndChar

StartChar: N
Encoding: 78 78 57
Width: 760
GlyphClass: 2
Flags: MW
HStem: 0 21G<89 227 89 89 506 695 506 506> 0 156<562 562 562 695 506 562> 524 166<222 222> 670 20G<89 272 272 272 557 694 694 694>
VStem: 89 138<0 312 0 690> 557 137.5
AnchorPoint: "Anchor-0" 389 0 basechar 0
LayerCount: 2
Fore
SplineSet
695 0 m 1x9c
 506 0 l 1
 222 524 l 1xac
 226 449 227 370 227 312 c 2
 227 0 l 1
 89 0 l 1
 89 690 l 1
 272 690 l 1
 562 156 l 1x5c
 558 230 557 314 557 373 c 2
 557 690 l 1
 694 690 l 1
 695 0 l 1x9c
EndSplineSet
Position2: "'cpsp' Capital Spacing in Latin lookup 0 subtable" dx=5 dy=0 dh=10 dv=0
EndChar

StartChar: P
Encoding: 80 80 73
Width: 623
GlyphClass: 2
Flags: MW
HStem: 0 21G<89 227 89 89> 260 109<227 326 326 328 227 326> 581 109<227 326 227 227>
VStem: 89 138<0 260 0 369 369 581> 469 145<442.5 507.5>
LayerCount: 2
Fore
SplineSet
428 685 m 0
 533 673 614 602 614 475 c 0
 614 348 528 277 428 265 c 0
 394 261 368 260 328 260 c 2
 227 260 l 1
 227 0 l 1
 89 0 l 1
 89 690 l 1
 328 690 l 2
 368 690 394 689 428 685 c 0
387 372 m 0
 435 379 469 410 469 475 c 0
 469 540 435 571 387 578 c 0
 372 580 351 581 326 581 c 2
 227 581 l 1
 227 369 l 1
 326 369 l 2
 351 369 372 370 387 372 c 0
EndSplineSet
Position2: "'cpsp' Capital Spacing in Latin lookup 0 subtable" dx=5 dy=0 dh=10 dv=0
EndChar

StartChar: Q
Encoding: 81 81 75
Width: 765
GlyphClass: 2
Flags: MW
HStem: -14 103<330.5 405> 2 87<330.5 556.5> 601 104<330.5 453>
VStem: 51 144<264.5 426 264.5 453.5> 588 145<296.5 426>
LayerCount: 2
Fore
SplineSet
625 103 m 1xb8
 667 93 703 73 744 39 c 1
 675 -50 l 1
 609 -8 577 2 536 2 c 0x78
 508 2 491 -1 463 -7 c 0
 441 -12 418 -14 392 -14 c 0
 179 -14 51 129 51 345 c 0
 51 562 179 705 392 705 c 0
 604 705 733 562 733 345 c 0
 733 248 697 159 625 103 c 1xb8
195 345 m 0
 195 184 269 89 392 89 c 0
 514 89 588 184 588 345 c 0
 588 507 514 601 392 601 c 0
 269 601 195 507 195 345 c 0
EndSplineSet
Position2: "'cpsp' Capital Spacing in Latin lookup 0 subtable" dx=5 dy=0 dh=10 dv=0
EndChar

StartChar: T
Encoding: 84 84 85
Width: 623
GlyphClass: 2
Flags: MW
HStem: 0 21G<257 395 257 257> 582 108<23 257 23 629 395 629 395 395>
VStem: 257 138<0 582 0 582>
AnchorPoint: "Anchor-0" 326 0 basechar 0
LayerCount: 2
Fore
SplineSet
629 582 m 1
 395 582 l 1
 395 0 l 1
 257 0 l 1
 257 582 l 1
 23 582 l 1
 23 690 l 1
 629 690 l 1
 629 582 l 1
EndSplineSet
Position2: "'cpsp' Capital Spacing in Latin lookup 0 subtable" dx=5 dy=0 dh=10 dv=0
EndChar

StartChar: V
Encoding: 86 86 99
Width: 688
GlyphClass: 2
Flags: MW
HStem: 0 21G<276 449 276 276> 0 106<365 365 365 449 276 365> 670 20G<32 182 182 182 551 698 698 698>
VStem: 32 666<690 690>
LayerCount: 2
Fore
SplineSet
449 0 m 1xb0
 276 0 l 1
 32 690 l 1
 182 690 l 1
 365 106 l 1x70
 551 690 l 1
 698 690 l 1
 449 0 l 1xb0
EndSplineSet
Position2: "'cpsp' Capital Spacing in Latin lookup 0 subtable" dx=5 dy=0 dh=10 dv=0
EndChar

StartChar: W
Encoding: 87 87 100
Width: 987
GlyphClass: 2
Flags: MW
HStem: 0 21G<199 383 199 199 625 808 625 625> 0 104<725 725 725 808 625 725> 574 106<507 507> 670 20G<26 175 175 175 849 991 991 991>
VStem: 26 965<690 690>
LayerCount: 2
Fore
SplineSet
991 690 m 1x98
 808 0 l 1
 625 0 l 1
 507 574 l 1xa8
 383 0 l 1
 199 0 l 1
 26 690 l 1
 175 690 l 1x98
 291 106 l 1
 413 680 l 1
 607 680 l 1
 725 104 l 1x68
 849 690 l 1
 991 690 l 1x98
EndSplineSet
Position2: "'cpsp' Capital Spacing in Latin lookup 0 subtable" dx=5 dy=0 dh=10 dv=0
EndChar

StartChar: X
Encoding: 88 88 105
Width: 676
GlyphClass: 2
Flags: MW
HStem: 0 21G<19 183 19 19 515 676 515 515> 670 20G<36 196 196 196 512 671 671 671>
VStem: 19 657<0 0>
LayerCount: 2
Fore
SplineSet
515 0 m 1
 345 261 l 1
 183 0 l 1
 19 0 l 1
 266 348 l 1
 36 690 l 1
 196 690 l 1
 350 435 l 1
 512 690 l 1
 671 690 l 1
 430 351 l 1
 676 0 l 1
 515 0 l 1
EndSplineSet
Position2: "'cpsp' Capital Spacing in Latin lookup 0 subtable" dx=5 dy=0 dh=10 dv=0
EndChar

StartChar: Y
Encoding: 89 89 106
Width: 626
GlyphClass: 2
Flags: MW
HStem: 0 21G<260 397 260 260> 670 20G<16 172 172 172 489 641 641 641>
VStem: 260 137<0 267 0 267>
LayerCount: 2
Fore
SplineSet
397 267 m 1
 397 0 l 1
 260 0 l 1
 260 267 l 1
 16 690 l 1
 172 690 l 1
 333 389 l 1
 489 690 l 1
 641 690 l 1
 397 267 l 1
EndSplineSet
Position2: "'cpsp' Capital Spacing in Latin lookup 0 subtable" dx=5 dy=0 dh=10 dv=0
EndChar

StartChar: Z
Encoding: 90 90 111
Width: 622
GlyphClass: 2
Flags: MW
HStem: 0 109<217 596 217 596> 582 108<78 427 78 591>
VStem: 50 546<0 105 105 105>
LayerCount: 2
Fore
SplineSet
596 109 m 1
 596 0 l 1
 50 0 l 1
 50 105 l 1
 427 582 l 1
 78 582 l 1
 78 690 l 1
 591 690 l 1
 591 583 l 1
 217 109 l 1
 596 109 l 1
EndSplineSet
Position2: "'cpsp' Capital Spacing in Latin lookup 0 subtable" dx=5 dy=0 dh=10 dv=0
EndChar

StartChar: bracketleft
Encoding: 91 91 263
Width: 364
Flags: MW
HStem: -80 78<185 328 185 328> 702 78<185 328 185 185>
VStem: 104 81<-2 702 -2 780 -2 780>
LayerCount: 2
Fore
SplineSet
328 780 m 1
 328 702 l 1
 185 702 l 1
 185 -2 l 1
 328 -2 l 1
 328 -80 l 1
 104 -80 l 1
 104 780 l 1
 328 780 l 1
EndSplineSet
EndChar

StartChar: backslash
Encoding: 92 92 244
Width: 327
Flags: MW
HStem: -30 750<-5 332 -5 246>
VStem: -5 337
LayerCount: 2
Fore
SplineSet
332 -30 m 1
 246 -30 l 1
 -5 720 l 1
 81 720 l 1
 332 -30 l 1
EndSplineSet
EndChar

StartChar: bracketright
Encoding: 93 93 264
Width: 358
Flags: MW
HStem: -80 78<31 173 31 254 31 173> 702 78<31 173 31 254>
VStem: 173 81<-2 702 702 702>
LayerCount: 2
Fore
SplineSet
254 -80 m 1
 31 -80 l 1
 31 -2 l 1
 173 -2 l 1
 173 702 l 1
 31 702 l 1
 31 780 l 1
 254 780 l 1
 254 -80 l 1
EndSplineSet
EndChar

StartChar: asciicircum
Encoding: 94 94 312
Width: 625
Flags: MW
HStem: 215 401<93 359 93 359 265 531 265 439>
VStem: 93 438<215 215>
LayerCount: 2
Fore
SplineSet
439 215 m 1
 312 537 l 1
 185 215 l 1
 93 215 l 1
 265 616 l 1
 359 616 l 1
 531 215 l 1
 439 215 l 1
EndSplineSet
EndChar

StartChar: underscore
Encoding: 95 95 260
Width: 500
Flags: MW
HStem: -87 78<50 450 50 450>
VStem: 50 400<-87 -9 -87 -9>
LayerCount: 2
Fore
SplineSet
450 -87 m 1
 50 -87 l 1
 50 -9 l 1
 450 -9 l 1
 450 -87 l 1
EndSplineSet
EndChar

StartChar: grave
Encoding: 96 96 331
Width: 300
Flags: MW
HStem: 575 118<124 125 1 202 124 124>
VStem: 1 201<575 693>
LayerCount: 2
Fore
SplineSet
202 575 m 1
 124 575 l 1
 1 693 l 1
 125 693 l 1
 202 575 l 1
EndSplineSet
EndChar

StartChar: c
Encoding: 99 99 127
Width: 561
GlyphClass: 2
Flags: MW
HStem: -14 97<254.5 316 254.5 347.5> 449 97<255 318.5>
VStem: 27 143<205 331.5 205 353>
AnchorPoint: "Anchor-0" 278 0 basechar 0
LayerCount: 2
Fore
SplineSet
293 546 m 0
 437 546 526 458 536 340 c 1
 400 340 l 1
 387 417 347 449 290 449 c 0
 220 449 170 392 170 271 c 0
 170 139 220 83 289 83 c 0
 343 83 383 117 397 184 c 1
 535 184 l 1
 512 53 414 -14 281 -14 c 0
 136 -14 27 78 27 262 c 0
 27 444 147 546 293 546 c 0
EndSplineSet
EndChar

StartChar: d
Encoding: 100 100 132
Width: 645
GlyphClass: 2
Flags: MW
HStem: -14 97<263 291> 0 83 449 97<269 304 213.5 341> 715 20G<442 580 580 580>
VStem: 27 143<210.5 326.5 210.5 352.5> 442 138<0 82 82 82 260 286 286 346 461 735 0 735>
LayerCount: 2
Fore
SplineSet
580 735 m 1xbc
 580 0 l 1
 442 0 l 1
 442 82 l 1x7c
 402 23 l 1
 372 0 318 -14 264 -14 c 0
 115 -14 27 99 27 256 c 0
 27 449 145 546 282 546 c 0
 326 546 380 535 407 516 c 1
 442 461 l 1
 442 735 l 1
 580 735 l 1xbc
304 83 m 0xbc
 380 83 442 130 442 260 c 2
 442 286 l 2
 442 406 373 449 309 449 c 0
 229 449 170 388 170 265 c 0
 170 156 222 83 304 83 c 0xbc
EndSplineSet
EndChar

StartChar: e
Encoding: 101 101 136
Width: 578
GlyphClass: 2
Flags: MW
HStem: -14 97<257 318.5 257 348.5> 230 90<170 404 170 544 166 404> 449 97<259 324>
VStem: 27 139<230 230 230 345.5> 404 142<320 320>
AnchorPoint: "Anchor-0" 286 0 basechar 0
LayerCount: 2
Fore
SplineSet
546 277 m 0
 546 264 546 248 544 230 c 1
 166 230 l 1
 175 118 225 83 289 83 c 0
 348 83 391 116 400 173 c 1
 538 173 l 1
 511 49 411 -14 286 -14 c 0
 140 -14 27 77 27 264 c 0
 27 427 134 546 297 546 c 0
 460 546 546 422 546 277 c 0
291 449 m 0
 227 449 182 408 170 320 c 1
 404 320 l 1
 395 404 357 449 291 449 c 0
EndSplineSet
EndChar

StartChar: f
Encoding: 102 102 145
Width: 338
GlyphClass: 2
Flags: MW
HStem: 0 21G<77 215 77 77> 437 91<20 77 20 77 215 324> 654.43 92.57
VStem: 77 138<0 437 0 437 528 550 550 554 0 559>
LayerCount: 2
Fore
SplineSet
217 600 m 0
 215 586 215 568 215 554 c 2
 215 528 l 1
 324 528 l 1
 324 437 l 1
 215 437 l 1
 215 0 l 1
 77 0 l 1
 77 437 l 1
 20 437 l 1
 20 528 l 1
 77 528 l 1
 77 550 l 2
 77 568 77 593 79 611 c 0
 87 701 146 754 272 754 c 0
 294 754 315 751 333 747 c 1
 333 651 l 1
 268 663 222 645 217 600 c 0
EndSplineSet
EndChar

StartChar: g
Encoding: 103 103 146
Width: 645
GlyphClass: 2
Flags: MW
HStem: -216 103<263.5 341.5 263.5 381> -3 97<263 297> 449 83 449 97<269 304 213.5 341>
VStem: 27 143<217.5 333 217.5 356.5> 42 134<-34 -33> 442 138<80 133 93 133 271 286 286 346 461 532>
LayerCount: 2
Fore
SplineSet
580 532 m 1xea
 580 133 l 2
 580 100 580 59 579 30 c 0
 573 -136 465 -216 297 -216 c 0
 141 -216 54 -151 42 -34 c 2
 41 -24 l 1
 175 -24 l 1
 176 -33 l 2xd6
 182 -82 228 -113 299 -113 c 0
 384 -113 436 -70 441 15 c 0
 442 35 442 57 442 80 c 2
 442 93 l 1
 402 34 l 1
 372 11 324 -3 270 -3 c 0
 120 -3 27 104 27 260 c 0
 27 453 145 546 282 546 c 0
 326 546 380 535 407 516 c 1
 442 461 l 1xda
 442 532 l 1
 580 532 l 1xea
304 94 m 0
 380 94 442 141 442 271 c 2
 442 286 l 2
 442 406 373 449 309 449 c 0
 229 449 170 394 170 272 c 0xda
 170 163 222 94 304 94 c 0
EndSplineSet
EndChar

StartChar: h
Encoding: 104 104 150
Width: 621
GlyphClass: 2
Flags: MW
HStem: 0 21G<63 201 63 63 425 563 425 425> 449 97<344.5 354.5> 720 20G<63 201 201 201>
VStem: 63 138<0 243 446 740> 425 138<0 281 281 292>
LayerCount: 2
Fore
SplineSet
559 397 m 0
 562 370 563 343 563 300 c 2
 563 0 l 1
 425 0 l 1
 425 281 l 2
 425 303 425 328 423 355 c 0
 419 411 388 449 321 449 c 0
 254 448 201 391 201 243 c 2
 201 0 l 1
 63 0 l 1
 63 740 l 1
 201 740 l 1
 201 446 l 1
 242 509 l 1
 280 536 319 546 370 546 c 0
 483 546 548 490 559 397 c 0
EndSplineSet
EndChar

StartChar: i
Encoding: 105 105 152
Width: 266
GlyphClass: 2
Flags: MW
HStem: 0 21G<63 201 63 63> 512 20G<63 201 201 201> 584 146<109.5 154.5>
VStem: 56 152<635 678.5> 63 138<0 532>
LayerCount: 2
Fore
SplineSet
132 730 m 0xf0
 177 730 208 700 208 657 c 0
 208 613 177 584 132 584 c 0
 87 584 56 613 56 657 c 0
 56 700 87 730 132 730 c 0xf0
201 0 m 1xe8
 63 0 l 1
 63 532 l 1
 201 532 l 1
 201 0 l 1xe8
EndSplineSet
EndChar

StartChar: j
Encoding: 106 106 161
Width: 260
GlyphClass: 2
Flags: MW
HStem: -210 101<-33 79> 512 20G<60 197 197 197> 584 146<104 153.5>
VStem: 53 151<633 681> 60 137<-14 -12 -12 532>
LayerCount: 2
Fore
SplineSet
129 730 m 0xf0
 178 730 204 705 204 657 c 0
 204 609 178 584 129 584 c 0
 79 584 53 609 53 657 c 0
 53 705 79 730 129 730 c 0xf0
197 532 m 1xe8
 197 -12 l 2
 197 -32 196 -58 195 -76 c 0
 188 -160 140 -210 18 -210 c 0
 -1 -210 -18 -209 -33 -207 c 1
 -33 -109 l 1
 27 -114 53 -101 58 -60 c 0
 59 -46 60 -29 60 -14 c 2
 60 532 l 1
 197 532 l 1xe8
EndSplineSet
EndChar

StartChar: k
Encoding: 107 107 162
Width: 583
GlyphClass: 2
Flags: MW
HStem: 0 21G<63 201 63 63 410 410 410 584> 512 20G<415 581 581 581> 715 20G<63 201 201 201>
VStem: 63 138<0 162 0 289 289 735>
AnchorPoint: "Anchor-0" 300 0 basechar 0
LayerCount: 2
Fore
SplineSet
245 210 m 1
 201 162 l 1
 201 0 l 1
 63 0 l 1
 63 735 l 1
 201 735 l 1
 201 289 l 1
 415 532 l 1
 581 532 l 1
 345 285 l 1
 584 0 l 1
 410 0 l 1
 245 210 l 1
EndSplineSet
EndChar

StartChar: m
Encoding: 109 109 170
Width: 916
GlyphClass: 2
Flags: MW
HStem: 0 21G<63 201 63 63 392 529 392 392 720 858 720 720> 449 83<63 323.5> 449 97<266 396.5>
VStem: 63 138<0 273 451 532> 392 137<0 273 0 277 0 292.5> 720 138<0 277 277 292.5>
LayerCount: 2
Fore
SplineSet
853 414 m 0xbc
 857 387 858 360 858 317 c 2
 858 0 l 1
 720 0 l 1
 720 277 l 2
 720 308 719 337 716 364 c 0
 709 419 679 449 626 449 c 0
 564 449 529 396 529 273 c 2
 529 0 l 1
 392 0 l 1
 392 277 l 2
 392 308 391 337 388 364 c 0
 381 419 350 449 297 449 c 0xbc
 235 449 201 396 201 273 c 2
 201 0 l 1
 63 0 l 1
 63 532 l 1
 201 532 l 1
 201 451 l 1xdc
 240 515 l 1
 270 536 305 546 353 546 c 0
 440 546 495 503 516 445 c 1
 568 515 l 1
 598 536 634 546 682 546 c 0
 783 546 841 487 853 414 c 0xbc
EndSplineSet
EndChar

StartChar: p
Encoding: 112 112 187
Width: 643
GlyphClass: 2
Flags: MW
HStem: -14 97<339 374 302 429.5> 449 83 449 97<352 380>
VStem: 63 138<-196 71 186.5 247 247 272 451 532> 473 143<205.5 321.5>
LayerCount: 2
Fore
SplineSet
379 546 m 0xb8
 528 546 616 433 616 276 c 0
 616 84 498 -14 361 -14 c 0
 317 -14 263 -3 236 16 c 1
 201 71 l 1
 201 -196 l 1
 63 -196 l 1
 63 532 l 1
 201 532 l 1
 201 451 l 1xd8
 241 509 l 1
 271 533 325 546 379 546 c 0xb8
334 83 m 0
 414 83 473 144 473 267 c 0
 473 376 421 449 339 449 c 0
 263 449 201 402 201 272 c 2
 201 247 l 2
 201 126 270 83 334 83 c 0
EndSplineSet
EndChar

StartChar: q
Encoding: 113 113 189
Width: 645
GlyphClass: 2
Flags: MW
HStem: -14 97<263 291> 449 83 449 97<269 304 213.5 341>
VStem: 27 143<210.5 326.5 210.5 352.5> 442 138<-196 82 82 82 260 286 286 346 461 532 -196 532>
LayerCount: 2
Fore
SplineSet
580 532 m 1xd8
 580 -196 l 1
 442 -196 l 1
 442 82 l 1
 402 23 l 1
 372 0 318 -14 264 -14 c 0
 115 -14 27 99 27 256 c 0
 27 449 145 546 282 546 c 0
 326 546 380 535 407 516 c 1
 442 461 l 1xb8
 442 532 l 1
 580 532 l 1xd8
304 83 m 0
 380 83 442 130 442 260 c 2
 442 286 l 2
 442 406 373 449 309 449 c 0
 229 449 170 388 170 265 c 0
 170 156 222 83 304 83 c 0
EndSplineSet
EndChar

StartChar: r
Encoding: 114 114 190
Width: 380
GlyphClass: 2
Flags: MW
HStem: 0 21G<63 201 63 63> 512 20G<63 201 201 201> 521 20G<373 373> 525 20G<319 342>
VStem: 63 138<0 244 435 532>
AnchorPoint: "Anchor-0" 132 0 basechar 0
LayerCount: 2
Fore
SplineSet
334 545 m 0x98
 350 545 361 544 373 541 c 1xa8
 373 430 l 1
 258 438 201 387 201 244 c 2
 201 0 l 1
 63 0 l 1
 63 532 l 1
 201 532 l 1
 201 435 l 1xc8
 243 509 l 1
 269 533 304 545 334 545 c 0x98
EndSplineSet
EndChar

StartChar: v
Encoding: 118 118 214
Width: 566
GlyphClass: 2
Flags: MW
HStem: 0 21G<207 361 207 207> 0 104<287 287 287 361 207 287> 512 20G<0 153 153 153 418 567 567 567>
VStem: 0 567<532 532>
LayerCount: 2
Fore
SplineSet
567 532 m 1xb0
 361 0 l 1
 207 0 l 1
 0 532 l 1
 153 532 l 1
 287 104 l 1x70
 418 532 l 1
 567 532 l 1xb0
EndSplineSet
EndChar

StartChar: w
Encoding: 119 119 215
Width: 831
GlyphClass: 2
Flags: MW
HStem: 0 21G<169 326 169 169 507 663 507 507> 0 115<248 248 248 326 169 248> 512 20G<0 154 154 154 684 832 832 832>
VStem: 0 832<532 532>
LayerCount: 2
Fore
SplineSet
832 532 m 1xb0
 663 0 l 1
 507 0 l 1
 417 405 l 1
 326 0 l 1
 169 0 l 1
 0 532 l 1
 154 532 l 1
 248 115 l 1
 335 530 l 1
 501 530 l 1
 591 116 l 1x70
 684 532 l 1
 832 532 l 1xb0
EndSplineSet
EndChar

StartChar: x
Encoding: 120 120 220
Width: 541
GlyphClass: 2
Flags: MW
HStem: 0 21G<-3 155 -3 -3 376 537 376 376> 512 20G<4 165 165 165 376 535 535 535>
VStem: -3 540<0 0>
LayerCount: 2
Fore
SplineSet
351 269 m 1
 537 0 l 1
 376 0 l 1
 267 184 l 1
 155 0 l 1
 -3 0 l 1
 185 270 l 1
 4 532 l 1
 165 532 l 1
 271 355 l 1
 376 532 l 1
 535 532 l 1
 351 269 l 1
EndSplineSet
EndChar

StartChar: y
Encoding: 121 121 221
Width: 565
GlyphClass: 2
Flags: MW
HStem: -210 97<118.5 133.5 103 185> 512 20G<0 154 154 154 416 567 567 567>
VStem: 0 567<532 532>
LayerCount: 2
Fore
SplineSet
567 532 m 1
 353 -20 l 2
 297 -164 239 -210 131 -210 c 0
 106 -210 89 -209 69 -206 c 1
 69 -111 l 1
 83 -113 96 -113 110 -113 c 0
 157 -113 188 -95 210 -42 c 2
 217 -25 l 1
 0 532 l 1
 154 532 l 1
 286 105 l 1
 416 532 l 1
 567 532 l 1
EndSplineSet
EndChar

StartChar: braceleft
Encoding: 123 123 261
Width: 373
Flags: MW
HStem: -80 78<240 320 302 320 302 320> 311 78<91 91> 702 78<287 302 302 320>
VStem: 151 81<25.5 46 654.5 674.5> 173 82<236.5 262 438 463.5>
LayerCount: 2
Fore
SplineSet
320 702 m 1xb0
 302 702 l 2
 249 702 232 691 232 658 c 0xb0
 232 640 234 623 243 564 c 0
 251 508 255 475 255 452 c 0
 255 397 226 363 171 352 c 1
 226 340 255 304 255 248 c 0xa8
 255 225 251 192 243 136 c 0
 234 78 232 60 232 42 c 0
 232 9 249 -2 302 -2 c 2
 320 -2 l 1
 320 -80 l 1
 287 -80 l 2
 193 -80 151 -49 151 32 c 0xb0
 151 60 154 85 163 146 c 0
 170 193 173 220 173 245 c 0
 173 279 156 306 91 311 c 1
 91 389 l 1
 156 394 173 421 173 455 c 0xe8
 173 480 170 507 163 554 c 0
 154 615 151 640 151 669 c 0
 151 749 193 780 287 780 c 2
 320 780 l 1
 320 702 l 1xb0
EndSplineSet
EndChar

StartChar: bar
Encoding: 124 124 314
Width: 284
Flags: MW
HStem: -200 1000<97 187 97 187>
VStem: 97 90<-200 800>
LayerCount: 2
Fore
SplineSet
187 -200 m 1
 97 -200 l 1
 97 800 l 1
 187 800 l 1
 187 -200 l 1
EndSplineSet
EndChar

StartChar: braceright
Encoding: 125 125 262
Width: 373
Flags: MW
HStem: -80 78<53 71 71 86 53 71> 311 78<282 282> 702 78<53 71 53 86>
VStem: 118 82<236.5 262 232.5 275.5 438 463.5> 141 81<25.5 46 -8.5 51 654.5 674.5>
LayerCount: 2
Fore
SplineSet
282 389 m 1xf0
 282 311 l 1
 217 306 200 279 200 245 c 0xf0
 200 220 203 193 210 146 c 0
 219 85 222 60 222 32 c 0
 222 -49 180 -80 86 -80 c 2
 53 -80 l 1
 53 -2 l 1
 71 -2 l 2
 124 -2 141 9 141 42 c 0xa8
 141 60 139 78 130 136 c 0
 122 192 118 225 118 248 c 0
 118 303 147 337 202 348 c 1
 147 360 118 397 118 452 c 0xb0
 118 475 122 508 130 564 c 0
 139 623 141 640 141 658 c 0
 141 691 124 702 71 702 c 2
 53 702 l 1
 53 780 l 1
 86 780 l 2
 180 780 222 749 222 669 c 0xa8
 222 640 219 615 210 554 c 0
 203 507 200 480 200 455 c 0
 200 421 217 394 282 389 c 1xf0
EndSplineSet
EndChar

StartChar: asciitilde
Encoding: 126 126 288
Width: 625
Flags: MW
HStem: 223 85<405.5 435 405.5 461> 299 85<189.5 219>
VStem: 83 78<223 247.5 223 277> 465 78<357.5 384>
LayerCount: 2
Fore
SplineSet
465 384 m 1x70
 543 384 l 1x70
 543 276 501 223 421 223 c 0xb0
 379 223 351 237 299 264 c 0
 255 287 231 299 207 299 c 0
 172 299 161 272 161 223 c 1
 83 223 l 1
 83 331 125 384 205 384 c 0x70
 247 384 276 369 326 343 c 1
 368 320 393 308 418 308 c 0xb0
 452 308 465 331 465 384 c 1x70
EndSplineSet
EndChar

StartChar: exclamdown
Encoding: 161 161 250
Width: 263
Flags: MW
HStem: 388 156<108.5 154>
VStem: 53 157<443 489> 70 123
LayerCount: 2
Fore
SplineSet
131 388 m 0xc0
 86 388 53 420 53 466 c 0
 53 512 86 544 131 544 c 0
 177 544 210 512 210 466 c 0
 210 420 177 388 131 388 c 0xc0
76 334 m 1xa0
 187 334 l 1
 199 -160 l 1
 64 -160 l 1
 76 334 l 1xa0
EndSplineSet
EndChar

StartChar: cent
Encoding: 162 162 281
Width: 616
Flags: MW
HStem: -12 21G<276 276> -11 21G<357 357> 520 20G<276 276> 522 20G<357 357>
VStem: 57 132<218 317.5 218 342> 276 81<-90 -12 -12 -12 91 439 439 439 542 620>
LayerCount: 2
Fore
SplineSet
357 442 m 1x5c
 357 89 l 1
 395 101 427 133 438 184 c 1
 565 184 l 1
 545 69 466 3 357 -11 c 1
 357 -90 l 1
 276 -90 l 1x5c
 276 -12 l 1
 149 2 57 97 57 261 c 0
 57 423 152 520 276 540 c 1
 276 620 l 1
 357 620 l 1xac
 357 542 l 1
 481 530 557 447 566 338 c 1
 441 338 l 1
 431 397 398 430 357 442 c 1x5c
189 270 m 0
 189 166 227 110 276 91 c 1
 276 439 l 1
 226 419 189 365 189 270 c 0
EndSplineSet
EndChar

StartChar: sterling
Encoding: 163 163 285
Width: 625
Flags: MW
HStem: 0 109<224 563 224 563> 302 73<74 120 74 152 74 120 300 300 300 476> 500 204<259 558 259 418> 601 103<298 354>
VStem: 93 147<484.5 531.5 484.5 558> 169 141<207 231> 418 140<500 500>
LayerCount: 2
Fore
SplineSet
563 109 m 1xda
 563 0 l 1
 65 0 l 1
 65 96 l 1
 142 112 169 161 169 217 c 0
 169 245 164 270 152 302 c 1
 74 302 l 1
 74 375 l 1xd6
 120 375 l 1
 102 415 93 448 93 493 c 0
 93 623 191 704 327 704 c 0xda
 480 704 550 611 558 500 c 1xea
 418 500 l 1
 411 563 382 601 326 601 c 0
 270 601 240 556 240 507 c 0
 240 462 248 433 273 375 c 1xda
 476 375 l 1
 476 302 l 1
 300 302 l 1
 307 278 310 258 310 235 c 0
 310 179 280 135 224 109 c 1xd6
 563 109 l 1xda
EndSplineSet
EndChar

StartChar: currency
Encoding: 164 164 282
Width: 625
Flags: MW
HStem: 121 78<294.5 331.5> 403 78<294.5 331.5 294.5 340.5>
VStem: 133 85<282.5 319.5> 407 86<282.5 319.5 282.5 331.5>
LayerCount: 2
Fore
SplineSet
493 301 m 0
 493 264 482 230 463 201 c 1
 518 146 l 1
 469 96 l 1
 414 151 l 1
 385 132 350 121 313 121 c 0
 276 121 241 132 212 151 c 1
 157 97 l 1
 107 146 l 1
 163 202 l 1
 144 230 133 264 133 301 c 0
 133 338 144 372 163 401 c 1
 107 457 l 1
 157 506 l 1
 213 451 l 1
 241 470 276 481 313 481 c 0
 350 481 385 470 413 451 c 1
 469 506 l 1
 518 457 l 1
 463 401 l 1
 482 373 493 338 493 301 c 0
313 199 m 0
 368 199 407 240 407 301 c 0
 407 362 368 403 313 403 c 0
 257 403 218 362 218 301 c 0
 218 240 257 199 313 199 c 0
EndSplineSet
EndChar

StartChar: yen
Encoding: 165 165 286
Width: 625
Flags: MW
HStem: 0 232<88 381 88 244> 154 78<88 244 88 244 381 537> 292 78<88 201 88 244 88 201 425 537> 670 20G<24 174 174 174 457 602 602 602>
VStem: 244 137<0 154 0 154 232 291>
LayerCount: 2
Fore
SplineSet
425 370 m 1x78
 537 370 l 1
 537 292 l 1
 382 292 l 1
 381 291 l 1
 381 232 l 1
 537 232 l 1
 537 154 l 1
 381 154 l 1x78
 381 0 l 1
 244 0 l 1xb8
 244 154 l 1
 88 154 l 1
 88 232 l 1
 244 232 l 1
 244 292 l 1
 88 292 l 1
 88 370 l 1
 201 370 l 1
 24 690 l 1
 174 690 l 1
 317 376 l 1
 457 690 l 1
 602 690 l 1
 425 370 l 1x78
EndSplineSet
EndChar

StartChar: brokenbar
Encoding: 166 166 315
Width: 275
Flags: MW
HStem: 670 20G<97 178 178 178>
VStem: 97 81<-160 180 350 690>
LayerCount: 2
Fore
SplineSet
178 350 m 1
 97 350 l 1
 97 690 l 1
 178 690 l 1
 178 350 l 1
178 -160 m 1
 97 -160 l 1
 97 180 l 1
 178 180 l 1
 178 -160 l 1
EndSplineSet
EndChar

StartChar: section
Encoding: 167 167 322
Width: 599
Flags: MW
HStem: -174 91<272 317.5 272 352.5> 613 91<276 315.5>
VStem: 27 140<276 318.5 276 329> 89 141<518 566.5 518 577.5> 372 141<-36.5 10.5> 432 141<211.5 252>
LayerCount: 2
Fore
SplineSet
573 239 m 0xd4
 573 173 537 123 483 94 c 1
 503 68 513 37 513 -1 c 0
 513 -113 413 -174 292 -174 c 0
 165 -174 71 -117 57 3 c 1
 195 3 l 1
 209 -54 248 -83 296 -83 c 0
 339 -83 372 -59 372 -14 c 0
 372 35 342 69 220 104 c 0
 103 137 27 188 27 295 c 0xe8
 27 363 60 413 113 443 c 1
 98 466 89 492 89 523 c 0
 89 632 175 704 300 704 c 0
 426 704 497 635 510 531 c 1
 372 531 l 1
 362 584 337 613 294 613 c 0
 258 613 230 588 230 545 c 0
 230 491 260 464 358 437 c 0
 506 397 573 341 573 239 c 0xd4
285 200 m 0
 325 188 360 176 390 162 c 1
 416 173 432 197 432 226 c 0
 432 278 396 307 303 335 c 0
 267 345 234 357 206 370 c 1
 183 360 167 337 167 300 c 0xe4
 167 252 210 221 285 200 c 0
EndSplineSet
EndChar

StartChar: dieresis
Encoding: 168 168 329
Width: 300
Flags: MW
HStem: 575 122<44 80 220 256>
VStem: 0 124<618 654> 176 124<618 654>
LayerCount: 2
Fore
SplineSet
62 697 m 0
 98 697 124 672 124 636 c 0
 124 600 98 575 62 575 c 0
 26 575 0 600 0 636 c 0
 0 672 26 697 62 697 c 0
238 697 m 0
 274 697 300 672 300 636 c 0
 300 600 274 575 238 575 c 0
 202 575 176 600 176 636 c 0
 176 672 202 697 238 697 c 0
EndSplineSet
EndChar

StartChar: guillemotleft
Encoding: 171 171 270
Width: 634
Flags: MW
HStem: 82 332<272 376 272 376 272 480 480 584>
VStem: 135 449<82 248>
LayerCount: 2
Fore
SplineSet
376 414 m 1
 239 248 l 1
 376 82 l 1
 272 82 l 1
 135 248 l 1
 272 414 l 1
 376 414 l 1
584 414 m 1
 447 248 l 1
 584 82 l 1
 480 82 l 1
 343 248 l 1
 480 414 l 1
 584 414 l 1
EndSplineSet
EndChar

StartChar: logicalnot
Encoding: 172 172 298
Width: 625
Flags: MW
HStem: 314 78<111 423 111 504>
VStem: 423 81<189 314 314 314>
LayerCount: 2
Fore
SplineSet
504 189 m 1
 423 189 l 1
 423 314 l 1
 111 314 l 1
 111 392 l 1
 504 392 l 1
 504 189 l 1
EndSplineSet
EndChar

StartChar: registered
Encoding: 174 174 321
Width: 496
Flags: MW
HStem: 344 52<202.5 293.5 202.5 310> 454 99 523 44<225 239 239 243 225 239> 620 43<225 240 225 225> 713 51<202.5 293.5>
VStem: 38 55<507.5 600.5 507.5 615.5> 170 55<454 523 454 567 567 620> 259 80 403 55<507.5 600.5>
LayerCount: 2
Fore
SplineSet
248 764 m 0xbe80
 372 764 458 677 458 554 c 0
 458 431 372 344 248 344 c 0
 124 344 38 431 38 554 c 0
 38 677 124 764 248 764 c 0xbe80
248 396 m 0
 339 396 403 461 403 554 c 0
 403 647 339 713 248 713 c 0
 157 713 93 647 93 554 c 0
 93 461 157 396 248 396 c 0
298 553 m 1xdf80
 318 548 326 530 328 508 c 0
 331 481 336 465 341 454 c 1
 279 454 l 1xdf80
 276 466 274 480 272 497 c 0
 269 515 259 523 243 523 c 2
 225 523 l 1
 225 454 l 1
 170 454 l 1xbf80
 170 663 l 1
 244 663 l 2
 254 663 262 663 271 662 c 0
 315 658 339 637 339 604 c 0
 339 576 321 560 298 553 c 1xdf80
259 568 m 0xbf80
 272 571 279 581 279 594 c 0
 279 609 271 617 259 619 c 0
 252 620 248 620 240 620 c 2
 225 620 l 1
 225 567 l 1
 239 567 l 2
 248 567 252 567 259 568 c 0xbf80
EndSplineSet
EndChar

StartChar: macron
Encoding: 175 175 333
Width: 300
Flags: MW
HStem: 594 76<13 287 13 287>
VStem: 13 274<594 670 594 670>
LayerCount: 2
Fore
SplineSet
287 594 m 1
 13 594 l 1
 13 670 l 1
 287 670 l 1
 287 594 l 1
EndSplineSet
EndChar

StartChar: degree
Encoding: 176 176 319
Width: 310
Flags: MW
HStem: 448 74<141 169.5 141 193.5> 630 74<141 169.5>
VStem: 24 79<560 592 560 614> 207 80<560 592>
LayerCount: 2
Fore
SplineSet
155 704 m 0
 232 704 287 652 287 576 c 0
 287 501 232 448 155 448 c 0
 78 448 24 501 24 576 c 0
 24 652 78 704 155 704 c 0
155 630 m 0
 127 630 103 608 103 576 c 0
 103 544 127 522 155 522 c 0
 184 522 207 544 207 576 c 0
 207 608 184 630 155 630 c 0
EndSplineSet
EndChar

StartChar: plusminus
Encoding: 177 177 306
Width: 625
Flags: MW
HStem: 0 74<108 517 108 517> 279 78<108 272 108 272 353 517>
VStem: 272 81<119 279 119 279 357 515>
LayerCount: 2
Fore
SplineSet
353 357 m 1
 517 357 l 1
 517 279 l 1
 353 279 l 1
 353 119 l 1
 272 119 l 1
 272 279 l 1
 108 279 l 1
 108 357 l 1
 272 357 l 1
 272 515 l 1
 353 515 l 1
 353 357 l 1
517 0 m 1
 108 0 l 1
 108 74 l 1
 517 74 l 1
 517 0 l 1
EndSplineSet
EndChar

StartChar: acute
Encoding: 180 180 324
Width: 300
Flags: MW
HStem: 575 118<105 307 105 307>
VStem: 105 202<575 693>
LayerCount: 2
Fore
SplineSet
183 575 m 1
 105 575 l 1
 183 693 l 1
 307 693 l 1
 183 575 l 1
EndSplineSet
EndChar

StartChar: paragraph
Encoding: 182 182 320
Width: 595
Flags: MW
HStem: 612 78<345 449 345 345>
VStem: 264 81<-110 320 320 320> 449 81<-110 612 612 612>
LayerCount: 2
Fore
SplineSet
530 690 m 1
 530 -110 l 1
 449 -110 l 1
 449 612 l 1
 345 612 l 1
 345 -110 l 1
 264 -110 l 1
 264 320 l 1
 254 320 l 2
 236 320 215 320 198 321 c 0
 96 327 41 410 41 505 c 0
 41 600 96 683 198 689 c 0
 215 690 236 690 254 690 c 2
 530 690 l 1
EndSplineSet
EndChar

StartChar: periodcentered
Encoding: 183 183 253
Width: 245
Flags: MW
HStem: 219 172<97 147>
VStem: 36 173<280 330>
LayerCount: 2
Fore
SplineSet
122 391 m 0
 172 391 209 355 209 305 c 0
 209 255 172 219 122 219 c 0
 72 219 36 255 36 305 c 0
 36 355 72 391 122 391 c 0
EndSplineSet
EndChar

StartChar: cedilla
Encoding: 184 184 327
Width: 300
Flags: MW
HStem: -210 57<98 127 98 146> -84 93<71 190>
VStem: 167 86<-130 -105.5>
LayerCount: 2
Fore
SplineSet
190 9 m 1
 164 -41 l 1
 222 -48 253 -75 253 -121 c 0
 253 -184 188 -210 104 -210 c 0
 85 -210 67 -208 51 -203 c 1
 51 -144 l 1
 71 -151 90 -153 106 -153 c 0
 148 -153 167 -141 167 -119 c 0
 167 -92 143 -79 71 -84 c 1
 118 9 l 1
 190 9 l 1
EndSplineSet
EndChar

StartChar: guillemotright
Encoding: 187 187 271
Width: 616
Flags: MW
HStem: 82 332<50 154 50 154 50 258 258 362>
VStem: 50 449<82 248 248 414>
LayerCount: 2
Fore
SplineSet
291 248 m 1
 154 82 l 1
 50 82 l 1
 187 248 l 1
 50 414 l 1
 154 414 l 1
 291 248 l 1
499 248 m 1
 362 82 l 1
 258 82 l 1
 395 248 l 1
 258 414 l 1
 362 414 l 1
 499 248 l 1
EndSplineSet
EndChar

StartChar: questiondown
Encoding: 191 191 255
Width: 528
Flags: MW
HStem: -172 103<263.5 322 263.5 358> 390 156<274 320>
VStem: 56 147<-4.5 48 -4.5 54.5> 219 156<445.5 491> 238 119<336 336> 393 139<49 49>
LayerCount: 2
Fore
SplineSet
297 390 m 0xf4
 251 390 219 423 219 468 c 0
 219 514 251 546 297 546 c 0
 343 546 375 514 375 468 c 0
 375 423 343 390 297 390 c 0xf4
284 -172 m 0xec
 139 -172 56 -97 56 17 c 0
 56 92 90 145 162 209 c 0
 217 259 234 285 238 336 c 1
 357 336 l 1
 354 265 335 228 286 174 c 0
 224 106 203 71 203 25 c 0
 203 -34 234 -69 293 -69 c 0
 351 -69 388 -30 393 49 c 1
 532 49 l 1
 528 -88 432 -172 284 -172 c 0xec
EndSplineSet
EndChar

StartChar: Aacute
Encoding: 193 193 2
Width: 676
GlyphClass: 2
Flags: MW
HStem: 0 21G<15 162 15 15 531 531 531 681> 208 109<266 428 266 463 231 428> 572 118<348 348> 670 20G<264 437 437 437> 735 112<380 383 305 504>
VStem: 15 666<0 0>
LayerCount: 2
Fore
SplineSet
383 735 m 1xdc
 305 735 l 1
 380 847 l 1
 504 847 l 1
 383 735 l 1xdc
463 208 m 1
 231 208 l 1
 162 0 l 1
 15 0 l 1
 264 690 l 1
 437 690 l 1
 681 0 l 1
 531 0 l 1
 463 208 l 1
348 572 m 1xec
 266 317 l 1
 428 317 l 1
 348 572 l 1xec
EndSplineSet
Position2: "'cpsp' Capital Spacing in Latin lookup 0 subtable" dx=5 dy=0 dh=10 dv=0
EndChar

StartChar: Acircumflex
Encoding: 194 194 4
Width: 676
GlyphClass: 2
Flags: MW
HStem: 0 21G<15 162 15 15 531 531 531 681> 208 109<266 428 266 463 231 428> 572 118<348 348> 670 20G<264 437 437 437> 735 112<296 318 232 405 382 382 382 405 296 469>
VStem: 15 666<0 0>
LayerCount: 2
Fore
SplineSet
318 735 m 1xdc
 232 735 l 1
 296 847 l 1
 405 847 l 1
 469 735 l 1
 382 735 l 1
 349 802 l 1
 318 735 l 1xdc
463 208 m 1
 231 208 l 1
 162 0 l 1
 15 0 l 1
 264 690 l 1
 437 690 l 1
 681 0 l 1
 531 0 l 1
 463 208 l 1
348 572 m 1xec
 266 317 l 1
 428 317 l 1
 348 572 l 1xec
EndSplineSet
Position2: "'cpsp' Capital Spacing in Latin lookup 0 subtable" dx=5 dy=0 dh=10 dv=0
EndChar

StartChar: Atilde
Encoding: 195 195 10
Width: 676
GlyphClass: 2
Flags: MW
HStem: 0 21G<15 162 15 15 531 531 531 681> 208 109<266 428 266 463 231 428> 572 118<348 348> 670 20G<264 437 437 437> 742 106<418 439.5> 746 105<261 282 212 297.5>
VStem: 212 70<746 755 746 784> 418 70<838.5 848>
LayerCount: 2
Fore
SplineSet
297 772 m 0xd7
 287 772 282 764 282 746 c 1
 212 746 l 1
 212 822 237 851 285 851 c 0xd7
 310 851 326 848 358 835 c 0
 382 825 394 822 403 822 c 0
 413 822 418 829 418 848 c 1
 488 848 l 1
 488 771 464 742 415 742 c 0xdb
 391 742 375 746 342 758 c 1
 318 768 306 772 297 772 c 0xd7
463 208 m 1
 231 208 l 1
 162 0 l 1
 15 0 l 1
 264 690 l 1
 437 690 l 1
 681 0 l 1
 531 0 l 1
 463 208 l 1
348 572 m 1xe7
 266 317 l 1
 428 317 l 1
 348 572 l 1xe7
EndSplineSet
Position2: "'cpsp' Capital Spacing in Latin lookup 0 subtable" dx=5 dy=0 dh=10 dv=0
EndChar

StartChar: Adieresis
Encoding: 196 196 5
Width: 676
GlyphClass: 2
Flags: MW
HStem: 0 21G<15 162 15 15 531 531 531 681> 208 109<266 428 266 463 231 428> 572 118<348 348> 670 20G<264 437 437 437> 729 121<246 282 419 455>
VStem: 202 123<772 808> 375 123<772 808>
LayerCount: 2
Fore
SplineSet
264 729 m 0xde
 228 729 202 754 202 790 c 0
 202 826 228 850 264 850 c 0
 300 850 325 826 325 790 c 0
 325 754 300 729 264 729 c 0xde
437 729 m 0
 401 729 375 754 375 790 c 0
 375 826 401 850 437 850 c 0
 473 850 498 826 498 790 c 0
 498 754 473 729 437 729 c 0
463 208 m 1
 231 208 l 1
 162 0 l 1
 15 0 l 1
 264 690 l 1
 437 690 l 1
 681 0 l 1
 531 0 l 1
 463 208 l 1
348 572 m 1xee
 266 317 l 1
 428 317 l 1
 348 572 l 1xee
EndSplineSet
Position2: "'cpsp' Capital Spacing in Latin lookup 0 subtable" dx=5 dy=0 dh=10 dv=0
EndChar

StartChar: Aring
Encoding: 197 197 9
Width: 676
GlyphClass: 2
Flags: MW
HStem: 0 21G<15 162 15 15 531 531 531 681> 208 109<266 428 266 463 231 428> 572 118<348 348> 670 20G<264 437 437 437> 719 53<339 361 339 381> 853 53<339 361>
VStem: 244 68<801 825 801 840> 388 68<801 825>
LayerCount: 2
Fore
SplineSet
350 719 m 0xdf
 288 719 244 758 244 813 c 0
 244 867 288 906 350 906 c 0
 412 906 456 867 456 813 c 0
 456 758 412 719 350 719 c 0xdf
350 853 m 0
 328 853 312 837 312 813 c 0
 312 789 328 772 350 772 c 0
 372 772 388 789 388 813 c 0
 388 837 372 853 350 853 c 0
463 208 m 1
 231 208 l 1
 162 0 l 1
 15 0 l 1
 264 690 l 1
 437 690 l 1xd7
 681 0 l 1
 531 0 l 1
 463 208 l 1
348 572 m 1xe7
 266 317 l 1
 428 317 l 1
 348 572 l 1xe7
EndSplineSet
Position2: "'cpsp' Capital Spacing in Latin lookup 0 subtable" dx=5 dy=0 dh=10 dv=0
EndChar

StartChar: AE
Encoding: 198 198 11
Width: 956
GlyphClass: 2
Flags: MW
HStem: 0 109<586 927 586 927> 225 108<280 429 280 439 224 429> 291 109<570 893 570 570> 582 108<544 917 544 544>
VStem: -39 966<0 109>
LayerCount: 2
Fore
SplineSet
927 109 m 1xb8
 927 0 l 1
 459 0 l 1
 439 225 l 1
 224 225 l 1xd8
 108 0 l 1
 -39 0 l 1
 338 690 l 1
 917 690 l 1
 917 582 l 1
 544 582 l 1
 560 400 l 1
 893 400 l 1
 893 291 l 1
 570 291 l 1
 586 109 l 1
 927 109 l 1xb8
429 333 m 1
 407 579 l 1
 280 333 l 1
 429 333 l 1
EndSplineSet
Position2: "'cpsp' Capital Spacing in Latin lookup 0 subtable" dx=5 dy=0 dh=10 dv=0
EndChar

StartChar: Ccedilla
Encoding: 199 199 16
Width: 718
GlyphClass: 2
Flags: MW
HStem: -210 57<312 341 312 360> -84 173<285 426> -10 21G<322 322> 601 103<327.5 429>
VStem: 51 146<263 427.5 263 454> 381 86<-130 -105.5>
AnchorPoint: "Anchor-0" 364 0 basechar 0
LayerCount: 2
Fore
SplineSet
543 239 m 1xbc
 680 239 l 1
 679 229 l 2
 664 87 559 -8 392 -14 c 1
 378 -41 l 1
 436 -48 467 -75 467 -121 c 0
 467 -184 402 -210 318 -210 c 0
 299 -210 281 -208 265 -203 c 1
 265 -144 l 1
 285 -151 304 -153 320 -153 c 0
 362 -153 381 -141 381 -119 c 0
 381 -92 357 -79 285 -84 c 1xdc
 322 -10 l 1xbc
 159 12 51 142 51 341 c 0
 51 567 194 704 385 704 c 0
 572 704 669 602 683 466 c 2
 684 456 l 1
 546 456 l 1
 544 466 l 2
 527 551 475 601 383 601 c 0
 272 601 197 506 197 349 c 0
 197 177 276 89 381 89 c 0xdc
 471 89 523 143 541 229 c 2
 543 239 l 1xbc
EndSplineSet
Position2: "'cpsp' Capital Spacing in Latin lookup 0 subtable" dx=5 dy=0 dh=10 dv=0
EndChar

StartChar: Egrave
Encoding: 200 200 28
Width: 616
GlyphClass: 2
Flags: MW
HStem: 0 109<227 587 227 587> 291 109<227 552 227 552> 582 108<227 577 227 227> 735 112<308 308 308 312 188 386>
VStem: 89 138<109 291 400 582>
AnchorPoint: "Anchor-0" 318 0 basechar 0
LayerCount: 2
Fore
SplineSet
308 735 m 1
 188 847 l 1
 312 847 l 1
 386 735 l 1
 308 735 l 1
587 109 m 1
 587 0 l 1
 89 0 l 1
 89 690 l 1
 577 690 l 1
 577 582 l 1
 227 582 l 1
 227 400 l 1
 552 400 l 1
 552 291 l 1
 227 291 l 1
 227 109 l 1
 587 109 l 1
EndSplineSet
Position2: "'cpsp' Capital Spacing in Latin lookup 0 subtable" dx=5 dy=0 dh=10 dv=0
EndChar

StartChar: Eacute
Encoding: 201 201 23
Width: 616
GlyphClass: 2
Flags: MW
HStem: 0 109<227 587 227 587> 291 109<227 552 227 552> 582 108<227 577 227 227> 735 112<368 371 293 492>
VStem: 89 138<109 291 400 582>
AnchorPoint: "Anchor-0" 318 0 basechar 0
LayerCount: 2
Fore
SplineSet
371 735 m 1
 293 735 l 1
 368 847 l 1
 492 847 l 1
 371 735 l 1
587 109 m 1
 587 0 l 1
 89 0 l 1
 89 690 l 1
 577 690 l 1
 577 582 l 1
 227 582 l 1
 227 400 l 1
 552 400 l 1
 552 291 l 1
 227 291 l 1
 227 109 l 1
 587 109 l 1
EndSplineSet
Position2: "'cpsp' Capital Spacing in Latin lookup 0 subtable" dx=5 dy=0 dh=10 dv=0
EndChar

StartChar: Ecircumflex
Encoding: 202 202 25
Width: 616
GlyphClass: 2
Flags: MW
HStem: 0 109<227 587 227 587> 291 109<227 552 227 552> 582 108<227 577 227 227> 735 112<284 306 220 393 370 370 370 393 284 457>
VStem: 89 138<109 291 400 582>
AnchorPoint: "Anchor-0" 318 0 basechar 0
LayerCount: 2
Fore
SplineSet
306 735 m 1
 220 735 l 1
 284 847 l 1
 393 847 l 1
 457 735 l 1
 370 735 l 1
 337 802 l 1
 306 735 l 1
587 109 m 1
 587 0 l 1
 89 0 l 1
 89 690 l 1
 577 690 l 1
 577 582 l 1
 227 582 l 1
 227 400 l 1
 552 400 l 1
 552 291 l 1
 227 291 l 1
 227 109 l 1
 587 109 l 1
EndSplineSet
Position2: "'cpsp' Capital Spacing in Latin lookup 0 subtable" dx=5 dy=0 dh=10 dv=0
EndChar

StartChar: Edieresis
Encoding: 203 203 26
Width: 616
GlyphClass: 2
Flags: MW
HStem: 0 109<227 587 227 587> 291 109<227 552 227 552> 582 108<227 577 227 227> 729 121<234 270 407 443>
VStem: 89 138<109 291 400 582> 190 123<772 808> 363 123<772 808>
AnchorPoint: "Anchor-0" 318 0 basechar 0
LayerCount: 2
Fore
SplineSet
252 729 m 0xf6
 216 729 190 754 190 790 c 0
 190 826 216 850 252 850 c 0
 288 850 313 826 313 790 c 0
 313 754 288 729 252 729 c 0xf6
425 729 m 0
 389 729 363 754 363 790 c 0
 363 826 389 850 425 850 c 0
 461 850 486 826 486 790 c 0
 486 754 461 729 425 729 c 0
587 109 m 1
 587 0 l 1
 89 0 l 1
 89 690 l 1
 577 690 l 1
 577 582 l 1
 227 582 l 1
 227 400 l 1
 552 400 l 1
 552 291 l 1
 227 291 l 1
 227 109 l 1xe8
 587 109 l 1
EndSplineSet
Position2: "'cpsp' Capital Spacing in Latin lookup 0 subtable" dx=5 dy=0 dh=10 dv=0
EndChar

StartChar: Igrave
Encoding: 204 204 44
Width: 292
GlyphClass: 2
Flags: MW
HStem: 0 21G<89 227 89 89> 670 20G<89 227 227 227> 735 112<128 132 8 206 128 128>
VStem: 89 138<0 690>
LayerCount: 2
Fore
SplineSet
206 735 m 1
 128 735 l 1
 8 847 l 1
 132 847 l 1
 206 735 l 1
227 0 m 1
 89 0 l 1
 89 690 l 1
 227 690 l 1
 227 0 l 1
EndSplineSet
Position2: "'cpsp' Capital Spacing in Latin lookup 0 subtable" dx=5 dy=0 dh=10 dv=0
EndChar

StartChar: Iacute
Encoding: 205 205 40
Width: 292
GlyphClass: 2
Flags: MW
HStem: 0 21G<89 227 89 89> 670 20G<89 227 227 227> 735 112<188 191 113 312>
VStem: 89 138<0 690>
LayerCount: 2
Fore
SplineSet
191 735 m 1
 113 735 l 1
 188 847 l 1
 312 847 l 1
 191 735 l 1
227 0 m 1
 89 0 l 1
 89 690 l 1
 227 690 l 1
 227 0 l 1
EndSplineSet
Position2: "'cpsp' Capital Spacing in Latin lookup 0 subtable" dx=5 dy=0 dh=10 dv=0
EndChar

StartChar: Icircumflex
Encoding: 206 206 41
Width: 292
GlyphClass: 2
Flags: MW
HStem: 0 21G<89 227 89 89> 670 20G<89 227 227 227> 735 112<104 126 40 213 190 190 190 213 104 277>
VStem: 89 138<0 690 0 690>
LayerCount: 2
Fore
SplineSet
126 735 m 1
 40 735 l 1
 104 847 l 1
 213 847 l 1
 277 735 l 1
 190 735 l 1
 157 802 l 1
 126 735 l 1
89 690 m 1
 227 690 l 1
 227 0 l 1
 89 0 l 1
 89 690 l 1
EndSplineSet
Position2: "'cpsp' Capital Spacing in Latin lookup 0 subtable" dx=5 dy=0 dh=10 dv=0
EndChar

StartChar: Idieresis
Encoding: 207 207 42
Width: 292
GlyphClass: 2
Flags: MW
HStem: 0 21G<89 227 89 89> 670 20G<89 227 227 227> 729 121<54 90 227 263>
VStem: 10 123<772 808> 89 138<0 690> 183 123<772 808>
LayerCount: 2
Fore
SplineSet
72 850 m 0xe8
 108 850 133 826 133 790 c 0xe8
 133 754 108 729 72 729 c 0
 36 729 10 754 10 790 c 0xf0
 10 826 36 850 72 850 c 0xe8
245 850 m 0
 281 850 306 826 306 790 c 0xe4
 306 754 281 729 245 729 c 0
 209 729 183 754 183 790 c 0
 183 826 209 850 245 850 c 0
227 0 m 1
 89 0 l 1
 89 690 l 1
 227 690 l 1
 227 0 l 1
EndSplineSet
Position2: "'cpsp' Capital Spacing in Latin lookup 0 subtable" dx=5 dy=0 dh=10 dv=0
EndChar

StartChar: Ntilde
Encoding: 209 209 62
Width: 760
GlyphClass: 2
Flags: MW
HStem: 0 21G<89 227 89 89 506 695 506 506> 0 156<562 562 562 695 506 562> 524 166<222 222> 670 20G<89 272 272 272 557 694 694 694> 742 106<457 478.5> 746 105<300 321 251 336.5>
VStem: 89 138<0 312 0 690> 251 70<746 755 746 784> 457 70<838.5 848> 557 137.5
AnchorPoint: "Anchor-0" 389 0 basechar 0
LayerCount: 2
Fore
SplineSet
324 851 m 0x9740
 349 851 365 848 397 835 c 0
 421 825 433 822 442 822 c 0
 452 822 457 829 457 848 c 1
 527 848 l 1
 527 771 503 742 454 742 c 0x9ac0
 430 742 414 746 381 758 c 1
 357 768 345 772 336 772 c 0
 326 772 321 764 321 746 c 1
 251 746 l 1
 251 822 276 851 324 851 c 0x9740
695 0 m 1x9640
 506 0 l 1
 222 524 l 1xa640
 226 449 227 370 227 312 c 2
 227 0 l 1
 89 0 l 1
 89 690 l 1
 272 690 l 1
 562 156 l 1x5640
 558 230 557 314 557 373 c 2
 557 690 l 1
 694 690 l 1
 695 0 l 1x9640
EndSplineSet
Position2: "'cpsp' Capital Spacing in Latin lookup 0 subtable" dx=5 dy=0 dh=10 dv=0
EndChar

StartChar: Ograve
Encoding: 210 210 67
Width: 765
GlyphClass: 2
Flags: MW
HStem: -14 103<330.5 453 330.5 498> 601 103<330.5 453> 735 112<362 362 362 366 242 440>
VStem: 51 144<264.5 426 264.5 453.5> 588 145<264.5 426>
LayerCount: 2
Fore
SplineSet
362 735 m 1
 242 847 l 1
 366 847 l 1
 440 735 l 1
 362 735 l 1
392 704 m 0
 604 704 733 562 733 345 c 0
 733 129 604 -14 392 -14 c 0
 179 -14 51 129 51 345 c 0
 51 562 179 704 392 704 c 0
392 89 m 0
 514 89 588 184 588 345 c 0
 588 507 514 601 392 601 c 0
 269 601 195 507 195 345 c 0
 195 184 269 89 392 89 c 0
EndSplineSet
Position2: "'cpsp' Capital Spacing in Latin lookup 0 subtable" dx=5 dy=0 dh=10 dv=0
EndChar

StartChar: Otilde
Encoding: 213 213 71
Width: 765
GlyphClass: 2
Flags: MW
HStem: -14 103<330.5 453 330.5 498> 601 103<330.5 453> 742 106<460 481.5> 746 105<303 324 254 339.5>
VStem: 51 144<264.5 426 264.5 453.5> 254 70<746 755 746 784> 460 70<838.5 848> 588 145<264.5 426>
LayerCount: 2
Fore
SplineSet
339 772 m 0xdd
 329 772 324 764 324 746 c 1
 254 746 l 1
 254 822 279 851 327 851 c 0xdd
 352 851 368 848 400 835 c 0
 424 825 436 822 445 822 c 0
 455 822 460 829 460 848 c 1
 530 848 l 1
 530 771 506 742 457 742 c 0xef
 433 742 417 746 384 758 c 1
 360 768 348 772 339 772 c 0xdd
392 704 m 0
 604 704 733 562 733 345 c 0
 733 129 604 -14 392 -14 c 0
 179 -14 51 129 51 345 c 0
 51 562 179 704 392 704 c 0
392 89 m 0
 514 89 588 184 588 345 c 0
 588 507 514 601 392 601 c 0
 269 601 195 507 195 345 c 0
 195 184 269 89 392 89 c 0
EndSplineSet
Position2: "'cpsp' Capital Spacing in Latin lookup 0 subtable" dx=5 dy=0 dh=10 dv=0
EndChar

StartChar: Odieresis
Encoding: 214 214 66
Width: 765
GlyphClass: 2
Flags: MW
HStem: -14 103<330.5 453 330.5 498> 601 103<330.5 453> 729 121<288 324 461 497>
VStem: 51 144<264.5 426 264.5 453.5> 244 123<772 808> 417 123<772 808> 588 145<264.5 426>
LayerCount: 2
Fore
SplineSet
306 729 m 0
 270 729 244 754 244 790 c 0
 244 826 270 850 306 850 c 0
 342 850 367 826 367 790 c 0
 367 754 342 729 306 729 c 0
479 729 m 0
 443 729 417 754 417 790 c 0
 417 826 443 850 479 850 c 0
 515 850 540 826 540 790 c 0
 540 754 515 729 479 729 c 0
392 704 m 0xd2
 604 704 733 562 733 345 c 0
 733 129 604 -14 392 -14 c 0
 179 -14 51 129 51 345 c 0
 51 562 179 704 392 704 c 0xd2
392 89 m 0
 514 89 588 184 588 345 c 0
 588 507 514 601 392 601 c 0
 269 601 195 507 195 345 c 0
 195 184 269 89 392 89 c 0
EndSplineSet
Position2: "'cpsp' Capital Spacing in Latin lookup 0 subtable" dx=5 dy=0 dh=10 dv=0
EndChar

StartChar: multiply
Encoding: 215 215 300
Width: 625
Flags: MW
HStem: 119 407<166 166 166 459>
VStem: 109 407<175 175 175 469>
LayerCount: 2
Fore
SplineSet
369 322 m 1
 516 175 l 1
 459 119 l 1
 313 266 l 1
 166 119 l 1
 109 175 l 1
 256 322 l 1
 109 469 l 1
 166 526 l 1
 313 379 l 1
 459 526 l 1
 516 469 l 1
 369 322 l 1
EndSplineSet
EndChar

StartChar: Oslash
Encoding: 216 216 70
Width: 770
GlyphClass: 2
Flags: MW
HStem: -14 103<365 455.5 365 500.5> -2 21G<104 104> 521 20G<533 533> 601 103<333 423> 672 20G<684 684>
VStem: 53 145<322 426 322 453.5> 591 144<264.5 368.5>
LayerCount: 2
Fore
SplineSet
741 635 m 1xae
 674 568 l 1
 714 509 735 433 735 345 c 0
 735 129 607 -14 394 -14 c 0
 301 -14 225 13 168 62 c 1xb6
 104 -2 l 1
 47 55 l 1
 114 122 l 1
 74 181 53 257 53 345 c 0
 53 562 181 704 394 704 c 0
 487 704 564 677 621 629 c 1x76
 684 692 l 1
 741 635 l 1xae
198 345 m 0
 198 299 204 258 216 224 c 1
 533 541 l 1
 499 580 452 601 394 601 c 0
 272 601 198 507 198 345 c 0
591 345 m 0
 591 392 585 433 573 467 c 1
 256 150 l 1
 289 110 336 89 394 89 c 0
 517 89 591 184 591 345 c 0
EndSplineSet
Position2: "'cpsp' Capital Spacing in Latin lookup 0 subtable" dx=5 dy=0 dh=10 dv=0
EndChar

StartChar: Uacute
Encoding: 218 218 91
Width: 702
GlyphClass: 2
Flags: MW
HStem: -14 103<319 410.5 319 461.5> 670 20G<80 217 217 217 512 649 649 649> 735 112<395 398 320 519>
VStem: 80 137<281 690> 512 137<267 281 281 690>
LayerCount: 2
Fore
SplineSet
398 735 m 1
 320 735 l 1
 395 847 l 1
 519 847 l 1
 398 735 l 1
649 690 m 1
 649 281 l 2
 649 252 649 232 647 200 c 0
 638 85 558 -14 365 -14 c 0
 171 -14 91 85 82 200 c 0
 80 232 80 252 80 281 c 2
 80 690 l 1
 217 690 l 1
 217 267 l 2
 217 247 217 232 219 217 c 0
 225 138 273 89 365 89 c 0
 456 89 504 138 510 217 c 0
 512 232 512 247 512 267 c 2
 512 690 l 1
 649 690 l 1
EndSplineSet
Position2: "'cpsp' Capital Spacing in Latin lookup 0 subtable" dx=5 dy=0 dh=10 dv=0
EndChar

StartChar: Udieresis
Encoding: 220 220 93
Width: 702
GlyphClass: 2
Flags: MW
HStem: -14 103<319 410.5 319 461.5> 670 20G<80 217 217 217 512 649 649 649> 729 121<261 297 434 470>
VStem: 80 137<281 690> 217 123<267 808 772 808> 390 123<772 808> 512 137<267 281 281 690>
LayerCount: 2
Fore
SplineSet
279 850 m 0xec
 315 850 340 826 340 790 c 0
 340 754 315 729 279 729 c 0
 243 729 217 754 217 790 c 0
 217 826 243 850 279 850 c 0xec
452 850 m 0
 488 850 513 826 513 790 c 0
 513 754 488 729 452 729 c 0
 416 729 390 754 390 790 c 0
 390 826 416 850 452 850 c 0
649 690 m 1xf2
 649 281 l 2
 649 252 649 232 647 200 c 0
 638 85 558 -14 365 -14 c 0
 171 -14 91 85 82 200 c 0
 80 232 80 252 80 281 c 2
 80 690 l 1
 217 690 l 1
 217 267 l 2
 217 247 217 232 219 217 c 0
 225 138 273 89 365 89 c 0
 456 89 504 138 510 217 c 0
 512 232 512 247 512 267 c 2
 512 690 l 1
 649 690 l 1xf2
EndSplineSet
Position2: "'cpsp' Capital Spacing in Latin lookup 0 subtable" dx=5 dy=0 dh=10 dv=0
EndChar

StartChar: Yacute
Encoding: 221 221 107
Width: 626
GlyphClass: 2
Flags: MW
HStem: 0 21G<260 397 260 260> 670 20G<16 172 172 172 489 641 641 641> 735 112<359 362 284 483>
VStem: 260 137<0 267 0 267>
LayerCount: 2
Fore
SplineSet
362 735 m 1
 284 735 l 1
 359 847 l 1
 483 847 l 1
 362 735 l 1
397 267 m 1
 397 0 l 1
 260 0 l 1
 260 267 l 1
 16 690 l 1
 172 690 l 1
 333 389 l 1
 489 690 l 1
 641 690 l 1
 397 267 l 1
EndSplineSet
Position2: "'cpsp' Capital Spacing in Latin lookup 0 subtable" dx=5 dy=0 dh=10 dv=0
EndChar

StartChar: Thorn
Encoding: 222 222 74
Width: 643
GlyphClass: 2
Flags: MW
HStem: 0 21G<89 227 89 89> 191 109<227 325 325 336 227 325> 493 109<227 325 227 336> 493 197<89 325 89 227>
VStem: 89 138<0 191 0 300 300 493 602 690> 469 145<366 426>
LayerCount: 2
Fore
SplineSet
435 597 m 0xec
 535 585 614 521 614 397 c 0
 614 273 535 208 435 195 c 0
 401 191 375 191 336 191 c 2
 227 191 l 1
 227 0 l 1
 89 0 l 1
 89 690 l 1
 227 690 l 1xdc
 227 602 l 1
 336 602 l 2
 375 602 401 601 435 597 c 0xec
386 303 m 0xdc
 433 310 469 336 469 396 c 0
 469 456 433 483 386 490 c 0
 370 492 349 493 325 493 c 2
 227 493 l 1
 227 300 l 1
 325 300 l 2
 349 300 370 301 386 303 c 0xdc
EndSplineSet
Position2: "'cpsp' Capital Spacing in Latin lookup 0 subtable" dx=5 dy=0 dh=10 dv=0
EndChar

StartChar: germandbls
Encoding: 223 223 199
Width: 640
GlyphClass: 2
Flags: MW
HStem: -4 102<385.5 412 376 464.5> 0 21G<63 201 63 63> 651 103<284 352>
VStem: 63 138<0 453 453 461 0 474> 328 146<382.5 413 382.5 422.5> 421 146<557.5 593> 461 147<143 178>
LayerCount: 2
Fore
SplineSet
322 754 m 0xb4
 476 754 567 679 567 569 c 0xb4
 567 536 559 506 539 476 c 1
 494 451 474 428 474 398 c 0xb8
 474 367 491 344 530 308 c 1
 584 256 608 222 608 148 c 0
 608 48 516 -4 413 -4 c 0
 358 -4 332 -2 293 6 c 1
 293 111 l 1
 337 100 365 98 387 98 c 0
 437 98 461 123 461 163 c 0xb2
 461 193 449 219 408 257 c 1
 352 311 328 341 328 398 c 0xb8
 328 447 351 484 405 514 c 1
 417 532 421 548 421 567 c 0
 421 619 387 651 317 651 c 0
 251 651 208 611 203 537 c 0
 202 523 201 504 201 461 c 2
 201 0 l 1
 63 0 l 1x74
 63 453 l 2
 63 495 64 521 65 539 c 0
 74 678 174 754 322 754 c 0xb4
EndSplineSet
EndChar

StartChar: acircumflex
Encoding: 226 226 118
Width: 562
GlyphClass: 2
Flags: MW
HStem: -14 97<158 285> 0 83 239 85<326 360> 449 97<248.5 303> 575 118<226 247 162 335 313 313 313 335 226 399> 644 49<280 280>
VStem: 33 143<128.5 187 128.5 199.5> 360 137<196 239 239 239>
LayerCount: 2
Fore
SplineSet
247 575 m 1xab
 162 575 l 1
 226 693 l 1
 335 693 l 1
 399 575 l 1
 313 575 l 1x6b
 280 644 l 1xa7
 247 575 l 1xab
372 0 m 1
 362 78 l 1x6b
 336 21 l 1
 299 -4 254 -14 204 -14 c 0
 112 -14 33 40 33 141 c 0
 33 258 133 324 326 324 c 2
 360 324 l 1
 360 335 l 2
 360 351 360 367 358 385 c 0
 354 422 330 449 276 449 c 0
 221 449 191 417 187 359 c 1
 53 358 l 1
 57 478 154 546 281 546 c 0xbb
 430 546 486 481 494 389 c 0
 496 364 497 336 497 307 c 2
 497 135 l 2
 497 95 499 59 507 0 c 1
 372 0 l 1
257 83 m 0xab
 313 83 360 122 360 196 c 2
 360 239 l 1
 250 247 176 222 176 152 c 0
 176 105 208 83 257 83 c 0xab
EndSplineSet
EndChar

StartChar: atilde
Encoding: 227 227 124
Width: 562
GlyphClass: 2
Flags: MW
HStem: -14 97<158 285> 0 83 239 85<326 360> 449 97<248.5 303> 582 106<348 369.5> 586 105<191 212 142 227.5> 612 79<222 227.5 191 231.5>
VStem: 33 143<128.5 187 128.5 199.5> 142 70<586 595.5 586 624> 348 70<678.5 688> 360 137<196 239 239 239>
LayerCount: 2
Fore
SplineSet
227 612 m 0xb2a0
 217 612 212 605 212 586 c 1
 142 586 l 1
 142 662 167 691 215 691 c 0xb4a0
 240 691 256 688 288 675 c 0
 312 665 324 662 333 662 c 0
 343 662 348 669 348 688 c 1
 418 688 l 1
 418 612 394 582 345 582 c 0xb940
 321 582 305 586 272 599 c 0
 248 608 236 612 227 612 c 0xb2a0
372 0 m 1x7520
 362 78 l 1x7520
 336 21 l 1
 299 -4 254 -14 204 -14 c 0xb520
 112 -14 33 40 33 141 c 0
 33 258 133 324 326 324 c 2
 360 324 l 1
 360 335 l 2
 360 351 360 367 358 385 c 0
 354 422 330 449 276 449 c 0
 221 449 191 417 187 359 c 1
 53 358 l 1
 57 478 154 546 281 546 c 0
 430 546 486 481 494 389 c 0
 496 364 497 336 497 307 c 2
 497 135 l 2
 497 95 499 59 507 0 c 1
 372 0 l 1x7520
257 83 m 0xb520
 313 83 360 122 360 196 c 2
 360 239 l 1
 250 247 176 222 176 152 c 0
 176 105 208 83 257 83 c 0xb520
EndSplineSet
EndChar

StartChar: ae
Encoding: 230 230 125
Width: 935
GlyphClass: 2
Flags: MW
HStem: -14 97<236 256 615.5 676.5> 230 90<330 378 528 762> 449 97<253.5 315.5 617.5 682>
VStem: 33 143<129.5 186.5 129.5 204.5> 378 147<212 230 230 230> 762 142<320 320>
LayerCount: 2
Fore
SplineSet
904 277 m 0
 904 264 904 248 902 230 c 1
 525 230 l 1
 534 121 584 83 647 83 c 0
 706 83 748 116 758 173 c 1
 895 173 l 1
 869 49 769 -14 644 -14 c 0
 552 -14 476 21 432 102 c 1
 383 33 l 1
 339 -1 283 -14 229 -14 c 0
 115 -14 33 40 33 144 c 0
 33 265 143 320 330 320 c 2
 377 320 l 1
 377 336 l 2
 377 408 349 449 282 449 c 0
 225 449 190 417 187 358 c 1
 53 358 l 1
 55 478 151 546 281 546 c 0
 378 546 437 512 465 453 c 1
 507 514 575 546 660 546 c 0
 818 546 904 422 904 277 c 0
528 320 m 1
 762 320 l 1
 753 403 715 449 649 449 c 0
 585 449 540 406 528 320 c 1
378 212 m 2
 378 230 l 1
 245 236 176 219 176 154 c 0
 176 105 208 83 264 83 c 0
 330 83 378 131 378 212 c 2
EndSplineSet
EndChar

StartChar: ccedilla
Encoding: 231 231 130
Width: 561
GlyphClass: 2
Flags: MW
HStem: -210 57<226 255 226 274> -84 167<199 316> -11 21G<236 236> 449 97<255 318.5>
VStem: 27 143<205 331.5 205 353> 295 86<-130 -105.5>
AnchorPoint: "Anchor-0" 278 0 basechar 0
LayerCount: 2
Fore
SplineSet
289 83 m 0xdc
 343 83 383 117 397 184 c 1
 535 184 l 1
 513 61 426 -5 306 -13 c 1
 292 -41 l 1
 350 -48 381 -75 381 -121 c 0
 381 -184 316 -210 232 -210 c 0
 213 -210 195 -208 179 -203 c 1
 179 -144 l 1
 199 -151 218 -153 234 -153 c 0
 276 -153 295 -141 295 -119 c 0
 295 -92 271 -79 199 -84 c 1xdc
 236 -11 l 1xbc
 114 7 27 98 27 262 c 0
 27 444 147 546 293 546 c 0
 437 546 526 458 536 340 c 1
 400 340 l 1
 387 417 347 449 290 449 c 0
 220 449 170 392 170 271 c 0
 170 139 220 83 289 83 c 0xdc
EndSplineSet
EndChar

StartChar: ecircumflex
Encoding: 234 234 139
Width: 578
GlyphClass: 2
Flags: MW
HStem: -14 97<257 318.5 257 348.5> 230 90<170 404 170 544 166 404> 449 97<259 324> 575 118<237 258 173 346 324 324 324 346 237 410> 644 49<291 291>
VStem: 27 139<230 230 230 345.5>
AnchorPoint: "Anchor-0" 286 0 basechar 0
LayerCount: 2
Fore
SplineSet
258 575 m 1xd4
 173 575 l 1
 237 693 l 1
 346 693 l 1
 410 575 l 1
 324 575 l 1xd4
 291 644 l 1xcc
 258 575 l 1xd4
546 277 m 0
 546 264 546 248 544 230 c 1
 166 230 l 1
 175 118 225 83 289 83 c 0
 348 83 391 116 400 173 c 1
 538 173 l 1
 511 49 411 -14 286 -14 c 0
 140 -14 27 77 27 264 c 0
 27 427 134 546 297 546 c 0xf4
 460 546 546 422 546 277 c 0
291 449 m 0xf4
 227 449 182 408 170 320 c 1
 404 320 l 1
 395 404 357 449 291 449 c 0xf4
EndSplineSet
EndChar

StartChar: edieresis
Encoding: 235 235 140
Width: 578
GlyphClass: 2
Flags: MW
HStem: -14 97<257 318.5 257 348.5> 230 90<170 404 170 544 166 404> 449 97<259 324> 575 122<185 221 361 397>
VStem: 27 139<230 230 230 345.5> 141 124<618 654> 317 124<618 654>
AnchorPoint: "Anchor-0" 286 0 basechar 0
LayerCount: 2
Fore
SplineSet
203 575 m 0xf6
 167 575 141 600 141 636 c 0
 141 672 167 697 203 697 c 0
 239 697 265 672 265 636 c 0
 265 600 239 575 203 575 c 0xf6
379 575 m 0
 343 575 317 600 317 636 c 0
 317 672 343 697 379 697 c 0
 415 697 441 672 441 636 c 0
 441 600 415 575 379 575 c 0
546 277 m 0
 546 264 546 248 544 230 c 1
 166 230 l 1
 175 118 225 83 289 83 c 0
 348 83 391 116 400 173 c 1
 538 173 l 1
 511 49 411 -14 286 -14 c 0
 140 -14 27 77 27 264 c 0
 27 427 134 546 297 546 c 0xea
 460 546 546 422 546 277 c 0
291 449 m 0xea
 227 449 182 408 170 320 c 1
 404 320 l 1
 395 404 357 449 291 449 c 0xea
EndSplineSet
EndChar

StartChar: igrave
Encoding: 236 236 157
Width: 266
GlyphClass: 2
Flags: MW
HStem: 0 21G<63 201 63 63> 512 20G<63 201 201 201> 575 118<106 107 -17 184 106 106>
VStem: 63 138<0 532>
LayerCount: 2
Fore
SplineSet
184 575 m 1
 106 575 l 1
 -17 693 l 1
 107 693 l 1
 184 575 l 1
201 0 m 1
 63 0 l 1
 63 532 l 1
 201 532 l 1
 201 0 l 1
EndSplineSet
EndChar

StartChar: iacute
Encoding: 237 237 154
Width: 266
GlyphClass: 2
Flags: MW
HStem: 0 21G<63 201 63 63> 512 20G<63 201 201 201> 575 118<87 289 87 289>
VStem: 63 138<0 532>
LayerCount: 2
Fore
SplineSet
165 575 m 1
 87 575 l 1
 165 693 l 1
 289 693 l 1
 165 575 l 1
201 0 m 1
 63 0 l 1
 63 532 l 1
 201 532 l 1
 201 0 l 1
EndSplineSet
EndChar

StartChar: icircumflex
Encoding: 238 238 155
Width: 266
GlyphClass: 2
Flags: MW
HStem: 0 21G<63 201 63 63> 512 20G<63 201 201 201> 575 118<78 99 14 187 165 165 165 187 78 251> 644 49<132 132>
VStem: 63 138<0 532 0 532>
LayerCount: 2
Fore
SplineSet
99 575 m 1xe8
 14 575 l 1
 78 693 l 1
 187 693 l 1
 251 575 l 1
 165 575 l 1xe8
 132 644 l 1xd8
 99 575 l 1xe8
63 532 m 1
 201 532 l 1
 201 0 l 1
 63 0 l 1
 63 532 l 1
EndSplineSet
EndChar

StartChar: idieresis
Encoding: 239 239 156
Width: 266
GlyphClass: 2
Flags: MW
HStem: 0 21G<63 201 63 63> 512 20G<63 201 201 201> 575 122<26 62 202 238>
VStem: -18 124<618 654> 63 138<0 532> 158 124<618 654>
LayerCount: 2
Fore
SplineSet
44 697 m 0xe8
 80 697 106 672 106 636 c 0xe8
 106 600 80 575 44 575 c 0
 8 575 -18 600 -18 636 c 0xf0
 -18 672 8 697 44 697 c 0xe8
220 697 m 0
 256 697 282 672 282 636 c 0xe4
 282 600 256 575 220 575 c 0
 184 575 158 600 158 636 c 0
 158 672 184 697 220 697 c 0
201 0 m 1
 63 0 l 1
 63 532 l 1
 201 532 l 1
 201 0 l 1
EndSplineSet
EndChar

StartChar: eth
Encoding: 240 240 133
Width: 627
GlyphClass: 2
Flags: MW
HStem: -14 102<263.5 348 263.5 373.5> 444 102<265 300 212 342.5> 684 20G 725 20G<348 348>
VStem: 27 145<208.5 320.5 208.5 353.5> 439 144<260 289 289 340.5>
LayerCount: 2
Fore
SplineSet
544 641 m 1
 502 629 l 1
 558 555 583 452 583 307 c 0
 583 70 442 -14 305 -14 c 0
 118 -14 27 102 27 263 c 0
 27 444 143 546 281 546 c 0
 319 546 347 539 384 517 c 1
 428 460 l 1
 423 511 405 556 373 594 c 1
 240 558 l 1
 224 622 l 1
 313 646 l 1
 291 660 266 673 238 684 c 1
 348 745 l 1
 388 728 422 707 451 683 c 1
 528 704 l 1
 544 641 l 1
439 260 m 2
 439 289 l 2
 439 392 378 444 307 444 c 0
 223 444 172 374 172 267 c 0
 172 150 220 88 307 88 c 0
 389 88 439 151 439 260 c 2
EndSplineSet
EndChar

StartChar: ntilde
Encoding: 241 241 176
Width: 621
GlyphClass: 2
Flags: MW
HStem: 449 97<344.5 354.5>
VStem: 63 138<0 243 446 532> 425 138<0 281 281 292>
AnchorPoint: "Anchor-0" 310 0 basechar 0
LayerCount: 2
Fore
SplineSet
261 612 m 0
 251 612 246 605 246 586 c 1
 176 586 l 1
 176 662 201 691 249 691 c 0
 274 691 290 688 322 675 c 0
 346 665 358 662 367 662 c 0
 377 662 382 669 382 688 c 1
 452 688 l 1
 452 612 428 582 379 582 c 0
 355 582 339 586 306 599 c 0
 282 608 270 612 261 612 c 0
559 397 m 0
 562 370 563 343 563 300 c 2
 563 0 l 1
 425 0 l 1
 425 281 l 2
 425 303 425 328 423 355 c 0
 419 411 388 449 321 449 c 0
 254 449 201 391 201 243 c 2
 201 0 l 1
 63 0 l 1
 63 532 l 1
 201 532 l 1
 201 446 l 1
 242 509 l 1
 280 536 319 546 370 546 c 0
 483 546 548 490 559 397 c 0
EndSplineSet
EndChar

StartChar: oacute
Encoding: 243 243 178
Width: 606
GlyphClass: 2
Flags: MW
HStem: -14 97<261.5 344.5 261.5 391.5> 449 97<261.5 344.5> 575 118<258 460 258 460>
VStem: 27 143<209 323.5 209 347> 436 143<209 323.5>
LayerCount: 2
Fore
SplineSet
336 575 m 1
 258 575 l 1
 336 693 l 1
 460 693 l 1
 336 575 l 1
303 546 m 0xd8
 480 546 579 428 579 266 c 0
 579 105 480 -14 303 -14 c 0
 126 -14 27 105 27 266 c 0
 27 428 126 546 303 546 c 0xd8
303 83 m 0
 386 83 436 152 436 266 c 0
 436 381 386 449 303 449 c 0
 220 449 170 381 170 266 c 0
 170 152 220 83 303 83 c 0
EndSplineSet
EndChar

StartChar: ocircumflex
Encoding: 244 244 179
Width: 606
GlyphClass: 2
Flags: MW
HStem: -14 97<261.5 344.5 261.5 391.5> 449 97<261.5 344.5> 575 118<249 270 185 358 336 336 336 358 249 422> 644 49<303 303>
VStem: 27 143<209 323.5 209 347> 436 143<209 323.5>
LayerCount: 2
Fore
SplineSet
270 575 m 1xec
 185 575 l 1
 249 693 l 1
 358 693 l 1
 422 575 l 1
 336 575 l 1xec
 303 644 l 1xdc
 270 575 l 1xec
303 546 m 0xdc
 480 546 579 428 579 266 c 0
 579 105 480 -14 303 -14 c 0
 126 -14 27 105 27 266 c 0
 27 428 126 546 303 546 c 0xdc
303 83 m 0
 386 83 436 152 436 266 c 0
 436 381 386 449 303 449 c 0
 220 449 170 381 170 266 c 0
 170 152 220 83 303 83 c 0
EndSplineSet
EndChar

StartChar: otilde
Encoding: 245 245 185
Width: 606
GlyphClass: 2
Flags: MW
HStem: -14 97<261.5 344.5 261.5 391.5> 449 97<261.5 344.5> 582 106<371 392.5> 586 105<214 235 165 250.5> 612 79<245 250.5 214 254.5>
VStem: 27 143<209 323.5 209 347> 165 70<586 595.5 586 624> 371 70<678.5 688> 436 143<209 323.5>
LayerCount: 2
Fore
SplineSet
250 612 m 0xca80
 240 612 235 605 235 586 c 1
 165 586 l 1
 165 662 190 691 238 691 c 0xd280
 263 691 279 688 311 675 c 0
 335 665 347 662 356 662 c 0
 366 662 371 669 371 688 c 1
 441 688 l 1
 441 612 417 582 368 582 c 0xe5
 344 582 328 586 295 599 c 0
 271 608 259 612 250 612 c 0xca80
303 546 m 0xd480
 480 546 579 428 579 266 c 0
 579 105 480 -14 303 -14 c 0
 126 -14 27 105 27 266 c 0
 27 428 126 546 303 546 c 0xd480
303 83 m 0
 386 83 436 152 436 266 c 0
 436 381 386 449 303 449 c 0
 220 449 170 381 170 266 c 0
 170 152 220 83 303 83 c 0
EndSplineSet
EndChar

StartChar: odieresis
Encoding: 246 246 180
Width: 606
GlyphClass: 2
Flags: MW
HStem: -14 97<261.5 344.5 261.5 391.5> 449 97<261.5 344.5> 575 122<197 233 373 409>
VStem: 27 143<209 323.5 209 347> 153 124<618 654> 329 124<618 654> 436 143<209 323.5>
LayerCount: 2
Fore
SplineSet
215 575 m 0xec
 179 575 153 600 153 636 c 0
 153 672 179 697 215 697 c 0
 251 697 277 672 277 636 c 0
 277 600 251 575 215 575 c 0xec
391 575 m 0
 355 575 329 600 329 636 c 0
 329 672 355 697 391 697 c 0
 427 697 453 672 453 636 c 0
 453 600 427 575 391 575 c 0
303 546 m 0xd2
 480 546 579 428 579 266 c 0
 579 105 480 -14 303 -14 c 0
 126 -14 27 105 27 266 c 0
 27 428 126 546 303 546 c 0xd2
303 83 m 0
 386 83 436 152 436 266 c 0
 436 381 386 449 303 449 c 0
 220 449 170 381 170 266 c 0
 170 152 220 83 303 83 c 0
EndSplineSet
EndChar

StartChar: divide
Encoding: 247 247 289
Width: 625
Flags: MW
HStem: 72 139<293.5 333> 279 78<83 542 83 542> 423 139<293.5 333>
VStem: 244 139<122 161.5 472.5 512>
LayerCount: 2
Fore
SplineSet
313 562 m 0
 353 562 383 532 383 492 c 0
 383 453 353 423 313 423 c 0
 274 423 244 453 244 492 c 0
 244 532 274 562 313 562 c 0
542 279 m 1
 83 279 l 1
 83 357 l 1
 542 357 l 1
 542 279 l 1
313 211 m 0
 353 211 383 181 383 142 c 0
 383 102 353 72 313 72 c 0
 274 72 244 102 244 142 c 0
 244 181 274 211 313 211 c 0
EndSplineSet
EndChar

StartChar: oslash
Encoding: 248 248 184
Width: 630
GlyphClass: 2
Flags: MW
HStem: -14 97<291.5 351 291.5 397.5> 449 97<267.5 328>
VStem: 33 143<252.5 323.5 252.5 347> 442 143<209 277.5>
LayerCount: 2
Fore
SplineSet
607 501 m 1
 540 434 l 1
 569 388 585 330 585 266 c 0
 585 105 486 -14 309 -14 c 0
 241 -14 184 4 140 34 c 1
 80 -26 l 1
 23 31 l 1
 84 92 l 1
 50 139 33 199 33 266 c 0
 33 428 132 546 309 546 c 0
 381 546 440 527 485 493 c 1
 550 558 l 1
 607 501 l 1
176 266 m 0
 176 239 179 214 184 192 c 1
 401 409 l 1
 378 435 347 449 309 449 c 0
 226 449 176 381 176 266 c 0
442 266 m 0
 442 289 440 311 436 330 c 1
 223 117 l 1
 245 95 274 83 309 83 c 0
 393 83 442 152 442 266 c 0
EndSplineSet
EndChar

StartChar: uacute
Encoding: 250 250 206
Width: 618
GlyphClass: 2
Flags: MW
HStem: -14 98<267 272.5> 0 84<267 554 267 416> 512 20G<54 192 192 192 416 554 554 554> 575 118<259 461 259 461>
VStem: 54 138<238.5 247 247 532> 416 138<0 90 90 90 261 532 0 532>
LayerCount: 2
Fore
SplineSet
337 575 m 1xbc
 259 575 l 1
 337 693 l 1
 461 693 l 1
 337 575 l 1xbc
554 532 m 1
 554 0 l 1
 416 0 l 1
 416 90 l 1x7c
 375 22 l 1
 336 -4 298 -14 247 -14 c 0
 137 -14 71 48 59 121 c 0
 55 148 54 175 54 218 c 2
 54 532 l 1
 192 532 l 1
 192 247 l 2
 192 230 193 201 196 174 c 0
 203 119 235 84 299 84 c 0
 368 84 416 141 416 261 c 2
 416 532 l 1
 554 532 l 1
EndSplineSet
EndChar

StartChar: ucircumflex
Encoding: 251 251 207
Width: 618
GlyphClass: 2
Flags: MW
HStem: -14 98<267 272.5> 0 84<267 554 267 416> 512 20G<54 192 192 192 416 554 554 554> 575 118<250 271 186 359 337 337 337 359 250 423> 644 49<304 304>
VStem: 54 138<238.5 247 247 532> 416 138<0 90 90 90 261 532 0 532>
LayerCount: 2
Fore
SplineSet
271 575 m 1xb6
 186 575 l 1
 250 693 l 1
 359 693 l 1
 423 575 l 1
 337 575 l 1xb6
 304 644 l 1xae
 271 575 l 1xb6
554 532 m 1
 554 0 l 1
 416 0 l 1
 416 90 l 1x76
 375 22 l 1
 336 -4 298 -14 247 -14 c 0
 137 -14 71 48 59 121 c 0
 55 148 54 175 54 218 c 2
 54 532 l 1
 192 532 l 1
 192 247 l 2
 192 230 193 201 196 174 c 0
 203 119 235 84 299 84 c 0
 368 84 416 141 416 261 c 2
 416 532 l 1
 554 532 l 1
EndSplineSet
EndChar

StartChar: udieresis
Encoding: 252 252 208
Width: 618
GlyphClass: 2
Flags: MW
HStem: -14 98<267 272.5> 0 84<267 554 267 416> 512 20G<54 192 192 192 416 554 554 554> 575 122<198 234 374 410>
VStem: 54 138<238.5 247 247 532> 154 124<618 654> 330 124<618 654> 416 138<0 90 90 90 261 532 0 532>
LayerCount: 2
Fore
SplineSet
216 575 m 0xb6
 180 575 154 600 154 636 c 0
 154 672 180 697 216 697 c 0
 252 697 278 672 278 636 c 0
 278 600 252 575 216 575 c 0xb6
392 575 m 0
 356 575 330 600 330 636 c 0
 330 672 356 697 392 697 c 0
 428 697 454 672 454 636 c 0
 454 600 428 575 392 575 c 0
554 532 m 1xb9
 554 0 l 1
 416 0 l 1
 416 90 l 1x79
 375 22 l 1
 336 -4 298 -14 247 -14 c 0
 137 -14 71 48 59 121 c 0
 55 148 54 175 54 218 c 2
 54 532 l 1
 192 532 l 1
 192 247 l 2
 192 230 193 201 196 174 c 0
 203 119 235 84 299 84 c 0
 368 84 416 141 416 261 c 2
 416 532 l 1
 554 532 l 1xb9
EndSplineSet
EndChar

StartChar: yacute
Encoding: 253 253 222
Width: 565
GlyphClass: 2
Flags: MW
HStem: -210 97<118.5 133.5 103 185> 512 20G<0 154 154 154 416 567 567 567> 575 118<235 437 235 437>
VStem: 0 567<532 532>
LayerCount: 2
Fore
SplineSet
313 575 m 1
 235 575 l 1
 313 693 l 1
 437 693 l 1
 313 575 l 1
567 532 m 1
 353 -20 l 2
 297 -164 239 -210 131 -210 c 0
 106 -210 89 -209 69 -206 c 1
 69 -111 l 1
 83 -113 96 -113 110 -113 c 0
 157 -113 188 -95 210 -42 c 2
 217 -25 l 1
 0 532 l 1
 154 532 l 1
 286 105 l 1
 416 532 l 1
 567 532 l 1
EndSplineSet
EndChar

StartChar: ydieresis
Encoding: 255 255 224
Width: 565
GlyphClass: 2
Flags: MW
HStem: -210 97<118.5 133.5 103 185> 512 20G<0 154 154 154 416 567 567 567> 575 122<174 210 350 386>
VStem: 130 124<618 654> 306 124<618 654>
LayerCount: 2
Fore
SplineSet
192 575 m 0
 156 575 130 600 130 636 c 0
 130 672 156 697 192 697 c 0
 228 697 254 672 254 636 c 0
 254 600 228 575 192 575 c 0
368 575 m 0
 332 575 306 600 306 636 c 0
 306 672 332 697 368 697 c 0
 404 697 430 672 430 636 c 0
 430 600 404 575 368 575 c 0
567 532 m 1
 353 -20 l 2
 297 -164 239 -210 131 -210 c 0
 106 -210 89 -209 69 -206 c 1
 69 -111 l 1
 83 -113 96 -113 110 -113 c 0
 157 -113 188 -95 210 -42 c 2
 217 -25 l 1
 0 532 l 1
 154 532 l 1
 286 105 l 1
 416 532 l 1
 567 532 l 1
EndSplineSet
EndChar

StartChar: Amacron
Encoding: 256 256 7
Width: 676
GlyphClass: 2
Flags: MW
HStem: 0 21G<15 162 15 15 531 531 531 681> 208 109<266 428 266 463 231 428> 572 118<348 348> 670 20G<264 437 437 437> 759 76<214 487 214 487>
VStem: 214 273<759 835 759 835>
LayerCount: 2
Fore
SplineSet
487 759 m 1xdc
 214 759 l 1
 214 835 l 1
 487 835 l 1
 487 759 l 1xdc
463 208 m 1
 231 208 l 1
 162 0 l 1
 15 0 l 1
 264 690 l 1
 437 690 l 1
 681 0 l 1
 531 0 l 1
 463 208 l 1
348 572 m 1xec
 266 317 l 1
 428 317 l 1
 348 572 l 1xec
EndSplineSet
Position2: "'cpsp' Capital Spacing in Latin lookup 0 subtable" dx=5 dy=0 dh=10 dv=0
EndChar

StartChar: amacron
Encoding: 257 257 121
Width: 562
GlyphClass: 2
Flags: MW
HStem: -14 97<158 285> 0 83 239 85<326 360> 449 97<248.5 303> 594 76<144 417 144 417>
VStem: 33 143<128.5 187 128.5 199.5> 144 273<594 670 594 670> 360 137<196 239 239 239>
LayerCount: 2
Fore
SplineSet
417 594 m 1x7a
 144 594 l 1
 144 670 l 1
 417 670 l 1
 417 594 l 1x7a
372 0 m 1
 362 78 l 1x7d
 336 21 l 1
 299 -4 254 -14 204 -14 c 0xbd
 112 -14 33 40 33 141 c 0
 33 258 133 324 326 324 c 2
 360 324 l 1
 360 335 l 2
 360 351 360 367 358 385 c 0
 354 422 330 449 276 449 c 0
 221 449 191 417 187 359 c 1
 53 358 l 1
 57 478 154 546 281 546 c 0
 430 546 486 481 494 389 c 0
 496 364 497 336 497 307 c 2
 497 135 l 2
 497 95 499 59 507 0 c 1x7d
 372 0 l 1
257 83 m 0xbd
 313 83 360 122 360 196 c 2
 360 239 l 1
 250 247 176 222 176 152 c 0
 176 105 208 83 257 83 c 0xbd
EndSplineSet
EndChar

StartChar: Abreve
Encoding: 258 258 3
Width: 676
GlyphClass: 2
Flags: MW
HStem: 0 21G<15 162 15 15 531 531 531 681> 208 109<266 428 266 463 231 428> 572 118<348 348> 670 20G<264 437 437 437> 725 122<230 385.5>
VStem: 230 73<804 847> 397 73<804 847>
LayerCount: 2
Fore
SplineSet
350 725 m 0xde
 278 725 230 761 230 847 c 1
 303 847 l 1
 305 813 321 797 350 797 c 0
 379 797 395 813 397 847 c 1
 470 847 l 1
 470 761 421 725 350 725 c 0xde
463 208 m 1
 231 208 l 1
 162 0 l 1
 15 0 l 1
 264 690 l 1
 437 690 l 1
 681 0 l 1
 531 0 l 1
 463 208 l 1
348 572 m 1xee
 266 317 l 1
 428 317 l 1
 348 572 l 1xee
EndSplineSet
Position2: "'cpsp' Capital Spacing in Latin lookup 0 subtable" dx=5 dy=0 dh=10 dv=0
EndChar

StartChar: abreve
Encoding: 259 259 117
Width: 562
GlyphClass: 2
Flags: MW
HStem: -14 97<158 285> 0 83 239 85<326 360> 449 97<248.5 303> 567 72<265.5 294.5 265.5 315.5> 567 126<160 315.5>
VStem: 33 143<128.5 187 128.5 199.5> 160 73<647.5 693> 327 73<647.5 693> 360 137<196 239 239 239>
LayerCount: 2
Fore
SplineSet
280 567 m 0xb580
 208 567 160 602 160 693 c 1
 233 693 l 1xb540
 235 655 251 639 280 639 c 0xba80
 309 639 325 655 327 693 c 1
 400 693 l 1
 400 602 351 567 280 567 c 0xb580
372 0 m 1x7280
 362 78 l 1x7240
 336 21 l 1
 299 -4 254 -14 204 -14 c 0xb240
 112 -14 33 40 33 141 c 0
 33 258 133 324 326 324 c 2
 360 324 l 1
 360 335 l 2
 360 351 360 367 358 385 c 0
 354 422 330 449 276 449 c 0
 221 449 191 417 187 359 c 1
 53 358 l 1
 57 478 154 546 281 546 c 0
 430 546 486 481 494 389 c 0
 496 364 497 336 497 307 c 2
 497 135 l 2
 497 95 499 59 507 0 c 1x7240
 372 0 l 1x7280
257 83 m 0xb240
 313 83 360 122 360 196 c 2
 360 239 l 1
 250 247 176 222 176 152 c 0
 176 105 208 83 257 83 c 0xb240
EndSplineSet
EndChar

StartChar: Aogonek
Encoding: 260 260 8
Width: 676
GlyphClass: 2
Flags: MW
HStem: -223 80<505.5 609.5> 0 21G<15 162 15 15 626 626 626 681> 208 109<266 428 266 463 231 428> 572 118<348 348> 670 20G<264 437 437 437>
VStem: 432 127<-111 -104>
LayerCount: 2
Fore
SplineSet
559 -92 m 0xec
 559 -130 577 -143 601 -143 c 0
 618 -143 634 -137 651 -122 c 1
 651 -184 l 1
 624 -208 586 -223 536 -223 c 0
 475 -223 432 -201 432 -137 c 0
 432 -71 478 -17 529 7 c 1
 463 208 l 1
 231 208 l 1
 162 0 l 1
 15 0 l 1
 264 690 l 1
 437 690 l 1
 681 0 l 1
 626 0 l 1
 589 -4 559 -43 559 -92 c 0xec
348 572 m 1xf4
 266 317 l 1
 428 317 l 1
 348 572 l 1xf4
EndSplineSet
Position2: "'cpsp' Capital Spacing in Latin lookup 0 subtable" dx=5 dy=0 dh=10 dv=0
EndChar

StartChar: aogonek
Encoding: 261 261 122
Width: 562
GlyphClass: 2
Flags: MW
HStem: -223 80<347.5 451.5> -14 21G<158 229> -14 97<158 285> 0 21G 239 85<326 360> 449 97<248.5 303>
VStem: 33 143<128.5 187 128.5 199.5> 274 127<-111 -103.5> 360 137<196 239 239 239>
LayerCount: 2
Fore
SplineSet
401 -92 m 0x9f
 401 -130 419 -143 443 -143 c 0
 460 -143 476 -137 493 -122 c 1
 493 -184 l 1
 466 -208 428 -223 378 -223 c 0
 317 -223 274 -201 274 -137 c 0
 274 -70 320 -17 371 8 c 1
 362 78 l 1xcf
 336 21 l 1
 299 -4 254 -14 204 -14 c 0xaf
 112 -14 33 40 33 141 c 0
 33 258 133 324 326 324 c 2
 360 324 l 1
 360 335 l 2
 360 351 360 367 358 385 c 0
 354 422 330 449 276 449 c 0
 221 449 191 417 187 359 c 1
 53 358 l 1
 57 478 154 546 281 546 c 0
 430 546 486 481 494 389 c 0
 496 364 497 336 497 307 c 2
 497 135 l 2
 497 95 499 59 507 0 c 1x9e80
 468 0 l 1
 431 -4 401 -43 401 -92 c 0x9f
257 83 m 0xae80
 313 83 360 122 360 196 c 2
 360 239 l 1
 250 247 176 222 176 152 c 0
 176 105 208 83 257 83 c 0xae80
EndSplineSet
EndChar

StartChar: Cacute
Encoding: 262 262 14
Width: 718
GlyphClass: 2
Flags: MW
HStem: -14 103<328.5 426 328.5 463.5> 601 103<327.5 429> 735 112<406 409 331 530>
VStem: 51 146<263 427.5 263 454>
AnchorPoint: "Anchor-0" 364 0 basechar 0
LayerCount: 2
Fore
SplineSet
409 735 m 1
 331 735 l 1
 406 847 l 1
 530 847 l 1
 409 735 l 1
385 704 m 0
 572 704 669 602 683 466 c 2
 684 456 l 1
 546 456 l 1
 544 466 l 2
 527 551 475 601 383 601 c 0
 272 601 197 506 197 349 c 0
 197 177 276 89 381 89 c 0
 471 89 523 143 541 229 c 2
 543 239 l 1
 680 239 l 1
 679 229 l 2
 664 82 552 -14 375 -14 c 0
 183 -14 51 121 51 341 c 0
 51 567 194 704 385 704 c 0
EndSplineSet
Position2: "'cpsp' Capital Spacing in Latin lookup 0 subtable" dx=5 dy=0 dh=10 dv=0
EndChar

StartChar: cdotaccent
Encoding: 267 267 131
Width: 561
GlyphClass: 2
Flags: MW
HStem: -14 97<254.5 316 254.5 347.5> 449 97<255 318.5> 584 146<259.5 304.5>
VStem: 27 143<205 331.5 205 353> 206 152<635 678.5>
AnchorPoint: "Anchor-0" 278 0 basechar 0
LayerCount: 2
Fore
SplineSet
282 730 m 0
 327 730 358 700 358 657 c 0
 358 613 327 584 282 584 c 0
 237 584 206 613 206 657 c 0
 206 700 237 730 282 730 c 0
293 546 m 0
 437 546 526 458 536 340 c 1
 400 340 l 1
 387 417 347 449 290 449 c 0
 220 449 170 392 170 271 c 0
 170 139 220 83 289 83 c 0
 343 83 383 117 397 184 c 1
 535 184 l 1
 512 53 414 -14 281 -14 c 0
 136 -14 27 78 27 262 c 0
 27 444 147 546 293 546 c 0
EndSplineSet
EndChar

StartChar: ccaron
Encoding: 269 269 129
Width: 561
GlyphClass: 2
Flags: MW
HStem: -14 97<254.5 316 254.5 347.5> 449 97<255 318.5> 575 118<228 228 228 250 316 337>
VStem: 27 143<205 331.5 205 353>
AnchorPoint: "Anchor-0" 278 0 basechar 0
LayerCount: 2
Fore
SplineSet
228 575 m 1
 164 693 l 1
 250 693 l 1
 283 624 l 1
 316 693 l 1
 401 693 l 1
 337 575 l 1
 228 575 l 1
289 83 m 0
 343 83 383 117 397 184 c 1
 535 184 l 1
 512 53 414 -14 281 -14 c 0
 136 -14 27 78 27 262 c 0
 27 444 147 546 293 546 c 0
 437 546 526 458 536 340 c 1
 400 340 l 1
 387 417 347 449 290 449 c 0xf0
 220 449 170 392 170 271 c 0
 170 139 220 83 289 83 c 0
EndSplineSet
EndChar

StartChar: Dcaron
Encoding: 270 270 20
Width: 731
GlyphClass: 2
Flags: MW
HStem: 0 109<227 309 309 324 227 325> 582 108<227 311 227 227> 735 112<324 324 324 347 411 433>
VStem: 89 138<109 582 109 690 109 690> 553 146<281.5 420>
LayerCount: 2
Fore
SplineSet
324 735 m 1
 260 847 l 1
 347 847 l 1
 380 780 l 1
 411 847 l 1
 497 847 l 1
 433 735 l 1
 324 735 l 1
415 686 m 0
 575 667 699 565 699 354 c 0
 699 143 573 23 413 4 c 0
 378 0 362 0 325 0 c 2
 89 0 l 1
 89 690 l 1
 327 690 l 2
 364 690 380 690 415 686 c 0
382 112 m 0
 485 125 553 211 553 352 c 0
 553 488 487 565 385 578 c 0
 362 581 342 582 311 582 c 2
 227 582 l 1
 227 109 l 1
 309 109 l 2
 339 109 360 109 382 112 c 0
EndSplineSet
Position2: "'cpsp' Capital Spacing in Latin lookup 0 subtable" dx=5 dy=0 dh=10 dv=0
EndChar

StartChar: dcaron
Encoding: 271 271 134
Width: 645
GlyphClass: 2
Flags: MW
HStem: -14 97<263 291> 0 83 449 97<269 304 213.5 341> 571 164<674 685 442 604>
VStem: 27 143<210.5 326.5 210.5 352.5> 442 138<0 82 82 82 260 286 286 346 461 735 0 735>
LayerCount: 2
Fore
SplineSet
442 735 m 1x9c
 580 735 l 1
 580 0 l 1
 442 0 l 1
 442 82 l 1x5c
 402 23 l 1
 372 0 318 -14 264 -14 c 0
 115 -14 27 99 27 256 c 0
 27 449 145 546 282 546 c 0
 326 546 380 535 407 516 c 1
 442 461 l 1xbc
 442 735 l 1x9c
768 735 m 1
 768 724 l 1
 685 571 l 1
 604 571 l 1
 674 735 l 1
 768 735 l 1
304 83 m 0xbc
 380 83 442 130 442 260 c 2
 442 286 l 2
 442 406 373 449 309 449 c 0
 229 449 170 388 170 265 c 0
 170 156 222 83 304 83 c 0xbc
EndSplineSet
EndChar

StartChar: Dcroat
Encoding: 272 272 21
Width: 733
GlyphClass: 2
Flags: MW
HStem: 0 109<229 311 311 326 229 327> 298 78<32 91 32 91 229 346> 582 108<229 313 229 229>
VStem: 91 138<109 298 109 298 109 298 376 582> 555 145<281.5 420>
LayerCount: 2
Fore
SplineSet
417 686 m 0
 577 667 700 565 700 354 c 0
 700 143 575 23 415 4 c 0
 380 0 364 0 327 0 c 2
 91 0 l 1
 91 298 l 1
 32 298 l 1
 32 376 l 1
 91 376 l 1
 91 690 l 1
 329 690 l 2
 366 690 382 690 417 686 c 0
384 112 m 0
 486 125 555 211 555 352 c 0
 555 488 489 565 387 578 c 0
 364 581 343 582 313 582 c 2
 229 582 l 1
 229 376 l 1
 346 376 l 1
 346 298 l 1
 229 298 l 1
 229 109 l 1
 311 109 l 2
 341 109 362 109 384 112 c 0
EndSplineSet
Position2: "'cpsp' Capital Spacing in Latin lookup 0 subtable" dx=5 dy=0 dh=10 dv=0
EndChar

StartChar: dcroat
Encoding: 273 273 135
Width: 647
GlyphClass: 2
Flags: MW
HStem: -14 97<263 291> 0 83 449 97<269 304 213.5 341> 584 78<324 442 324 442 580 622> 584 151<324 580 324 580 442 622 442 580>
VStem: 27 143<210.5 326.5 210.5 352.5> 442 138<0 82 82 82 260 286 286 346 461 584 0 584 662 735>
LayerCount: 2
Fore
SplineSet
622 584 m 1xae
 580 584 l 1
 580 0 l 1
 442 0 l 1
 442 82 l 1x6e
 402 23 l 1
 372 0 318 -14 264 -14 c 0
 115 -14 27 99 27 256 c 0
 27 449 145 546 282 546 c 0
 326 546 380 535 407 516 c 1
 442 461 l 1
 442 584 l 1
 324 584 l 1xae
 324 662 l 1
 442 662 l 1xb6
 442 735 l 1
 580 735 l 1xae
 580 662 l 1
 622 662 l 1xb6
 622 584 l 1xae
304 83 m 0xae
 380 83 442 130 442 260 c 2
 442 286 l 2
 442 406 373 449 309 449 c 0
 229 449 170 388 170 265 c 0
 170 156 222 83 304 83 c 0xae
EndSplineSet
EndChar

StartChar: Emacron
Encoding: 274 274 29
Width: 616
GlyphClass: 2
Flags: MW
HStem: 0 109<227 587 227 587> 291 109<227 552 227 552> 582 108<227 577 227 227> 759 76<202 475 202 475>
VStem: 89 138<109 291 400 582> 202 273<759 835 759 835>
AnchorPoint: "Anchor-0" 318 0 basechar 0
LayerCount: 2
Fore
SplineSet
475 759 m 1xf4
 202 759 l 1
 202 835 l 1
 475 835 l 1
 475 759 l 1xf4
587 109 m 1
 587 0 l 1
 89 0 l 1
 89 690 l 1
 577 690 l 1
 577 582 l 1
 227 582 l 1
 227 400 l 1
 552 400 l 1
 552 291 l 1
 227 291 l 1
 227 109 l 1xf8
 587 109 l 1
EndSplineSet
Position2: "'cpsp' Capital Spacing in Latin lookup 0 subtable" dx=5 dy=0 dh=10 dv=0
EndChar

StartChar: Edotaccent
Encoding: 278 278 27
Width: 616
GlyphClass: 2
Flags: MW
HStem: 0 109<227 587 227 587> 291 109<227 552 227 552> 582 108<227 577 227 227> 730 139<317 359>
VStem: 89 138<109 291 400 582> 266 144<779.5 820>
AnchorPoint: "Anchor-0" 318 0 basechar 0
LayerCount: 2
Fore
SplineSet
338 730 m 0
 296 730 266 759 266 800 c 0
 266 840 296 869 338 869 c 0
 380 869 410 840 410 800 c 0
 410 759 380 730 338 730 c 0
587 109 m 1
 587 0 l 1
 89 0 l 1
 89 690 l 1
 577 690 l 1
 577 582 l 1
 227 582 l 1
 227 400 l 1
 552 400 l 1
 552 291 l 1
 227 291 l 1
 227 109 l 1
 587 109 l 1
EndSplineSet
Position2: "'cpsp' Capital Spacing in Latin lookup 0 subtable" dx=5 dy=0 dh=10 dv=0
EndChar

StartChar: edotaccent
Encoding: 279 279 141
Width: 578
GlyphClass: 2
Flags: MW
HStem: -14 97<257 318.5 257 348.5> 230 90<170 404 170 544 166 404> 449 97<259 324> 584 146<268.5 313.5>
VStem: 27 139<230 230 230 345.5> 215 152<635 678.5>
AnchorPoint: "Anchor-0" 286 0 basechar 0
LayerCount: 2
Fore
SplineSet
291 584 m 0
 246 584 215 613 215 657 c 0
 215 700 246 730 291 730 c 0
 336 730 367 700 367 657 c 0
 367 613 336 584 291 584 c 0
546 277 m 0
 546 264 546 248 544 230 c 1
 166 230 l 1
 175 118 225 83 289 83 c 0
 348 83 391 116 400 173 c 1
 538 173 l 1
 511 49 411 -14 286 -14 c 0
 140 -14 27 77 27 264 c 0
 27 427 134 546 297 546 c 0
 460 546 546 422 546 277 c 0
291 449 m 0
 227 449 182 408 170 320 c 1
 404 320 l 1
 395 404 357 449 291 449 c 0
EndSplineSet
EndChar

StartChar: Eogonek
Encoding: 280 280 30
Width: 616
GlyphClass: 2
Flags: MW
HStem: -223 80<438.5 542.5> 0 109<227 448 559 587 559 559> 291 109<227 552 227 552> 582 108<227 577 227 227>
VStem: 89 138<109 291 400 582> 365 127<-111 -107>
AnchorPoint: "Anchor-0" 318 0 basechar 0
LayerCount: 2
Fore
SplineSet
587 0 m 1
 559 0 l 1
 522 -4 492 -43 492 -92 c 0
 492 -130 510 -143 534 -143 c 0
 551 -143 567 -137 584 -122 c 1
 584 -184 l 1
 557 -208 519 -223 469 -223 c 0
 408 -223 365 -201 365 -137 c 0
 365 -77 403 -27 448 0 c 1
 89 0 l 1
 89 690 l 1
 577 690 l 1
 577 582 l 1
 227 582 l 1
 227 400 l 1
 552 400 l 1
 552 291 l 1
 227 291 l 1
 227 109 l 1
 587 109 l 1
 587 0 l 1
EndSplineSet
Position2: "'cpsp' Capital Spacing in Latin lookup 0 subtable" dx=5 dy=0 dh=10 dv=0
EndChar

StartChar: eogonek
Encoding: 281 281 144
Width: 578
GlyphClass: 2
Flags: MW
HStem: -223 80<261.5 365.5> -12 21G 230 90<170 404 170 544 166 404> 449 97<259 324>
VStem: 27 139<230 230 230 345.5> 188 127<-169 -71.5> 404 142<320 320>
AnchorPoint: "Anchor-0" 286 0 basechar 0
LayerCount: 2
Fore
SplineSet
546 277 m 0
 546 264 546 248 544 230 c 1
 166 230 l 1xfa
 175 118 225 83 289 83 c 0
 348 83 391 116 400 173 c 1
 538 173 l 1
 518 83 460 25 381 0 c 0
 376 -2 370 -4 364 -5 c 1
 336 -18 315 -51 315 -92 c 0
 315 -130 333 -143 357 -143 c 0
 374 -143 390 -137 407 -122 c 1
 407 -184 l 1
 380 -208 342 -223 292 -223 c 0
 231 -223 188 -201 188 -137 c 0xfe
 188 -85 216 -41 253 -12 c 1
 123 1 27 91 27 264 c 0
 27 427 134 546 297 546 c 0
 460 546 546 422 546 277 c 0
291 449 m 0
 227 449 182 408 170 320 c 1
 404 320 l 1
 395 404 357 449 291 449 c 0
EndSplineSet
EndChar

StartChar: Ecaron
Encoding: 282 282 24
Width: 616
GlyphClass: 2
Flags: MW
HStem: 0 109<227 587 227 587> 291 109<227 552 227 552> 582 108<227 577 227 227> 735 112<284 284 284 307 371 393>
VStem: 89 138<109 291 400 582>
AnchorPoint: "Anchor-0" 318 0 basechar 0
LayerCount: 2
Fore
SplineSet
284 735 m 1
 220 847 l 1
 307 847 l 1
 340 780 l 1
 371 847 l 1
 457 847 l 1
 393 735 l 1
 284 735 l 1
587 109 m 1
 587 0 l 1
 89 0 l 1
 89 690 l 1
 577 690 l 1
 577 582 l 1
 227 582 l 1
 227 400 l 1
 552 400 l 1
 552 291 l 1
 227 291 l 1
 227 109 l 1
 587 109 l 1
EndSplineSet
Position2: "'cpsp' Capital Spacing in Latin lookup 0 subtable" dx=5 dy=0 dh=10 dv=0
EndChar

StartChar: ecaron
Encoding: 283 283 138
Width: 578
GlyphClass: 2
Flags: MW
HStem: -14 97<257 318.5 257 348.5> 230 90<170 404 170 544 166 404> 449 97<259 324> 575 118<237 237 237 259 325 346>
VStem: 27 139<230 230 230 345.5>
AnchorPoint: "Anchor-0" 286 0 basechar 0
LayerCount: 2
Fore
SplineSet
237 575 m 1
 173 693 l 1
 259 693 l 1
 292 624 l 1
 325 693 l 1
 410 693 l 1
 346 575 l 1
 237 575 l 1
546 277 m 0
 546 264 546 248 544 230 c 1
 166 230 l 1
 175 118 225 83 289 83 c 0
 348 83 391 116 400 173 c 1
 538 173 l 1
 511 49 411 -14 286 -14 c 0
 140 -14 27 77 27 264 c 0
 27 427 134 546 297 546 c 0xf8
 460 546 546 422 546 277 c 0
291 449 m 0xf8
 227 449 182 408 170 320 c 1
 404 320 l 1
 395 404 357 449 291 449 c 0xf8
EndSplineSet
EndChar

StartChar: Gbreve
Encoding: 286 286 33
Width: 737
GlyphClass: 2
Flags: MW
HStem: -14 103<331 402> 0 21G<572 683 572 572> 244 108<405 551 405 683> 601 103<333 435> 725 122<257 412.5>
VStem: 51 146<263 427.5 263 454> 257 73<804 847> 424 73<804 847> 551 138 567.5 115.5
AnchorPoint: "Anchor-0" 381 0 basechar 0
LayerCount: 2
Fore
SplineSet
377 725 m 0xbf80
 305 725 257 761 257 847 c 1
 330 847 l 1
 332 813 348 797 377 797 c 0
 406 797 422 813 424 847 c 1
 497 847 l 1
 497 761 448 725 377 725 c 0xbf80
405 352 m 1
 683 352 l 1
 683 0 l 1
 572 0 l 1x7740
 563 112 l 1
 532 42 l 1xb740
 493 4 440 -14 364 -14 c 0
 172 -14 51 122 51 341 c 0
 51 567 198 704 391 704 c 0
 578 704 675 602 689 466 c 2
 690 456 l 1
 552 456 l 1
 550 466 l 2
 533 551 481 601 389 601 c 0xb780
 277 601 197 506 197 349 c 0
 197 177 277 89 385 89 c 0
 474 89 537 147 551 244 c 1
 405 244 l 1
 405 352 l 1
EndSplineSet
Position2: "'cpsp' Capital Spacing in Latin lookup 0 subtable" dx=5 dy=0 dh=10 dv=0
EndChar

StartChar: Gdotaccent
Encoding: 288 288 35
Width: 737
GlyphClass: 2
Flags: MW
HStem: -14 103<331 402> 0 21G<572 683 572 572> 244 108<405 551 405 683> 601 103<333 435> 730 139<356 398>
VStem: 51 146<263 427.5 263 454> 305 144<779.5 820> 551 138 567.5 115.5
AnchorPoint: "Anchor-0" 381 0 basechar 0
LayerCount: 2
Fore
SplineSet
377 730 m 0xbf
 335 730 305 759 305 800 c 0
 305 840 335 869 377 869 c 0
 419 869 449 840 449 800 c 0
 449 759 419 730 377 730 c 0xbf
405 352 m 1
 683 352 l 1
 683 0 l 1
 572 0 l 1x7480
 563 112 l 1
 532 42 l 1xb480
 493 4 440 -14 364 -14 c 0
 172 -14 51 122 51 341 c 0
 51 567 198 704 391 704 c 0
 578 704 675 602 689 466 c 2
 690 456 l 1
 552 456 l 1
 550 466 l 2
 533 551 481 601 389 601 c 0xb5
 277 601 197 506 197 349 c 0
 197 177 277 89 385 89 c 0
 474 89 537 147 551 244 c 1
 405 244 l 1
 405 352 l 1
EndSplineSet
Position2: "'cpsp' Capital Spacing in Latin lookup 0 subtable" dx=5 dy=0 dh=10 dv=0
EndChar

StartChar: gdotaccent
Encoding: 289 289 149
Width: 645
GlyphClass: 2
Flags: MW
HStem: -216 103<263.5 341.5 263.5 381> -3 97<263 297> 449 83 449 97<269 304 213.5 341> 584 146<295.5 340.5>
VStem: 27 143<217.5 333 217.5 356.5> 42 134<-34 -33> 242 152<635 678.5> 442 138<80 133 93 133 271 286 286 346 461 532>
LayerCount: 2
Fore
SplineSet
318 584 m 0xdd80
 273 584 242 613 242 657 c 0
 242 700 273 730 318 730 c 0
 363 730 394 700 394 657 c 0
 394 613 363 584 318 584 c 0xdd80
580 532 m 1xed80
 580 133 l 2
 580 100 580 59 579 30 c 0
 573 -136 465 -216 297 -216 c 0
 141 -216 54 -151 42 -34 c 2
 41 -24 l 1
 175 -24 l 1
 176 -33 l 2xdb80
 182 -82 228 -113 299 -113 c 0
 384 -113 436 -70 441 15 c 0
 442 35 442 57 442 80 c 2
 442 93 l 1
 402 34 l 1
 372 11 324 -3 270 -3 c 0
 120 -3 27 104 27 260 c 0
 27 453 145 546 282 546 c 0
 326 546 380 535 407 516 c 1
 442 461 l 1xdd80
 442 532 l 1
 580 532 l 1xed80
304 94 m 0
 380 94 442 141 442 271 c 2
 442 286 l 2
 442 406 373 449 309 449 c 0
 229 449 170 394 170 272 c 0xdd80
 170 163 222 94 304 94 c 0
EndSplineSet
EndChar

StartChar: Hbar
Encoding: 294 294 37
Width: 752
GlyphClass: 2
Flags: MW
HStem: 0 21G<89 227 89 89 550 687 550 550> 283 110<227 550 227 550> 491 78<49 89 49 89 227 550 687 727> 491 199<49 227 49 227 89 227 89 550>
VStem: 89 138<0 283 0 393 393 491 569 690> 550 137<0 283 283 283 393 491 0 491 569 690>
LayerCount: 2
Fore
SplineSet
727 491 m 1xdc
 687 491 l 1
 687 0 l 1
 550 0 l 1
 550 283 l 1
 227 283 l 1
 227 0 l 1
 89 0 l 1
 89 491 l 1
 49 491 l 1xdc
 49 569 l 1
 89 569 l 1xec
 89 690 l 1
 227 690 l 1xdc
 227 569 l 1
 550 569 l 1xec
 550 690 l 1
 687 690 l 1xdc
 687 569 l 1
 727 569 l 1xec
 727 491 l 1xdc
550 491 m 1
 227 491 l 1
 227 393 l 1
 550 393 l 1
 550 491 l 1
EndSplineSet
Position2: "'cpsp' Capital Spacing in Latin lookup 0 subtable" dx=5 dy=0 dh=10 dv=0
EndChar

StartChar: hbar
Encoding: 295 295 151
Width: 635
GlyphClass: 2
Flags: MW
HStem: 0 21G<77 215 77 77 439 577 439 439> 449 97<358.5 368.5> 584 78<23 77 23 77 215 321> 584 156<23 215 23 215 77 215 77 321>
VStem: 77 138<0 243 446 584 662 740> 439 138<0 281 281 292>
LayerCount: 2
Fore
SplineSet
573 397 m 0xdc
 576 370 577 343 577 300 c 2
 577 0 l 1
 439 0 l 1
 439 281 l 2
 439 303 439 328 437 355 c 0
 432 411 402 449 335 449 c 0
 267 448 215 391 215 243 c 2
 215 0 l 1
 77 0 l 1
 77 584 l 1
 23 584 l 1xdc
 23 662 l 1
 77 662 l 1xec
 77 740 l 1
 215 740 l 1xdc
 215 662 l 1
 321 662 l 1xec
 321 584 l 1
 215 584 l 1
 215 446 l 1
 256 509 l 1
 294 536 333 546 384 546 c 0
 497 546 562 490 573 397 c 0xdc
EndSplineSet
EndChar

StartChar: Imacron
Encoding: 298 298 45
Width: 292
GlyphClass: 2
Flags: MW
HStem: 0 21G<89 227 89 89> 670 20G<89 227 227 227> 759 76<22 295 22 295>
VStem: 89 138<0 690>
LayerCount: 2
Fore
SplineSet
295 759 m 1
 22 759 l 1
 22 835 l 1
 295 835 l 1
 295 759 l 1
227 0 m 1
 89 0 l 1
 89 690 l 1
 227 690 l 1
 227 0 l 1
EndSplineSet
Position2: "'cpsp' Capital Spacing in Latin lookup 0 subtable" dx=5 dy=0 dh=10 dv=0
EndChar

StartChar: imacron
Encoding: 299 299 159
Width: 266
GlyphClass: 2
Flags: MW
HStem: 0 21G<63 201 63 63> 512 20G<63 201 201 201> 594 76<-5 269 -5 269>
VStem: 63 138<0 532>
LayerCount: 2
Fore
SplineSet
269 594 m 1
 -5 594 l 1
 -5 670 l 1
 269 670 l 1
 269 594 l 1
201 0 m 1
 63 0 l 1
 63 532 l 1
 201 532 l 1
 201 0 l 1
EndSplineSet
EndChar

StartChar: Iogonek
Encoding: 302 302 46
Width: 292
GlyphClass: 2
Flags: MW
HStem: -223 80<64.5 168.5> 0 21G<185 227 185 185> 670 20G<89 227 227 227>
VStem: 89 138<8 690>
LayerCount: 2
Fore
SplineSet
227 0 m 1
 185 0 l 1
 148 -4 118 -43 118 -92 c 0
 118 -130 136 -143 160 -143 c 0
 177 -143 193 -137 210 -122 c 1
 210 -184 l 1
 183 -208 145 -223 95 -223 c 0
 34 -223 -9 -201 -9 -137 c 0
 -9 -70 38 -16 89 8 c 1
 89 690 l 1
 227 690 l 1
 227 0 l 1
EndSplineSet
Position2: "'cpsp' Capital Spacing in Latin lookup 0 subtable" dx=5 dy=0 dh=10 dv=0
EndChar

StartChar: iogonek
Encoding: 303 303 160
Width: 266
GlyphClass: 2
Flags: MW
HStem: -223 80<38.5 142.5> 0 21G<159 201 159 159> 512 20G<63 201 201 201> 584 146<109.5 154.5>
VStem: 56 152<635 678.5> 63 138<8 532 0 532>
LayerCount: 2
Fore
SplineSet
132 584 m 0xf8
 87 584 56 613 56 657 c 0
 56 700 87 730 132 730 c 0
 177 730 208 700 208 657 c 0
 208 613 177 584 132 584 c 0xf8
63 532 m 1xf4
 201 532 l 1
 201 0 l 1
 159 0 l 1
 122 -4 92 -43 92 -92 c 0
 92 -130 110 -143 134 -143 c 0
 151 -143 167 -137 184 -122 c 1
 184 -184 l 1
 157 -208 119 -223 69 -223 c 0
 8 -223 -35 -201 -35 -137 c 0
 -35 -70 12 -16 63 8 c 1
 63 532 l 1xf4
EndSplineSet
EndChar

StartChar: Idotaccent
Encoding: 304 304 43
Width: 292
GlyphClass: 2
Flags: MW
HStem: 0 21G<89 227 89 89> 670 20G<89 227 227 227> 730 139<137 179>
VStem: 89 138<0 690>
LayerCount: 2
Fore
SplineSet
158 869 m 0
 200 869 230 840 230 800 c 0
 230 759 200 730 158 730 c 0
 116 730 86 759 86 800 c 0
 86 840 116 869 158 869 c 0
227 0 m 1
 89 0 l 1
 89 690 l 1
 227 690 l 1
 227 0 l 1
EndSplineSet
Position2: "'cpsp' Capital Spacing in Latin lookup 0 subtable" dx=5 dy=0 dh=10 dv=0
EndChar

StartChar: dotlessi
Encoding: 305 305 153
Width: 266
GlyphClass: 2
Flags: MW
HStem: 0 21G<63 201 63 63> 512 20G<63 201 201 201>
VStem: 63 138<0 532>
LayerCount: 2
Fore
SplineSet
201 0 m 1
 63 0 l 1
 63 532 l 1
 201 532 l 1
 201 0 l 1
EndSplineSet
EndChar

StartChar: IJ
Encoding: 306 306 39
Width: 887
GlyphClass: 2
Flags: MW
HStem: -14 103<560.5 625 560.5 667> 0 21G<89 227 89 89> 670 20G<89 227 227 227 696 834 834 834>
VStem: 89 138<0 690> 343.5 138.5 696 138<269 283 283 690>
LayerCount: 2
Fore
SplineSet
227 0 m 1x74
 89 0 l 1
 89 690 l 1
 227 690 l 1
 227 0 l 1x74
834 690 m 1
 834 283 l 2
 834 254 834 232 831 188 c 0
 824 69 749 -14 585 -14 c 0
 425 -14 348 75 344 216 c 2
 343 251 l 1
 481 251 l 1
 483 216 l 2
 488 124 528 89 593 89 c 0xbc
 657 89 689 130 695 196 c 0
 696 218 696 241 696 269 c 2
 696 690 l 1
 834 690 l 1
EndSplineSet
Position2: "'cpsp' Capital Spacing in Latin lookup 0 subtable" dx=5 dy=0 dh=10 dv=0
EndChar

StartChar: ij
Encoding: 307 307 158
Width: 526
GlyphClass: 2
Flags: MW
HStem: -210 101<233 345> 0 21G<63 201 63 63> 512 20G<63 201 201 201 326 463 463 463> 584 146<109.5 154.5 370 419.5>
VStem: 56 152<635 678.5> 63 138<0 532> 319 151<633 681> 326 137<-14 -12 -12 532>
LayerCount: 2
Fore
SplineSet
132 730 m 0xfa
 177 730 208 700 208 657 c 0
 208 613 177 584 132 584 c 0
 87 584 56 613 56 657 c 0
 56 700 87 730 132 730 c 0xfa
395 730 m 0
 444 730 470 705 470 657 c 0
 470 609 444 584 395 584 c 0
 345 584 319 609 319 657 c 0
 319 705 345 730 395 730 c 0
201 0 m 1xf5
 63 0 l 1
 63 532 l 1
 201 532 l 1
 201 0 l 1xf5
463 532 m 1
 463 -12 l 2
 463 -32 462 -58 461 -76 c 0
 454 -160 406 -210 284 -210 c 0
 265 -210 248 -209 233 -207 c 1
 233 -109 l 1
 293 -114 319 -101 324 -60 c 0
 325 -46 326 -29 326 -14 c 2
 326 532 l 1
 463 532 l 1
EndSplineSet
EndChar

StartChar: Kcommaaccent
Encoding: 310 310 49
Width: 683
GlyphClass: 2
Flags: MW
HStem: -207 164<318 329 248 412> 0 21G<89 227 89 89 497 675 497 497> 670 20G<89 227 227 227 525 689 689 689>
VStem: 89 138<0 217 357 690>
AnchorPoint: "Anchor-0" 351 0 basechar 0
LayerCount: 2
Fore
SplineSet
384 360 m 1
 675 0 l 1
 497 0 l 1
 284 279 l 1
 227 217 l 1
 227 0 l 1
 89 0 l 1
 89 690 l 1
 227 690 l 1
 227 357 l 1
 525 690 l 1
 689 690 l 1
 384 360 l 1
318 -43 m 1
 412 -43 l 1
 412 -54 l 1
 329 -207 l 1
 248 -207 l 1
 318 -43 l 1
EndSplineSet
Position2: "'cpsp' Capital Spacing in Latin lookup 0 subtable" dx=5 dy=0 dh=10 dv=0
EndChar

StartChar: kcommaaccent
Encoding: 311 311 163
Width: 583
GlyphClass: 2
Flags: MW
HStem: -207 164<264 275 194 358> 0 21G<63 201 63 63 410 584 410 410> 512 20G<415 581 581 581> 715 20G<63 201 201 201>
VStem: 63 138<0 162 0 289 289 735>
AnchorPoint: "Anchor-0" 300 0 basechar 0
LayerCount: 2
Fore
SplineSet
584 0 m 1
 410 0 l 1
 245 210 l 1
 201 162 l 1
 201 0 l 1
 63 0 l 1
 63 735 l 1
 201 735 l 1
 201 289 l 1
 415 532 l 1
 581 532 l 1
 345 285 l 1
 584 0 l 1
264 -43 m 1
 358 -43 l 1
 358 -54 l 1
 275 -207 l 1
 194 -207 l 1
 264 -43 l 1
EndSplineSet
EndChar

StartChar: Lacute
Encoding: 313 313 51
Width: 604
GlyphClass: 2
Flags: MW
HStem: 0 115<227 587 227 587> 670 20G<89 227 227 227> 735 112<188 191 113 312>
VStem: 89 138<115 690 115 690 115 690>
AnchorPoint: "Anchor-0" 335 0 basechar 0
LayerCount: 2
Fore
SplineSet
191 735 m 1
 113 735 l 1
 188 847 l 1
 312 847 l 1
 191 735 l 1
587 115 m 1
 587 0 l 1
 89 0 l 1
 89 690 l 1
 227 690 l 1
 227 115 l 1
 587 115 l 1
EndSplineSet
Position2: "'cpsp' Capital Spacing in Latin lookup 0 subtable" dx=5 dy=0 dh=10 dv=0
EndChar

StartChar: lacute
Encoding: 314 314 165
Width: 279
GlyphClass: 2
Flags: MW
HStem: -7 99<141 260> -3 21G<260 260> 715 20G<59 197 197 197> 782 118<79 281 79 281>
VStem: 59 138<171 174 174 735>
AnchorPoint: "Anchor-0" 144 0 basechar 0
LayerCount: 2
Fore
SplineSet
157 782 m 1x78
 79 782 l 1
 157 900 l 1
 281 900 l 1
 157 782 l 1x78
197 735 m 1
 197 174 l 2
 197 153 197 139 198 125 c 0
 201 98 213 89 260 92 c 1
 260 -3 l 1
 233 -6 206 -7 175 -7 c 0
 107 -7 64 18 61 87 c 0xb8
 59 111 59 136 59 171 c 2
 59 735 l 1
 197 735 l 1
EndSplineSet
EndChar

StartChar: Lcommaaccent
Encoding: 315 315 53
Width: 604
GlyphClass: 2
Flags: MW
HStem: -207 164<302 313 232 396> 0 115<227 587 227 587> 670 20G<89 227 227 227>
VStem: 89 138<115 690 115 690 115 690>
AnchorPoint: "Anchor-0" 335 0 basechar 0
LayerCount: 2
Fore
SplineSet
587 115 m 1
 587 0 l 1
 89 0 l 1
 89 690 l 1
 227 690 l 1
 227 115 l 1
 587 115 l 1
302 -43 m 1
 396 -43 l 1
 396 -54 l 1
 313 -207 l 1
 232 -207 l 1
 302 -43 l 1
EndSplineSet
Position2: "'cpsp' Capital Spacing in Latin lookup 0 subtable" dx=5 dy=0 dh=10 dv=0
EndChar

StartChar: lcaron
Encoding: 318 318 166
Width: 279
GlyphClass: 2
Flags: MW
HStem: -7 99<141 260> -3 21G<260 260> 715 20G<59 197 197 197>
VStem: 59 138<171 174 174 735>
AnchorPoint: "Anchor-0" 144 0 basechar 0
LayerCount: 2
Fore
SplineSet
197 735 m 1x70
 197 174 l 2
 197 153 197 139 198 125 c 0
 201 98 213 89 260 92 c 1
 260 -3 l 1
 233 -6 206 -7 175 -7 c 0
 107 -7 64 18 61 87 c 0xb0
 59 111 59 136 59 171 c 2
 59 735 l 1
 197 735 l 1x70
EndSplineSet
EndChar

StartChar: Ldot
Encoding: 319 319 54
Width: 604
GlyphClass: 2
Flags: MW
HStem: 0 115<227 587 227 587> 320 160<401.5 446.5> 670 20G<89 227 227 227>
VStem: 89 138<115 690 115 690 115 690> 344 160<377.5 422.5>
AnchorPoint: "Anchor-0" 335 0 basechar 0
LayerCount: 2
Fore
SplineSet
587 115 m 1
 587 0 l 1
 89 0 l 1
 89 690 l 1
 227 690 l 1
 227 115 l 1
 587 115 l 1
424 320 m 0
 379 320 344 355 344 400 c 0
 344 445 379 480 424 480 c 0
 469 480 504 445 504 400 c 0
 504 355 469 320 424 320 c 0
EndSplineSet
Ligature2: "Ligature Substitution lookup 5 subtable" L periodcentered
Position2: "'cpsp' Capital Spacing in Latin lookup 0 subtable" dx=5 dy=0 dh=10 dv=0
EndChar

StartChar: ldot
Encoding: 320 320 168
Width: 422
GlyphClass: 2
Flags: MW
HStem: -7 99<141 260> -3 21G<260 260> 327 146<313.5 357> 715 20G<59 197 197 197>
VStem: 59 138<171 174 174 735> 260 151<378.5 421.5>
AnchorPoint: "Anchor-0" 144 0 basechar 0
LayerCount: 2
Fore
SplineSet
197 735 m 1x78
 197 174 l 2
 197 153 197 139 198 125 c 0
 201 98 213 89 260 92 c 1
 260 -3 l 1
 233 -6 206 -7 175 -7 c 0
 107 -7 64 18 61 87 c 0xbc
 59 111 59 136 59 171 c 2
 59 735 l 1
 197 735 l 1x78
335 473 m 0
 379 473 411 443 411 400 c 0
 411 357 379 327 335 327 c 0
 292 327 260 357 260 400 c 0
 260 443 292 473 335 473 c 0
EndSplineSet
Ligature2: "Ligature Substitution lookup 5 subtable" l periodcentered
EndChar

StartChar: Lslash
Encoding: 321 321 55
Width: 636
GlyphClass: 2
Flags: MW
HStem: 0 115<259 618 259 618> 670 20G<121 259 259 259>
VStem: 121 138<115 286 286 286 454 690>
AnchorPoint: "Anchor-0" 367 0 basechar 0
LayerCount: 2
Fore
SplineSet
618 115 m 1
 618 0 l 1
 121 0 l 1
 121 286 l 1
 21 230 l 1
 21 322 l 1
 121 378 l 1
 121 690 l 1
 259 690 l 1
 259 454 l 1
 363 512 l 1
 363 420 l 1
 259 362 l 1
 259 115 l 1
 618 115 l 1
EndSplineSet
Position2: "'cpsp' Capital Spacing in Latin lookup 0 subtable" dx=5 dy=0 dh=10 dv=0
EndChar

StartChar: lslash
Encoding: 322 322 169
Width: 313
GlyphClass: 2
Flags: MW
HStem: -7 99<165 284> 715 20G<83 221 221 221>
VStem: 83 138<171 174 174 232 232 232 413 735>
AnchorPoint: "Anchor-0" 169 0 basechar 0
LayerCount: 2
Fore
SplineSet
223 125 m 0
 225 98 237 89 284 92 c 1
 284 -3 l 1
 258 -6 230 -7 199 -7 c 0
 131 -7 88 18 85 87 c 0
 83 111 83 136 83 171 c 2
 83 232 l 1
 21 194 l 1
 21 289 l 1
 83 327 l 1
 83 735 l 1
 221 735 l 1
 221 413 l 1
 283 451 l 1
 283 356 l 1
 221 318 l 1
 221 174 l 2
 221 153 221 139 223 125 c 0
EndSplineSet
EndChar

StartChar: Nacute
Encoding: 323 323 58
Width: 760
GlyphClass: 2
Flags: MW
HStem: 0 21G<89 227 89 89 506 695 506 506> 0 156<562 562 562 695 506 562> 524 166<222 222> 670 20G<89 272 272 272 557 694 694 694> 735 112<419 422 344 543>
VStem: 89 138<0 312 0 690> 557 137.5
AnchorPoint: "Anchor-0" 389 0 basechar 0
LayerCount: 2
Fore
SplineSet
422 735 m 1x9e
 344 735 l 1
 419 847 l 1
 543 847 l 1
 422 735 l 1x9e
695 0 m 1
 506 0 l 1
 222 524 l 1xae
 226 449 227 370 227 312 c 2
 227 0 l 1
 89 0 l 1
 89 690 l 1
 272 690 l 1
 562 156 l 1x5e
 558 230 557 314 557 373 c 2
 557 690 l 1
 694 690 l 1
 695 0 l 1
EndSplineSet
Position2: "'cpsp' Capital Spacing in Latin lookup 0 subtable" dx=5 dy=0 dh=10 dv=0
EndChar

StartChar: Ncommaaccent
Encoding: 325 325 60
Width: 760
GlyphClass: 2
Flags: MW
HStem: -207 164<356 367 286 450> 0 21G<89 227 89 89 506 695 506 506> 0 156<562 562 562 695 506 562> 524 166<222 222> 670 20G<89 272 272 272 557 694 694 694>
VStem: 89 138<0 312 0 690> 557 137.5
AnchorPoint: "Anchor-0" 389 0 basechar 0
LayerCount: 2
Fore
SplineSet
695 0 m 1xce
 506 0 l 1
 222 524 l 1xd6
 226 449 227 370 227 312 c 2
 227 0 l 1
 89 0 l 1
 89 690 l 1
 272 690 l 1
 562 156 l 1xae
 558 230 557 314 557 373 c 2
 557 690 l 1
 694 690 l 1
 695 0 l 1xce
450 -54 m 1
 367 -207 l 1
 286 -207 l 1
 356 -43 l 1
 450 -43 l 1
 450 -54 l 1
EndSplineSet
Position2: "'cpsp' Capital Spacing in Latin lookup 0 subtable" dx=5 dy=0 dh=10 dv=0
EndChar

StartChar: Ncaron
Encoding: 327 327 59
Width: 760
GlyphClass: 2
Flags: MW
HStem: 0 21G<89 227 89 89 506 695 506 506> 0 156<562 562 562 695 506 562> 524 166<222 222> 670 20G<89 272 272 272 557 694 694 694> 735 112<335 335 335 358 422 444>
VStem: 89 138<0 312 0 690> 557 137.5
AnchorPoint: "Anchor-0" 389 0 basechar 0
LayerCount: 2
Fore
SplineSet
335 735 m 1x9e
 271 847 l 1
 358 847 l 1
 391 780 l 1
 422 847 l 1
 508 847 l 1
 444 735 l 1
 335 735 l 1x9e
506 0 m 1
 222 524 l 1xae
 226 449 227 370 227 312 c 2
 227 0 l 1
 89 0 l 1
 89 690 l 1
 272 690 l 1
 562 156 l 1x5e
 558 230 557 314 557 373 c 2
 557 690 l 1
 694 690 l 1
 695 0 l 1
 506 0 l 1
EndSplineSet
Position2: "'cpsp' Capital Spacing in Latin lookup 0 subtable" dx=5 dy=0 dh=10 dv=0
EndChar

StartChar: ncaron
Encoding: 328 328 173
Width: 621
GlyphClass: 2
Flags: MW
HStem: 449 97<344.5 354.5>
VStem: 63 138<0 243 446 532> 425 138<0 281 281 292>
AnchorPoint: "Anchor-0" 310 0 basechar 0
LayerCount: 2
Fore
SplineSet
369 575 m 1
 260 575 l 1
 196 693 l 1
 282 693 l 1
 315 624 l 1
 348 693 l 1
 433 693 l 1
 369 575 l 1
559 397 m 0
 562 370 563 343 563 300 c 2
 563 0 l 1
 425 0 l 1
 425 281 l 2
 425 303 425 328 423 355 c 0
 419 411 388 449 321 449 c 0
 254 449 201 391 201 243 c 2
 201 0 l 1
 63 0 l 1
 63 532 l 1
 201 532 l 1
 201 446 l 1
 242 509 l 1
 280 536 319 546 370 546 c 0
 483 546 548 490 559 397 c 0
EndSplineSet
EndChar

StartChar: Eng
Encoding: 330 330 61
Width: 760
GlyphClass: 2
Flags: MW
HStem: -223 104<484 552> 0 21G<89 227 89 89> 520 170<222 222> 670 20G<89 272 272 272 557 695 695 695>
VStem: 89 138<0 312 0 690> 557 138<-56 -25 -25 -25 404 690>
LayerCount: 2
Fore
SplineSet
695 690 m 1xdc
 695 -62 l 2
 695 -80 695 -89 694 -103 c 0
 685 -191 620 -223 484 -223 c 1
 484 -119 l 1
 541 -116 557 -94 557 -56 c 2
 557 -25 l 1
 222 520 l 1xec
 226 445 227 370 227 312 c 2
 227 0 l 1
 89 0 l 1
 89 690 l 1
 272 690 l 1
 562 196 l 1
 558 270 557 345 557 404 c 2
 557 690 l 1
 695 690 l 1xdc
EndSplineSet
Position2: "'cpsp' Capital Spacing in Latin lookup 0 subtable" dx=5 dy=0 dh=10 dv=0
EndChar

StartChar: eng
Encoding: 331 331 175
Width: 621
GlyphClass: 2
Flags: W
LayerCount: 2
Fore
SplineSet
559 397 m 0
 562 370 563 343 563 300 c 2
 563 -43 l 2
 563 -61 563 -70 562 -84 c 0
 554 -175 500 -210 347 -210 c 1
 347 -106 l 1
 396 -106 420 -96 424 -58 c 0
 425 -50 425 -39 425 -29 c 2
 425 281 l 2
 425 303 425 328 423 355 c 0
 419 411 388 449 321 449 c 0
 254 449 201 391 201 243 c 2
 201 0 l 1
 63 0 l 1
 63 532 l 1
 201 532 l 1
 201 446 l 1
 242 509 l 1
 280 536 319 546 370 546 c 0
 483 546 548 490 559 397 c 0
EndSplineSet
EndChar

StartChar: Omacron
Encoding: 332 332 69
Width: 765
GlyphClass: 2
Flags: MW
HStem: -14 103<330.5 453 330.5 498> 601 103<330.5 453> 759 76<256 529 256 529>
VStem: 51 144<264.5 426 264.5 453.5> 256 273<759 835 759 835> 588 145<264.5 426>
LayerCount: 2
Fore
SplineSet
529 759 m 1
 256 759 l 1
 256 835 l 1
 529 835 l 1
 529 759 l 1
392 704 m 0
 604 704 733 562 733 345 c 0
 733 129 604 -14 392 -14 c 0
 179 -14 51 129 51 345 c 0
 51 562 179 704 392 704 c 0
392 89 m 0
 514 89 588 184 588 345 c 0
 588 507 514 601 392 601 c 0
 269 601 195 507 195 345 c 0
 195 184 269 89 392 89 c 0
EndSplineSet
Position2: "'cpsp' Capital Spacing in Latin lookup 0 subtable" dx=5 dy=0 dh=10 dv=0
EndChar

StartChar: omacron
Encoding: 333 333 183
Width: 606
GlyphClass: 2
Flags: MW
HStem: -14 97<261.5 344.5 261.5 391.5> 449 97<261.5 344.5> 594 76<167 440 167 440>
VStem: 27 143<209 323.5 209 347> 167 273<594 670 594 670> 436 143<209 323.5>
LayerCount: 2
Fore
SplineSet
440 594 m 1xe8
 167 594 l 1
 167 670 l 1
 440 670 l 1
 440 594 l 1xe8
303 546 m 0xf4
 480 546 579 428 579 266 c 0
 579 105 480 -14 303 -14 c 0
 126 -14 27 105 27 266 c 0
 27 428 126 546 303 546 c 0xf4
303 83 m 0
 386 83 436 152 436 266 c 0
 436 381 386 449 303 449 c 0
 220 449 170 381 170 266 c 0
 170 152 220 83 303 83 c 0
EndSplineSet
EndChar

StartChar: Ohungarumlaut
Encoding: 336 336 68
Width: 765
GlyphClass: 2
Flags: MW
HStem: -14 103<330.5 453 330.5 498> 601 103<330.5 453> 736 111<322 326 248 446 407 446 482 485 407 407>
VStem: 51 144<264.5 426 264.5 453.5> 588 145<264.5 426>
LayerCount: 2
Fore
SplineSet
326 736 m 1
 248 736 l 1
 322 847 l 1
 446 847 l 1
 326 736 l 1
407 736 m 1
 482 847 l 1
 606 847 l 1
 485 736 l 1
 407 736 l 1
392 704 m 0
 604 704 733 562 733 345 c 0
 733 129 604 -14 392 -14 c 0
 179 -14 51 129 51 345 c 0
 51 562 179 704 392 704 c 0
392 89 m 0
 514 89 588 184 588 345 c 0
 588 507 514 601 392 601 c 0
 269 601 195 507 195 345 c 0
 195 184 269 89 392 89 c 0
EndSplineSet
Position2: "'cpsp' Capital Spacing in Latin lookup 0 subtable" dx=5 dy=0 dh=10 dv=0
EndChar

StartChar: ohungarumlaut
Encoding: 337 337 182
Width: 606
GlyphClass: 2
Flags: MW
HStem: -14 97<261.5 344.5 261.5 391.5> 449 97<261.5 344.5> 575 118<245 246 168 369 328 369 405 406 328 328>
VStem: 27 143<209 323.5 209 347> 436 143<209 323.5>
LayerCount: 2
Fore
SplineSet
246 575 m 1
 168 575 l 1
 245 693 l 1
 369 693 l 1
 246 575 l 1
328 575 m 1
 405 693 l 1
 529 693 l 1
 406 575 l 1
 328 575 l 1
303 546 m 0xf8
 480 546 579 428 579 266 c 0
 579 105 480 -14 303 -14 c 0
 126 -14 27 105 27 266 c 0
 27 428 126 546 303 546 c 0xf8
303 83 m 0
 386 83 436 152 436 266 c 0
 436 381 386 449 303 449 c 0
 220 449 170 381 170 266 c 0
 170 152 220 83 303 83 c 0
EndSplineSet
EndChar

StartChar: OE
Encoding: 338 338 72
Width: 1115
GlyphClass: 2
Flags: MW
HStem: -14 103<330.5 409.5> 0 109<726 1086 726 1086> 291 109<726 1051 726 1051> 582 108<726 1076 726 726> 601 103<330.5 412 272 453>
VStem: 51 144<266 424.5 266 451.5> 588 138<109 119 119 119 266 291 400 424.5 570 582>
LayerCount: 2
Fore
SplineSet
1086 109 m 1x76
 1086 0 l 1
 588 0 l 1x76
 588 119 l 1
 558 50 l 1
 507 2 454 -14 365 -14 c 0
 179 -14 51 133 51 345 c 0
 51 558 179 704 365 704 c 0
 459 704 507 688 558 639 c 1xae
 588 570 l 1
 588 690 l 1
 1076 690 l 1
 1076 582 l 1
 726 582 l 1
 726 400 l 1
 1051 400 l 1
 1051 291 l 1
 726 291 l 1
 726 109 l 1
 1086 109 l 1x76
392 89 m 0xae
 514 89 588 187 588 345 c 0
 588 504 514 601 392 601 c 0
 269 601 195 504 195 345 c 0
 195 187 269 89 392 89 c 0xae
EndSplineSet
Position2: "'cpsp' Capital Spacing in Latin lookup 0 subtable" dx=5 dy=0 dh=10 dv=0
EndChar

StartChar: oe
Encoding: 339 339 186
Width: 987
GlyphClass: 2
Flags: MW
HStem: -14 97<261.5 344.5 261.5 346.5 666.5 727.5> 230 90<580 813 580 953 576 813> 449 97<261.5 344.5 668.5 733>
VStem: 27 143<209 323.5 209 347> 436 140<230 230 230 323.5> 813 142<320 320>
LayerCount: 2
Fore
SplineSet
955 277 m 0
 955 264 955 248 953 230 c 1
 576 230 l 1
 585 121 635 83 698 83 c 0
 757 83 800 116 809 173 c 1
 947 173 l 1
 920 49 820 -14 698 -14 c 0
 621 -14 549 15 504 93 c 1
 460 18 390 -14 303 -14 c 0
 126 -14 27 105 27 266 c 0
 27 428 126 546 303 546 c 0
 391 546 464 512 509 434 c 1
 554 512 626 546 711 546 c 0
 869 546 955 422 955 277 c 0
303 83 m 0
 386 83 436 152 436 266 c 0
 436 381 386 449 303 449 c 0
 220 449 170 381 170 266 c 0
 170 152 220 83 303 83 c 0
580 320 m 1
 813 320 l 1
 804 403 766 449 700 449 c 0
 636 449 592 406 580 320 c 1
EndSplineSet
EndChar

StartChar: racute
Encoding: 341 341 191
Width: 380
GlyphClass: 2
Flags: MW
HStem: 0 21G<63 201 63 63> 512 20G<63 201 201 201> 521 20G<373 373> 525 20G<319 342> 575 118<155 357 155 357>
VStem: 63 138<0 244 435 532>
AnchorPoint: "Anchor-0" 132 0 basechar 0
LayerCount: 2
Fore
SplineSet
233 575 m 1xac
 155 575 l 1
 233 693 l 1
 357 693 l 1
 233 575 l 1xac
334 545 m 0x9c
 350 545 361 544 373 541 c 1xac
 373 430 l 1
 258 438 201 387 201 244 c 2
 201 0 l 1
 63 0 l 1
 63 532 l 1
 201 532 l 1
 201 435 l 1xcc
 243 509 l 1
 269 533 304 545 334 545 c 0x9c
EndSplineSet
EndChar

StartChar: rcommaaccent
Encoding: 343 343 193
Width: 380
GlyphClass: 2
Flags: MW
HStem: -207 164<96 107 26 190> 0 21G<63 201 63 63> 512 20G<63 201 201 201> 521 20G<373 373> 525 20G<319 342>
VStem: 63 138<0 244 435 532>
AnchorPoint: "Anchor-0" 132 0 basechar 0
LayerCount: 2
Fore
SplineSet
334 545 m 0xcc
 350 545 361 544 373 541 c 1xd4
 373 430 l 1
 258 438 201 387 201 244 c 2
 201 0 l 1
 63 0 l 1
 63 532 l 1
 201 532 l 1
 201 435 l 1xe4
 243 509 l 1
 269 533 304 545 334 545 c 0xcc
96 -43 m 1
 190 -43 l 1
 190 -54 l 1
 107 -207 l 1
 26 -207 l 1
 96 -43 l 1
EndSplineSet
EndChar

StartChar: Rcaron
Encoding: 344 344 78
Width: 654
GlyphClass: 2
Flags: MW
HStem: 0 21G<89 227 89 89 488 639 488 488> 278 103<227 307 227 322> 582 108<227 328 227 227> 735 112<289 289 289 312 376 398>
VStem: 89 138<0 278 381 582> 477 145<457.5 514.5>
AnchorPoint: "Anchor-0" 337 0 basechar 0
LayerCount: 2
Fore
SplineSet
289 735 m 1
 225 847 l 1
 312 847 l 1
 345 780 l 1
 376 847 l 1
 462 847 l 1
 398 735 l 1
 289 735 l 1
589 174 m 0
 598 90 611 39 639 0 c 1
 488 0 l 1
 471 47 461 89 454 154 c 0
 445 228 417 273 361 277 c 0
 342 278 325 278 307 278 c 2
 227 278 l 1
 227 0 l 1
 89 0 l 1
 89 690 l 1
 341 690 l 2
 381 690 407 689 441 685 c 0
 541 673 622 621 622 502 c 0
 622 413 569 357 487 334 c 1
 555 308 581 251 589 174 c 0
227 381 m 1
 322 381 l 2
 346 381 363 381 378 382 c 0
 433 387 477 414 477 481 c 0
 477 548 440 572 386 579 c 0
 370 581 353 582 328 582 c 2
 227 582 l 1
 227 381 l 1
EndSplineSet
Position2: "'cpsp' Capital Spacing in Latin lookup 0 subtable" dx=5 dy=0 dh=10 dv=0
EndChar

StartChar: rcaron
Encoding: 345 345 192
Width: 380
GlyphClass: 2
Flags: MW
HStem: 0 21G<63 201 63 63> 512 20G<63 201 201 201> 521 20G<373 373> 525 20G<319 342> 575 118<146 146 146 168 234 255>
VStem: 63 138<0 244 435 532>
AnchorPoint: "Anchor-0" 132 0 basechar 0
LayerCount: 2
Fore
SplineSet
146 575 m 1xac
 82 693 l 1
 168 693 l 1
 201 624 l 1
 234 693 l 1
 319 693 l 1
 255 575 l 1
 146 575 l 1xac
334 545 m 0x9c
 350 545 361 544 373 541 c 1xac
 373 430 l 1
 258 438 201 387 201 244 c 2
 201 0 l 1
 63 0 l 1
 63 532 l 1
 201 532 l 1
 201 435 l 1xcc
 243 509 l 1
 269 533 304 545 334 545 c 0x9c
EndSplineSet
EndChar

StartChar: Scedilla
Encoding: 350 350 83
Width: 608
GlyphClass: 2
Flags: MW
HStem: -210 57<256 285 256 304> -84 173<229 357.5> -10 21G<266 266> 601 103<285.5 349>
VStem: 71 145<490 547 490 565.5> 325 86<-130 -105.5> 439 144<149.5 205>
AnchorPoint: "Anchor-0" 308 0 basechar 0
LayerCount: 2
Fore
SplineSet
583 190 m 0xba
 583 63 469 -11 336 -14 c 1
 322 -41 l 1
 380 -48 411 -75 411 -121 c 0
 411 -184 346 -210 262 -210 c 0
 243 -210 225 -208 209 -203 c 1
 209 -144 l 1
 229 -151 248 -153 264 -153 c 0
 306 -153 325 -141 325 -119 c 0
 325 -92 301 -79 229 -84 c 1xde
 266 -10 l 1xbe
 136 6 53 78 42 204 c 1
 183 204 l 1
 198 128 256 89 326 89 c 0
 389 89 439 123 439 176 c 0xda
 439 234 403 268 301 292 c 0
 160 326 71 375 71 502 c 0
 71 629 186 704 318 704 c 0
 483 704 558 610 573 487 c 1
 432 487 l 1
 424 557 385 601 313 601 c 0
 258 601 216 575 216 519 c 0
 216 461 253 432 363 406 c 0
 515 371 583 301 583 190 c 0xba
EndSplineSet
Substitution2: "'locl' Localized Forms in Latin lookup 2 subtable" Scommaaccent
Substitution2: "'locl' Localized Forms in Latin lookup 1 subtable" Scommaaccent
Substitution2: "'aalt' Access All Alternates in Latin lookup 0 subtable" Scommaaccent
Position2: "'cpsp' Capital Spacing in Latin lookup 0 subtable" dx=5 dy=0 dh=10 dv=0
EndChar

StartChar: scedilla
Encoding: 351 351 197
Width: 497
GlyphClass: 2
Flags: MW
HStem: -13 90<234 284> 455 91<223.5 267>
VStem: 21 138<162 162> 42 139<378 414.5 378 433> 326 138<378 378> 336 139<115.5 155.5>
AnchorPoint: "Anchor-0" 256 0 basechar 0
LayerCount: 2
Fore
SplineSet
475 145 m 0
 475 46 393 -5 284 -13 c 1
 270 -41 l 1
 328 -48 359 -75 359 -121 c 0
 359 -184 294 -210 210 -210 c 0
 191 -210 173 -208 157 -203 c 1
 157 -144 l 1
 177 -151 196 -153 212 -153 c 0
 254 -153 273 -141 273 -119 c 0
 273 -92 249 -79 177 -84 c 1
 213 -12 l 1
 107 0 34 56 21 162 c 1
 159 162 l 1
 170 104 210 77 258 77 c 0
 302 77 336 96 336 135 c 0
 336 176 301 199 209 222 c 0
 110 247 42 290 42 382 c 0
 42 484 126 546 253 546 c 0
 380 546 452 475 464 378 c 1
 326 378 l 1
 317 427 290 455 244 455 c 0
 203 455 181 431 181 398 c 0
 181 358 214 337 302 315 c 0
 411 287 475 243 475 145 c 0
EndSplineSet
Substitution2: "'locl' Localized Forms in Latin lookup 2 subtable" scommaaccent
Substitution2: "'locl' Localized Forms in Latin lookup 1 subtable" scommaaccent
Substitution2: "'aalt' Access All Alternates in Latin lookup 0 subtable" scommaaccent
EndChar

StartChar: Scaron
Encoding: 352 352 82
Width: 608
GlyphClass: 2
Flags: MW
HStem: -14 103<291 357.5 291 396> 601 103<285.5 349> 735 112<262 262 262 285 349 371>
VStem: 71 145<490 547 490 565.5> 439 144<149.5 205>
AnchorPoint: "Anchor-0" 308 0 basechar 0
LayerCount: 2
Fore
SplineSet
262 735 m 1
 198 847 l 1
 285 847 l 1
 318 780 l 1
 349 847 l 1
 435 847 l 1
 371 735 l 1
 262 735 l 1
363 406 m 0
 515 371 583 301 583 190 c 0
 583 60 464 -14 328 -14 c 0
 163 -14 55 59 42 204 c 1
 183 204 l 1
 198 128 256 89 326 89 c 0
 389 89 439 123 439 176 c 0
 439 234 403 268 301 292 c 0
 160 326 71 375 71 502 c 0
 71 629 186 704 318 704 c 0
 483 704 558 610 573 487 c 1
 432 487 l 1
 424 557 385 601 313 601 c 0
 258 601 216 575 216 519 c 0
 216 461 253 432 363 406 c 0
EndSplineSet
Position2: "'cpsp' Capital Spacing in Latin lookup 0 subtable" dx=5 dy=0 dh=10 dv=0
EndChar

StartChar: Tcedilla
Encoding: 354 354 88
Width: 623
GlyphClass: 2
Flags: MW
HStem: -210 57<274 303 274 322> 0 21G<257 289 257 257 361 395 361 361> 582 108<23 257 23 629 395 395 395 629>
VStem: 257 138<0 582 0 582> 343 86<-130 -105.5>
AnchorPoint: "Anchor-0" 326 0 basechar 0
LayerCount: 2
Fore
SplineSet
361 0 m 1xf0
 340 -41 l 1
 398 -48 429 -75 429 -121 c 0
 429 -184 364 -210 280 -210 c 0
 261 -210 243 -208 227 -203 c 1
 227 -144 l 1
 247 -151 266 -153 282 -153 c 0
 324 -153 343 -141 343 -119 c 0
 343 -92 319 -79 247 -84 c 1
 289 0 l 1xe8
 257 0 l 1
 257 582 l 1
 23 582 l 1
 23 690 l 1
 629 690 l 1
 629 582 l 1
 395 582 l 1
 395 0 l 1
 361 0 l 1xf0
EndSplineSet
Substitution2: "'locl' Localized Forms in Latin lookup 2 subtable" uni021A
Substitution2: "'locl' Localized Forms in Latin lookup 1 subtable" uni021A
Substitution2: "'aalt' Access All Alternates in Latin lookup 0 subtable" uni021A
Position2: "'cpsp' Capital Spacing in Latin lookup 0 subtable" dx=5 dy=0 dh=10 dv=0
EndChar

StartChar: tcedilla
Encoding: 355 355 203
Width: 361
GlyphClass: 2
Flags: MW
HStem: -210 57<151 180 151 199> -11 97<233 329 233 329> -3 21G<165 165> 437 91<12 90 12 90 228 338>
VStem: 90 138<182 191 191 437 528 659> 220 86<-130 -105.5>
AnchorPoint: "Anchor-0" 203 0 basechar 0
LayerCount: 2
Fore
SplineSet
228 437 m 1xb8
 228 191 l 2
 228 173 228 158 229 144 c 0
 233 92 252 80 329 86 c 1
 329 -4 l 1
 298 -9 269 -11 238 -11 c 2
 233 -11 l 1xd8
 217 -41 l 1xd4
 275 -48 306 -75 306 -121 c 0
 306 -184 241 -210 157 -210 c 0
 138 -210 120 -208 104 -203 c 1
 104 -144 l 1
 124 -151 143 -153 159 -153 c 0
 201 -153 220 -141 220 -119 c 0
 220 -92 196 -79 124 -84 c 1
 165 -3 l 1xb4
 116 12 96 44 92 98 c 0
 90 122 90 145 90 175 c 2
 90 437 l 1
 12 437 l 1
 12 528 l 1
 90 528 l 1
 90 659 l 1
 228 659 l 1
 228 528 l 1
 338 528 l 1
 338 437 l 1
 228 437 l 1xb8
EndSplineSet
Substitution2: "'locl' Localized Forms in Latin lookup 2 subtable" uni021B
Substitution2: "'locl' Localized Forms in Latin lookup 1 subtable" uni021B
Substitution2: "'aalt' Access All Alternates in Latin lookup 0 subtable" uni021B
EndChar

StartChar: Tcaron
Encoding: 356 356 87
Width: 623
GlyphClass: 2
Flags: MW
HStem: 0 21G<257 395 257 257> 582 108<23 257 23 629 395 629 395 395> 735 112<272 272 272 295 359 381>
VStem: 257 138<0 582 0 582>
AnchorPoint: "Anchor-0" 326 0 basechar 0
LayerCount: 2
Fore
SplineSet
272 735 m 1
 208 847 l 1
 295 847 l 1
 328 780 l 1
 359 847 l 1
 445 847 l 1
 381 735 l 1
 272 735 l 1
629 582 m 1
 395 582 l 1
 395 0 l 1
 257 0 l 1
 257 582 l 1
 23 582 l 1
 23 690 l 1
 629 690 l 1
 629 582 l 1
EndSplineSet
Position2: "'cpsp' Capital Spacing in Latin lookup 0 subtable" dx=5 dy=0 dh=10 dv=0
EndChar

StartChar: tcaron
Encoding: 357 357 202
Width: 354
GlyphClass: 2
Flags: MW
HStem: -11 97<186.5 329> 437 91<12 90 12 90 228 338> 572 87<90 339 90 258> 572 163<328 339 258 422>
VStem: 90 138<182 191 191 437 528 659>
AnchorPoint: "Anchor-0" 203 0 basechar 0
LayerCount: 2
Fore
SplineSet
422 735 m 1xd8
 422 724 l 1
 339 572 l 1
 258 572 l 1
 328 735 l 1
 422 735 l 1xd8
228 528 m 1
 338 528 l 1
 338 437 l 1
 228 437 l 1
 228 191 l 2
 228 173 228 158 229 144 c 0
 233 92 252 80 329 86 c 1
 329 -4 l 1
 298 -9 269 -11 238 -11 c 0
 135 -11 98 23 92 98 c 0
 90 122 90 145 90 175 c 2
 90 437 l 1
 12 437 l 1
 12 528 l 1
 90 528 l 1
 90 659 l 1
 228 659 l 1xe8
 228 528 l 1
EndSplineSet
EndChar

StartChar: Tbar
Encoding: 358 358 86
Width: 623
GlyphClass: 2
Flags: MW
HStem: 0 21G<257 395 257 257> 298 78<157 257 157 257 395 495> 582 108<23 257 23 629 395 629 395 395>
VStem: 257 138<0 298 0 298 376 582>
AnchorPoint: "Anchor-0" 326 0 basechar 0
LayerCount: 2
Fore
SplineSet
395 582 m 1
 395 376 l 1
 495 376 l 1
 495 298 l 1
 395 298 l 1
 395 0 l 1
 257 0 l 1
 257 298 l 1
 157 298 l 1
 157 376 l 1
 257 376 l 1
 257 582 l 1
 23 582 l 1
 23 690 l 1
 629 690 l 1
 629 582 l 1
 395 582 l 1
EndSplineSet
Position2: "'cpsp' Capital Spacing in Latin lookup 0 subtable" dx=5 dy=0 dh=10 dv=0
EndChar

StartChar: tbar
Encoding: 359 359 201
Width: 361
GlyphClass: 2
Flags: MW
HStem: -11 97<186.5 329> 269 76<29 90 29 90 228 302> 437 91<12 90 12 90 228 338>
VStem: 90 138<182 191 191 269 182 269 345 437 528 659>
AnchorPoint: "Anchor-0" 203 0 basechar 0
LayerCount: 2
Fore
SplineSet
228 437 m 1
 228 345 l 1
 302 345 l 1
 302 269 l 1
 228 269 l 1
 228 191 l 2
 228 173 228 158 229 144 c 0
 233 92 252 80 329 86 c 1
 329 -4 l 1
 298 -9 269 -11 238 -11 c 0
 135 -11 98 23 92 98 c 0
 90 122 90 145 90 175 c 2
 90 269 l 1
 29 269 l 1
 29 345 l 1
 90 345 l 1
 90 437 l 1
 12 437 l 1
 12 528 l 1
 90 528 l 1
 90 659 l 1
 228 659 l 1
 228 528 l 1
 338 528 l 1
 338 437 l 1
 228 437 l 1
EndSplineSet
EndChar

StartChar: Umacron
Encoding: 362 362 96
Width: 702
GlyphClass: 2
Flags: MW
HStem: -14 103<319 410.5 319 461.5> 670 20G<80 217 217 217 512 649 649 649> 759 76<229 502 229 502>
VStem: 80 137<281 690> 229 273<759 835 759 835> 512 137<267 281 281 690>
LayerCount: 2
Fore
SplineSet
502 759 m 1
 229 759 l 1
 229 835 l 1
 502 835 l 1
 502 759 l 1
649 690 m 1xf4
 649 281 l 2
 649 252 649 232 647 200 c 0
 638 85 558 -14 365 -14 c 0
 171 -14 91 85 82 200 c 0
 80 232 80 252 80 281 c 2
 80 690 l 1
 217 690 l 1
 217 267 l 2
 217 247 217 232 219 217 c 0
 225 138 273 89 365 89 c 0
 456 89 504 138 510 217 c 0
 512 232 512 247 512 267 c 2
 512 690 l 1
 649 690 l 1xf4
EndSplineSet
Position2: "'cpsp' Capital Spacing in Latin lookup 0 subtable" dx=5 dy=0 dh=10 dv=0
EndChar

StartChar: umacron
Encoding: 363 363 211
Width: 618
GlyphClass: 2
Flags: MW
HStem: -14 98<267 272.5> 0 84<267 554 267 416> 512 20G<54 192 192 192 416 554 554 554> 594 76<168 441 168 441>
VStem: 54 138<238.5 247 247 532> 416 138<0 90 90 90 261 532 0 532>
LayerCount: 2
Fore
SplineSet
441 594 m 1xbc
 168 594 l 1
 168 670 l 1
 441 670 l 1
 441 594 l 1xbc
554 532 m 1
 554 0 l 1
 416 0 l 1
 416 90 l 1x7c
 375 22 l 1
 336 -4 298 -14 247 -14 c 0
 137 -14 71 48 59 121 c 0
 55 148 54 175 54 218 c 2
 54 532 l 1
 192 532 l 1
 192 247 l 2
 192 230 193 201 196 174 c 0
 203 119 235 84 299 84 c 0
 368 84 416 141 416 261 c 2
 416 532 l 1
 554 532 l 1
EndSplineSet
EndChar

StartChar: uring
Encoding: 367 367 213
Width: 618
GlyphClass: 2
Flags: MW
HStem: -14 98<267 272.5> 0 84<267 554 267 416> 512 20G<54 192 192 192 416 554 554 554> 566 53<293 315 293 335> 707 52<293 315>
VStem: 54 138<238.5 247 247 532> 198 68<649 677 649 691.5> 342 68<649 677> 416 138<0 90 90 90 261 532 0 532>
LayerCount: 2
Fore
SplineSet
304 566 m 0xbb
 242 566 198 606 198 663 c 0
 198 720 242 759 304 759 c 0
 366 759 410 720 410 663 c 0
 410 606 366 566 304 566 c 0xbb
304 707 m 0
 282 707 266 691 266 663 c 0
 266 635 282 619 304 619 c 0
 326 619 342 635 342 663 c 0
 342 691 326 707 304 707 c 0
554 532 m 1xbc80
 554 0 l 1
 416 0 l 1
 416 90 l 1x7c80
 375 22 l 1
 336 -4 298 -14 247 -14 c 0
 137 -14 71 48 59 121 c 0
 55 148 54 175 54 218 c 2
 54 532 l 1
 192 532 l 1
 192 247 l 2
 192 230 193 201 196 174 c 0
 203 119 235 84 299 84 c 0
 368 84 416 141 416 261 c 2
 416 532 l 1
 554 532 l 1xbc80
EndSplineSet
EndChar

StartChar: uhungarumlaut
Encoding: 369 369 210
Width: 618
GlyphClass: 2
Flags: MW
HStem: -14 98<267 272.5> 0 84<267 554 267 416> 512 20G<54 192 192 192 416 554 554 554> 575 118<246 247 169 370 329 370 406 407 329 329>
VStem: 54 138<238.5 247 247 532> 416 138<0 90 90 90 261 532 0 532>
LayerCount: 2
Fore
SplineSet
247 575 m 1xbc
 169 575 l 1
 246 693 l 1
 370 693 l 1
 247 575 l 1xbc
329 575 m 1
 406 693 l 1
 530 693 l 1
 407 575 l 1
 329 575 l 1
554 532 m 1
 554 0 l 1
 416 0 l 1
 416 90 l 1x7c
 375 22 l 1
 336 -4 298 -14 247 -14 c 0
 137 -14 71 48 59 121 c 0
 55 148 54 175 54 218 c 2
 54 532 l 1
 192 532 l 1
 192 247 l 2
 192 230 193 201 196 174 c 0
 203 119 235 84 299 84 c 0
 368 84 416 141 416 261 c 2
 416 532 l 1
 554 532 l 1
EndSplineSet
EndChar

StartChar: Uogonek
Encoding: 370 370 97
Width: 702
GlyphClass: 2
Flags: MW
HStem: -223 80<357.5 461.5> -14 103 670 20G<80 217 217 217 512 649 649 649>
VStem: 80 137<281 690> 284 127<-169 -71> 512 137<267 281 281 690>
LayerCount: 2
Fore
SplineSet
649 690 m 1
 649 281 l 2
 649 252 649 232 647 200 c 0
 640 107 585 24 462 -4 c 1
 433 -16 411 -50 411 -92 c 0
 411 -130 429 -143 453 -143 c 0
 470 -143 486 -137 503 -122 c 1
 503 -184 l 1
 476 -208 438 -223 388 -223 c 0
 327 -223 284 -201 284 -137 c 0
 284 -86 311 -42 347 -14 c 1
 166 -8 91 89 82 200 c 0
 80 232 80 252 80 281 c 2
 80 690 l 1
 217 690 l 1
 217 267 l 2
 217 247 217 232 219 217 c 0
 225 138 273 89 365 89 c 0
 456 89 504 138 510 217 c 0
 512 232 512 247 512 267 c 2
 512 690 l 1
 649 690 l 1
EndSplineSet
Position2: "'cpsp' Capital Spacing in Latin lookup 0 subtable" dx=5 dy=0 dh=10 dv=0
EndChar

StartChar: uogonek
Encoding: 371 371 212
Width: 618
GlyphClass: 2
Flags: MW
HStem: -223 80<391.5 495.5> -14 21G<192 272.5> -14 98<267 272.5> 0 21G<512 554 512 512> 512 20G<54 192 192 192 416 554 554 554>
VStem: 54 138<238.5 247 247 532> 318 127<-111 -103.5> 416 138<8 90 90 90 261 532>
LayerCount: 2
Fore
SplineSet
554 0 m 1x9d
 512 0 l 1
 475 -4 445 -43 445 -92 c 0
 445 -130 463 -143 487 -143 c 0x9e
 504 -143 520 -137 537 -122 c 1
 537 -184 l 1xad
 510 -208 472 -223 422 -223 c 0
 361 -223 318 -201 318 -137 c 0xce
 318 -70 365 -16 416 8 c 1
 416 90 l 1xcd
 375 22 l 1
 336 -4 298 -14 247 -14 c 0
 137 -14 71 48 59 121 c 0
 55 148 54 175 54 218 c 2
 54 532 l 1
 192 532 l 1
 192 247 l 2
 192 230 193 201 196 174 c 0
 203 119 235 84 299 84 c 0xad
 368 84 416 141 416 261 c 2
 416 532 l 1
 554 532 l 1
 554 0 l 1x9d
EndSplineSet
EndChar

StartChar: wcircumflex
Encoding: 373 373 217
Width: 831
GlyphClass: 2
Flags: MW
HStem: 0 21G<169 326 169 169 507 663 507 507> 0 115<248 248 248 326 169 248> 512 20G<0 154 154 154 684 832 832 832> 575 118<363 384 299 472 450 450 450 472 363 536> 644 49<417 417>
VStem: 0 832<532 532>
LayerCount: 2
Fore
SplineSet
384 575 m 1xb4
 299 575 l 1
 363 693 l 1
 472 693 l 1
 536 575 l 1
 450 575 l 1x74
 417 644 l 1xac
 384 575 l 1xb4
832 532 m 1
 663 0 l 1
 507 0 l 1
 417 405 l 1
 326 0 l 1
 169 0 l 1
 0 532 l 1
 154 532 l 1
 248 115 l 1
 335 530 l 1
 501 530 l 1
 591 116 l 1
 684 532 l 1
 832 532 l 1
EndSplineSet
EndChar

StartChar: Ycircumflex
Encoding: 374 374 108
Width: 626
GlyphClass: 2
Flags: MW
HStem: 0 21G<260 397 260 260> 670 20G<16 172 172 172 489 641 641 641> 735 112<275 297 211 384 361 361 361 384 275 448>
VStem: 260 137<0 267 0 267>
LayerCount: 2
Fore
SplineSet
297 735 m 1
 211 735 l 1
 275 847 l 1
 384 847 l 1
 448 735 l 1
 361 735 l 1
 328 802 l 1
 297 735 l 1
397 267 m 1
 397 0 l 1
 260 0 l 1
 260 267 l 1
 16 690 l 1
 172 690 l 1
 333 389 l 1
 489 690 l 1
 641 690 l 1
 397 267 l 1
EndSplineSet
Position2: "'cpsp' Capital Spacing in Latin lookup 0 subtable" dx=5 dy=0 dh=10 dv=0
EndChar

StartChar: Ydieresis
Encoding: 376 376 109
Width: 626
GlyphClass: 2
Flags: MW
HStem: 0 21G<260 397 260 260> 670 20G<16 172 172 172 489 641 641 641> 729 121<225 261 398 434>
VStem: 181 123<772 808> 260 137<0 267 0 267> 354 123<772 808>
LayerCount: 2
Fore
SplineSet
243 729 m 0xf4
 207 729 181 754 181 790 c 0
 181 826 207 850 243 850 c 0
 279 850 304 826 304 790 c 0
 304 754 279 729 243 729 c 0xf4
416 729 m 0
 380 729 354 754 354 790 c 0
 354 826 380 850 416 850 c 0
 452 850 477 826 477 790 c 0
 477 754 452 729 416 729 c 0
397 267 m 1xe8
 397 0 l 1
 260 0 l 1
 260 267 l 1
 16 690 l 1
 172 690 l 1
 333 389 l 1
 489 690 l 1
 641 690 l 1
 397 267 l 1xe8
EndSplineSet
Position2: "'cpsp' Capital Spacing in Latin lookup 0 subtable" dx=5 dy=0 dh=10 dv=0
EndChar

StartChar: Zacute
Encoding: 377 377 112
Width: 622
GlyphClass: 2
Flags: MW
HStem: 0 109<217 596 217 596> 582 108<78 427 78 591> 735 112<355 358 280 479>
VStem: 50 546<0 105 105 105>
LayerCount: 2
Fore
SplineSet
358 735 m 1
 280 735 l 1
 355 847 l 1
 479 847 l 1
 358 735 l 1
596 109 m 1
 596 0 l 1
 50 0 l 1
 50 105 l 1
 427 582 l 1
 78 582 l 1
 78 690 l 1
 591 690 l 1
 591 583 l 1
 217 109 l 1
 596 109 l 1
EndSplineSet
Position2: "'cpsp' Capital Spacing in Latin lookup 0 subtable" dx=5 dy=0 dh=10 dv=0
EndChar

StartChar: Zdotaccent
Encoding: 379 379 114
Width: 622
GlyphClass: 2
Flags: MW
HStem: 0 109<217 596 217 596> 582 108<78 427 78 591> 730 139<304 346>
VStem: 253 144<779.5 820>
LayerCount: 2
Fore
SplineSet
325 730 m 0
 283 730 253 759 253 800 c 0
 253 840 283 869 325 869 c 0
 367 869 397 840 397 800 c 0
 397 759 367 730 325 730 c 0
596 109 m 1
 596 0 l 1
 50 0 l 1
 50 105 l 1
 427 582 l 1
 78 582 l 1
 78 690 l 1
 591 690 l 1
 591 583 l 1
 217 109 l 1
 596 109 l 1
EndSplineSet
Position2: "'cpsp' Capital Spacing in Latin lookup 0 subtable" dx=5 dy=0 dh=10 dv=0
EndChar

StartChar: zdotaccent
Encoding: 380 380 229
Width: 497
GlyphClass: 2
Flags: MW
HStem: 0 92<178 468 178 468> 436 92<46 316 46 464> 584 146<232.5 277.5>
VStem: 179 152<635 678.5>
LayerCount: 2
Fore
SplineSet
255 584 m 0
 210 584 179 613 179 657 c 0
 179 700 210 730 255 730 c 0
 300 730 331 700 331 657 c 0
 331 613 300 584 255 584 c 0
468 92 m 1
 468 0 l 1
 28 0 l 1
 28 87 l 1
 316 436 l 1
 46 436 l 1
 46 528 l 1
 464 528 l 1
 464 437 l 1
 178 92 l 1
 468 92 l 1
EndSplineSet
EndChar

StartChar: Zcaron
Encoding: 381 381 113
Width: 622
GlyphClass: 2
Flags: MW
HStem: 0 109<217 596 217 596> 582 108<78 427 78 591> 735 112<271 271 271 294 358 380>
VStem: 50 546<0 105 105 105>
LayerCount: 2
Fore
SplineSet
271 735 m 1
 207 847 l 1
 294 847 l 1
 327 780 l 1
 358 847 l 1
 444 847 l 1
 380 735 l 1
 271 735 l 1
596 109 m 1
 596 0 l 1
 50 0 l 1
 50 105 l 1
 427 582 l 1
 78 582 l 1
 78 690 l 1
 591 690 l 1
 591 583 l 1
 217 109 l 1
 596 109 l 1
EndSplineSet
Position2: "'cpsp' Capital Spacing in Latin lookup 0 subtable" dx=5 dy=0 dh=10 dv=0
EndChar

StartChar: zcaron
Encoding: 382 382 228
Width: 497
GlyphClass: 2
Flags: MW
HStem: 0 92<178 468 178 468> 436 92<46 316 46 464> 575 118<201 201 201 223 289 310>
VStem: 28 440<0 87 87 87>
LayerCount: 2
Fore
SplineSet
201 575 m 1
 137 693 l 1
 223 693 l 1
 256 624 l 1
 289 693 l 1
 374 693 l 1
 310 575 l 1
 201 575 l 1
468 92 m 1
 468 0 l 1
 28 0 l 1
 28 87 l 1
 316 436 l 1
 46 436 l 1
 46 528 l 1
 464 528 l 1
 464 437 l 1
 178 92 l 1
 468 92 l 1
EndSplineSet
EndChar

StartChar: scommaaccent
Encoding: 537 537 198
Width: 497
GlyphClass: 2
Flags: MW
HStem: -14 91<234 280 234 317> 455 91<223.5 267>
VStem: 21 138<162 162> 42 139<378 414.5 378 433> 326 138<378 378> 336 139<115.5 155.5>
AnchorPoint: "Anchor-0" 256 0 basechar 0
LayerCount: 2
Fore
SplineSet
253 546 m 0
 380 546 452 475 464 378 c 1
 326 378 l 1
 317 427 290 455 244 455 c 0
 203 455 181 431 181 398 c 0
 181 358 214 337 302 315 c 0
 411 287 475 243 475 145 c 0
 475 38 378 -14 256 -14 c 0
 127 -14 36 42 21 162 c 1
 159 162 l 1
 170 104 210 77 258 77 c 0
 302 77 336 96 336 135 c 0
 336 176 301 199 209 222 c 0
 110 247 42 290 42 382 c 0
 42 484 126 546 253 546 c 0
314 -43 m 1
 314 -54 l 1
 231 -207 l 1
 150 -207 l 1
 220 -43 l 1
 314 -43 l 1
EndSplineSet
EndChar

StartChar: uni021A
Encoding: 538 538 89
Width: 623
GlyphClass: 2
Flags: MW
HStem: -207 164<293 304 223 387> 0 21G<257 395 257 257> 582 108<23 257 23 629 395 629 395 395>
VStem: 257 138<0 582 0 582>
AnchorPoint: "Anchor-0" 326 0 basechar 0
LayerCount: 2
Fore
SplineSet
629 582 m 1
 395 582 l 1
 395 0 l 1
 257 0 l 1
 257 582 l 1
 23 582 l 1
 23 690 l 1
 629 690 l 1
 629 582 l 1
293 -43 m 1
 387 -43 l 1
 387 -54 l 1
 304 -207 l 1
 223 -207 l 1
 293 -43 l 1
EndSplineSet
Position2: "'cpsp' Capital Spacing in Latin lookup 0 subtable" dx=5 dy=0 dh=10 dv=0
EndChar

StartChar: uni021B
Encoding: 539 539 204
Width: 361
GlyphClass: 2
Flags: MW
HStem: -207 164<167 178 97 261> -11 97<186.5 329> 437 91<12 90 12 90 228 338>
VStem: 90 138<182 191 191 437 528 659>
AnchorPoint: "Anchor-0" 203 0 basechar 0
LayerCount: 2
Fore
SplineSet
228 437 m 1
 228 191 l 2
 228 173 228 158 229 144 c 0
 233 92 252 80 329 86 c 1
 329 -4 l 1
 298 -9 269 -11 238 -11 c 0
 135 -11 98 23 92 98 c 0
 90 122 90 145 90 175 c 2
 90 437 l 1
 12 437 l 1
 12 528 l 1
 90 528 l 1
 90 659 l 1
 228 659 l 1
 228 528 l 1
 338 528 l 1
 338 437 l 1
 228 437 l 1
167 -43 m 1
 261 -43 l 1
 261 -54 l 1
 178 -207 l 1
 97 -207 l 1
 167 -43 l 1
EndSplineSet
EndChar

StartChar: circumflex
Encoding: 710 710 328
Width: 300
Flags: MW
HStem: 575 118<96 117 32 205 183 205 96 269 183 183> 644 49<150 150>
VStem: 32 237<575 575>
LayerCount: 2
Fore
SplineSet
183 575 m 1xa0
 150 644 l 1x60
 117 575 l 1
 32 575 l 1
 96 693 l 1
 205 693 l 1
 269 575 l 1
 183 575 l 1xa0
EndSplineSet
EndChar

StartChar: caron
Encoding: 711 711 326
Width: 300
Flags: MW
HStem: 575 118<96 118 184 205 96 96>
VStem: 32 237<693 693>
LayerCount: 2
Fore
SplineSet
269 693 m 1
 205 575 l 1
 96 575 l 1
 32 693 l 1
 118 693 l 1
 151 624 l 1
 184 693 l 1
 269 693 l 1
EndSplineSet
EndChar

StartChar: breve
Encoding: 728 728 325
Width: 300
Flags: MW
HStem: 567 72<135.5 164.5 135.5 185.5> 567 126<30 185.5>
VStem: 30 73<647.5 693> 197 73<647.5 693>
LayerCount: 2
Fore
SplineSet
197 693 m 1x70
 270 693 l 1
 270 602 221 567 150 567 c 0
 78 567 30 602 30 693 c 1
 103 693 l 1x70
 105 655 121 639 150 639 c 0xb0
 179 639 195 655 197 693 c 1x70
EndSplineSet
EndChar

StartChar: dotaccent
Encoding: 729 729 330
Width: 300
Flags: MW
HStem: 584 146<127.5 172.5>
VStem: 74 152<635 678.5>
LayerCount: 2
Fore
SplineSet
150 730 m 0
 195 730 226 700 226 657 c 0
 226 613 195 584 150 584 c 0
 105 584 74 613 74 657 c 0
 74 700 105 730 150 730 c 0
EndSplineSet
EndChar

StartChar: ring
Encoding: 730 730 335
Width: 300
Flags: MW
HStem: 566 53<139 161 139 181> 707 52<139 161>
VStem: 44 68<649 677 649 691.5> 188 68<649 677>
LayerCount: 2
Fore
SplineSet
150 759 m 0
 212 759 256 720 256 663 c 0
 256 606 212 566 150 566 c 0
 88 566 44 606 44 663 c 0
 44 720 88 759 150 759 c 0
150 707 m 0
 128 707 112 691 112 663 c 0
 112 635 128 619 150 619 c 0
 172 619 188 635 188 663 c 0
 188 691 172 707 150 707 c 0
EndSplineSet
EndChar

StartChar: ogonek
Encoding: 731 731 334
Width: 300
Flags: MW
HStem: -223 80<125.5 229.5> 0 21G<246 246>
VStem: 52 127<-111 -103.5>
LayerCount: 2
Fore
SplineSet
150 8 m 1
 246 0 l 1
 209 -4 179 -43 179 -92 c 0
 179 -130 197 -143 221 -143 c 0
 238 -143 254 -137 271 -122 c 1
 271 -184 l 1
 244 -208 206 -223 156 -223 c 0
 95 -223 52 -201 52 -137 c 0
 52 -70 99 -16 150 8 c 1
EndSplineSet
EndChar

StartChar: tilde
Encoding: 732 732 336
Width: 300
Flags: MW
HStem: 582 106<218 239.5> 586 105<61 82 12 97.5> 612 79<92 97.5 61 101.5>
VStem: 12 70<586 595.5 586 624> 218 70<678.5 688>
LayerCount: 2
Fore
SplineSet
85 691 m 0x58
 110 691 126 688 158 675 c 0
 182 665 194 662 203 662 c 0
 213 662 218 669 218 688 c 1
 288 688 l 1
 288 612 264 582 215 582 c 0x98
 191 582 175 586 142 599 c 0
 118 608 106 612 97 612 c 0x38
 87 612 82 605 82 586 c 1
 12 586 l 1
 12 662 37 691 85 691 c 0x58
EndSplineSet
EndChar

StartChar: hungarumlaut
Encoding: 733 733 332
Width: 300
Flags: MW
HStem: 575 118<92 93 15 216 175 175 175 216 252 253>
VStem: 15 361<575 693>
LayerCount: 2
Fore
SplineSet
93 575 m 1
 15 575 l 1
 92 693 l 1
 216 693 l 1
 93 575 l 1
253 575 m 1
 175 575 l 1
 252 693 l 1
 376 693 l 1
 253 575 l 1
EndSplineSet
EndChar

StartChar: uni0326
Encoding: 806 806 337
Width: 0
GlyphClass: 4
Flags: MW
HStem: -207 164<117 128 47 211>
VStem: 47 164<-207 -54>
AnchorPoint: "Anchor-0" 153 0 mark 0
LayerCount: 2
Fore
SplineSet
211 -54 m 1
 128 -207 l 1
 47 -207 l 1
 117 -43 l 1
 211 -43 l 1
 211 -54 l 1
EndSplineSet
EndChar

StartChar: Wgrave
Encoding: 7808 7808 104
Width: 987
GlyphClass: 2
Flags: MW
HStem: 0 21G<199 383 199 199 625 808 625 625> 0 104<725 725 725 808 625 725> 574 106<507 507> 670 20G<26 175 175 175 849 991 991 991> 735 112<480 480 480 484 360 558>
VStem: 26 965<690 690>
LayerCount: 2
Fore
SplineSet
480 735 m 1x9c
 360 847 l 1
 484 847 l 1
 558 735 l 1
 480 735 l 1x9c
991 690 m 1
 808 0 l 1
 625 0 l 1
 507 574 l 1xac
 383 0 l 1
 199 0 l 1
 26 690 l 1
 175 690 l 1x9c
 291 106 l 1
 413 680 l 1
 607 680 l 1
 725 104 l 1x6c
 849 690 l 1
 991 690 l 1
EndSplineSet
Position2: "'cpsp' Capital Spacing in Latin lookup 0 subtable" dx=5 dy=0 dh=10 dv=0
EndChar

StartChar: wgrave
Encoding: 7809 7809 219
Width: 831
GlyphClass: 2
Flags: MW
HStem: 0 21G<169 326 169 169 507 663 507 507> 0 115<248 248 248 326 169 248> 512 20G<0 154 154 154 684 832 832 832> 575 118<391 391 391 392 268 469>
VStem: 0 832<532 532>
LayerCount: 2
Fore
SplineSet
391 575 m 1xb8
 268 693 l 1
 392 693 l 1
 469 575 l 1
 391 575 l 1xb8
832 532 m 1
 663 0 l 1
 507 0 l 1
 417 405 l 1
 326 0 l 1
 169 0 l 1
 0 532 l 1
 154 532 l 1
 248 115 l 1
 335 530 l 1
 501 530 l 1
 591 116 l 1x78
 684 532 l 1
 832 532 l 1
EndSplineSet
EndChar

StartChar: wacute
Encoding: 7811 7811 216
Width: 831
GlyphClass: 2
Flags: MW
HStem: 0 21G<169 326 169 169 507 663 507 507> 0 115<248 248 248 326 169 248> 512 20G<0 154 154 154 684 832 832 832> 575 118<372 574 372 574>
VStem: 0 832<532 532>
LayerCount: 2
Fore
SplineSet
450 575 m 1xb8
 372 575 l 1
 450 693 l 1
 574 693 l 1
 450 575 l 1xb8
832 532 m 1
 663 0 l 1
 507 0 l 1
 417 405 l 1
 326 0 l 1
 169 0 l 1
 0 532 l 1
 154 532 l 1
 248 115 l 1
 335 530 l 1
 501 530 l 1
 591 116 l 1x78
 684 532 l 1
 832 532 l 1
EndSplineSet
EndChar

StartChar: Wdieresis
Encoding: 7812 7812 103
Width: 987
GlyphClass: 2
Flags: MW
HStem: 0 21G<199 383 199 199 625 808 625 625> 0 104<725 725 725 808 625 725> 574 106<507 507> 670 20G<26 175 175 175 849 991 991 991> 729 121<406 442 579 615>
VStem: 362 123<772 808> 535 123<772 808>
LayerCount: 2
Fore
SplineSet
424 729 m 0x9e
 388 729 362 754 362 790 c 0
 362 826 388 850 424 850 c 0
 460 850 485 826 485 790 c 0
 485 754 460 729 424 729 c 0x9e
597 729 m 0
 561 729 535 754 535 790 c 0
 535 826 561 850 597 850 c 0
 633 850 658 826 658 790 c 0
 658 754 633 729 597 729 c 0
991 690 m 1
 808 0 l 1
 625 0 l 1
 507 574 l 1xae
 383 0 l 1
 199 0 l 1
 26 690 l 1
 175 690 l 1x9e
 291 106 l 1
 413 680 l 1
 607 680 l 1
 725 104 l 1x6e
 849 690 l 1
 991 690 l 1
EndSplineSet
Position2: "'cpsp' Capital Spacing in Latin lookup 0 subtable" dx=5 dy=0 dh=10 dv=0
EndChar

StartChar: wdieresis
Encoding: 7813 7813 218
Width: 831
GlyphClass: 2
Flags: MW
HStem: 0 21G<169 326 169 169 507 663 507 507> 0 115<248 248 248 326 169 248> 512 20G<0 154 154 154 684 832 832 832> 575 122<311 347 487 523>
VStem: 267 124<618 654> 443 124<618 654>
LayerCount: 2
Fore
SplineSet
329 575 m 0xbc
 293 575 267 600 267 636 c 0
 267 672 293 697 329 697 c 0
 365 697 391 672 391 636 c 0
 391 600 365 575 329 575 c 0xbc
505 575 m 0
 469 575 443 600 443 636 c 0
 443 672 469 697 505 697 c 0
 541 697 567 672 567 636 c 0
 567 600 541 575 505 575 c 0
832 532 m 1
 663 0 l 1
 507 0 l 1
 417 405 l 1
 326 0 l 1
 169 0 l 1
 0 532 l 1
 154 532 l 1
 248 115 l 1
 335 530 l 1
 501 530 l 1
 591 116 l 1x7c
 684 532 l 1
 832 532 l 1
EndSplineSet
EndChar

StartChar: Ygrave
Encoding: 7922 7922 110
Width: 626
GlyphClass: 2
Flags: MW
HStem: 0 21G<260 397 260 260> 670 20G<16 172 172 172 489 641 641 641> 735 112<299 299 299 303 179 377>
VStem: 260 137<0 267 0 267>
LayerCount: 2
Fore
SplineSet
299 735 m 1
 179 847 l 1
 303 847 l 1
 377 735 l 1
 299 735 l 1
397 267 m 1
 397 0 l 1
 260 0 l 1
 260 267 l 1
 16 690 l 1
 172 690 l 1
 333 389 l 1
 489 690 l 1
 641 690 l 1
 397 267 l 1
EndSplineSet
Position2: "'cpsp' Capital Spacing in Latin lookup 0 subtable" dx=5 dy=0 dh=10 dv=0
EndChar

StartChar: ygrave
Encoding: 7923 7923 225
Width: 565
GlyphClass: 2
Flags: MW
HStem: -210 97<118.5 133.5 103 185> 512 20G<0 154 154 154 416 567 567 567> 575 118<254 254 254 255 131 332>
VStem: 0 567<532 532>
LayerCount: 2
Fore
SplineSet
254 575 m 1
 131 693 l 1
 255 693 l 1
 332 575 l 1
 254 575 l 1
567 532 m 1
 353 -20 l 2
 297 -164 239 -210 131 -210 c 0
 106 -210 89 -209 69 -206 c 1
 69 -111 l 1
 83 -113 96 -113 110 -113 c 0
 157 -113 188 -95 210 -42 c 2
 217 -25 l 1
 0 532 l 1
 154 532 l 1
 286 105 l 1
 416 532 l 1
 567 532 l 1
EndSplineSet
EndChar

StartChar: endash
Encoding: 8211 8211 268
Width: 500
Flags: MW
HStem: 252 78<81 419 81 419>
VStem: 81 338<252 330 252 330>
LayerCount: 2
Fore
SplineSet
419 252 m 1
 81 252 l 1
 81 330 l 1
 419 330 l 1
 419 252 l 1
EndSplineSet
EndChar

StartChar: emdash
Encoding: 8212 8212 267
Width: 1000
Flags: MW
HStem: 252 78<81 919 81 919>
VStem: 81 838<252 330 252 330>
LayerCount: 2
Fore
SplineSet
919 252 m 1
 81 252 l 1
 81 330 l 1
 919 330 l 1
 919 252 l 1
EndSplineSet
EndChar

StartChar: quoteleft
Encoding: 8216 8216 277
Width: 288
Flags: MW
HStem: 460 275<158 190 56 269>
VStem: 56 213
LayerCount: 2
Fore
SplineSet
56 470 m 1
 158 735 l 1
 269 735 l 1
 190 460 l 1
 56 460 l 1
 56 470 l 1
EndSplineSet
EndChar

StartChar: quoteright
Encoding: 8217 8217 278
Width: 288
Flags: MW
HStem: 460 275<98 130 19 232> 715 20G<98 232 232 232>
VStem: 19 213
LayerCount: 2
Fore
SplineSet
232 725 m 1x60
 130 460 l 1
 19 460 l 1xa0
 98 735 l 1
 232 735 l 1
 232 725 l 1x60
EndSplineSet
EndChar

StartChar: quotedblleft
Encoding: 8220 8220 275
Width: 497
Flags: MW
HStem: 460 275<158 190 56 269 265 265 265 269 367 399>
VStem: 56 422<460 735 470 735>
LayerCount: 2
Fore
SplineSet
56 470 m 1
 158 735 l 1
 269 735 l 1
 190 460 l 1
 56 460 l 1
 56 470 l 1
265 470 m 1
 367 735 l 1
 478 735 l 1
 399 460 l 1
 265 460 l 1
 265 470 l 1
EndSplineSet
EndChar

StartChar: quotedblright
Encoding: 8221 8221 276
Width: 497
Flags: MW
HStem: 460 275<98 130 19 232 228 228 228 232 307 338>
VStem: 19 422<460 725>
LayerCount: 2
Fore
SplineSet
232 725 m 1
 130 460 l 1
 19 460 l 1
 98 735 l 1
 232 735 l 1
 232 725 l 1
441 725 m 1
 338 460 l 1
 228 460 l 1
 307 735 l 1
 441 735 l 1
 441 725 l 1
EndSplineSet
EndChar

StartChar: quotedblbase
Encoding: 8222 8222 274
Width: 454
Flags: MW
HStem: -122 262<51 84 -28 185 180 180 180 185 259 293>
VStem: -28 421<-122 130>
LayerCount: 2
Fore
SplineSet
185 130 m 1
 84 -122 l 1
 -28 -122 l 1
 51 140 l 1
 185 140 l 1
 185 130 l 1
393 130 m 1
 293 -122 l 1
 180 -122 l 1
 259 140 l 1
 393 140 l 1
 393 130 l 1
EndSplineSet
EndChar

StartChar: dagger
Encoding: 8224 8224 317
Width: 561
Flags: MW
HStem: 357 112 670 20G<213 348 348 348>
VStem: 218.5 124
LayerCount: 2
Fore
SplineSet
516 354 m 1
 337 360 l 1
 348 -160 l 1
 213 -160 l 1
 224 360 l 1
 45 354 l 1
 45 472 l 1
 224 466 l 1
 213 690 l 1
 348 690 l 1
 337 466 l 1
 516 472 l 1
 516 354 l 1
EndSplineSet
EndChar

StartChar: daggerdbl
Encoding: 8225 8225 318
Width: 561
Flags: MW
HStem: 61 112 357 112 670 20G<213 348 348 348>
VStem: 218.5 124 225 111<170 360 170 360>
LayerCount: 2
Fore
SplineSet
336 360 m 1xe8
 336 170 l 1xe8
 516 176 l 1
 516 58 l 1
 337 64 l 1
 348 -160 l 1
 213 -160 l 1
 224 64 l 1xf0
 45 58 l 1
 45 176 l 1
 225 170 l 1
 225 360 l 1xe8
 45 354 l 1
 45 472 l 1
 224 466 l 1
 213 690 l 1
 348 690 l 1
 337 466 l 1xf0
 516 472 l 1
 516 354 l 1
 336 360 l 1xe8
EndSplineSet
EndChar

StartChar: bullet
Encoding: 8226 8226 245
Width: 379
Flags: MW
HStem: 187 236<155 224.5>
VStem: 71 237<270.5 339.5>
LayerCount: 2
Fore
SplineSet
190 423 m 0
 259 423 308 374 308 305 c 0
 308 236 259 187 190 187 c 0
 120 187 71 236 71 305 c 0
 71 374 120 423 190 423 c 0
EndSplineSet
EndChar

StartChar: ellipsis
Encoding: 8230 8230 248
Width: 733
Flags: MW
HStem: -14 168<97.5 147 341.5 391 585.5 635>
VStem: 39 167<45.5 94.5> 283 167<45.5 94.5> 527 167<45.5 94.5>
LayerCount: 2
Fore
SplineSet
122 154 m 0
 172 154 206 119 206 70 c 0
 206 21 172 -14 122 -14 c 0
 73 -14 39 21 39 70 c 0
 39 119 73 154 122 154 c 0
366 154 m 0
 416 154 450 119 450 70 c 0
 450 21 416 -14 366 -14 c 0
 317 -14 283 21 283 70 c 0
 283 119 317 154 366 154 c 0
610 154 m 0
 660 154 694 119 694 70 c 0
 694 21 660 -14 610 -14 c 0
 561 -14 527 21 527 70 c 0
 527 119 561 154 610 154 c 0
EndSplineSet
EndChar

StartChar: perthousand
Encoding: 8240 8240 304
Width: 1107
Flags: MW
HStem: -14 73<554.5 591.5 554.5 621 898.5 935.5> 0 21G<107 214 107 107> 242 73<554.5 591.5 898.5 935.5> 373 73<171.5 208.5 171.5 238> 629 73<171.5 208.5> 670 20G<555 662 662 662>
VStem: 36 97<508.5 567.5 508.5 589.5> 248 97<508.5 567.5> 418 98<121.5 180.5 121.5 202.5> 630 98<121.5 180.5> 763 97<121.5 180.5 121.5 202.5> 975 97<121.5 180.5>
LayerCount: 2
Fore
SplineSet
345 538 m 0xbbf0
 345 435 286 373 190 373 c 0
 95 373 36 435 36 538 c 0
 36 641 95 702 190 702 c 0
 286 702 345 641 345 538 c 0xbbf0
662 690 m 1x4440
 214 0 l 1
 107 0 l 1
 555 690 l 1
 662 690 l 1x4440
133 538 m 0xbbf0
 133 479 153 446 190 446 c 0
 227 446 248 479 248 538 c 0
 248 597 227 629 190 629 c 0
 153 629 133 597 133 538 c 0xbbf0
573 315 m 0
 669 315 728 254 728 151 c 0
 728 48 669 -14 573 -14 c 0
 478 -14 418 48 418 151 c 0
 418 254 478 315 573 315 c 0
917 315 m 0
 1013 315 1072 254 1072 151 c 0
 1072 48 1013 -14 917 -14 c 0
 822 -14 763 48 763 151 c 0
 763 254 822 315 917 315 c 0
573 59 m 0
 610 59 630 92 630 151 c 0
 630 210 610 242 573 242 c 0
 536 242 516 210 516 151 c 0
 516 92 536 59 573 59 c 0
917 59 m 0
 954 59 975 92 975 151 c 0
 975 210 954 242 917 242 c 0
 880 242 860 210 860 151 c 0
 860 92 880 59 917 59 c 0
EndSplineSet
EndChar

StartChar: guilsinglleft
Encoding: 8249 8249 272
Width: 426
Flags: MW
HStem: 82 332<272 376 272 376>
VStem: 135 241<82 248>
LayerCount: 2
Fore
SplineSet
376 414 m 1
 239 248 l 1
 376 82 l 1
 272 82 l 1
 135 248 l 1
 272 414 l 1
 376 414 l 1
EndSplineSet
EndChar

StartChar: guilsinglright
Encoding: 8250 8250 273
Width: 407
Flags: MW
HStem: 82 332<50 154 50 154>
VStem: 50 241<82 248 248 414>
LayerCount: 2
Fore
SplineSet
291 248 m 1
 154 82 l 1
 50 82 l 1
 187 248 l 1
 50 414 l 1
 154 414 l 1
 291 248 l 1
EndSplineSet
EndChar

StartChar: fraction
Encoding: 8260 8260 242
Width: 309
Flags: MW
HStem: 0 21G<-123 -16 -123 -123> 670 20G<325 432 432 432>
VStem: -123 555
LayerCount: 2
Fore
SplineSet
-16 0 m 1
 -123 0 l 1
 325 690 l 1
 432 690 l 1
 -16 0 l 1
EndSplineSet
EndChar

StartChar: Euro
Encoding: 8364 8364 284
Width: 625
Flags: MW
HStem: -14 103<379.5 434> 240 78<49 105 49 112 34 105 260 480 260 260> 370 78<75 106 59 114 261 504> 601 103<379 444.5>
VStem: 105 147<318 342 342 346 346 347>
LayerCount: 2
Fore
SplineSet
480 240 m 1
 260 240 l 1
 280 128 337 89 422 89 c 0
 478 89 525 102 569 129 c 1
 569 26 l 1
 520 -2 473 -14 395 -14 c 0
 242 -14 138 54 112 240 c 1
 34 240 l 1
 49 318 l 1
 105 318 l 1
 105 342 l 2
 105 352 105 361 106 370 c 1
 59 370 l 1
 75 448 l 1
 114 448 l 1
 147 624 265 704 415 704 c 0
 502 704 563 681 600 642 c 1
 547 555 l 1
 510 587 470 601 419 601 c 0
 339 601 282 555 261 448 c 1
 521 448 l 1
 504 370 l 1
 252 370 l 1
 252 346 l 2
 252 336 252 327 252 318 c 1
 494 318 l 1
 480 240 l 1
EndSplineSet
EndChar

StartChar: trademark
Encoding: 8482 8482 323
Width: 538
Flags: MW
HStem: 456 203<94 330 94 330 246 330 246 302 430 430 430 486> 460 52<368 368 368 395 338 368> 617 43<21 94 21 222 150 222 150 150>
VStem: 94 56<456 617 456 617> 246 55.5 431 55
LayerCount: 2
Fore
SplineSet
222 660 m 1x3c
 222 617 l 1
 150 617 l 1
 150 456 l 1
 94 456 l 1
 94 617 l 1
 21 617 l 1
 21 660 l 1
 222 660 l 1x3c
486 659 m 1x9c
 486 456 l 1
 430 456 l 1
 432 598 l 1x9c
 395 460 l 1
 338 460 l 1
 301 597 l 1
 302 456 l 1
 246 456 l 1
 246 659 l 1
 330 659 l 1
 368 512 l 1x7c
 405 659 l 1
 486 659 l 1x9c
EndSplineSet
EndChar

StartChar: partialdiff
Encoding: 8706 8706 302
Width: 625
Flags: MW
HStem: -14 102<272.5 350.5 272.5 382.5> 402 103<274.5 327.5 217.5 341> 656 102<248 324>
VStem: 43 146<194 293.5 194 322> 434 142
LayerCount: 2
Fore
SplineSet
289 758 m 0
 495 758 576 587 576 353 c 0
 576 94 466 -14 299 -14 c 0
 159 -14 43 69 43 242 c 0
 43 402 141 505 294 505 c 0
 361 505 404 482 428 449 c 1
 417 573 376 656 272 656 c 0
 217 656 178 641 136 610 c 1
 89 697 l 1
 152 740 207 758 289 758 c 0
307 88 m 0
 394 88 432 169 434 334 c 1
 408 384 366 402 316 402 c 0
 233 402 189 341 189 246 c 0
 189 142 238 88 307 88 c 0
EndSplineSet
EndChar

StartChar: product
Encoding: 8719 8719 307
Width: 625
Flags: MW
HStem: 582 108<34 93 34 591 231 394 231 231 532 591 532 532>
VStem: 93 138<-110 582 -110 582> 394 138<-110 582 -110 582>
LayerCount: 2
Fore
SplineSet
591 582 m 1
 532 582 l 1
 532 -110 l 1
 394 -110 l 1
 394 582 l 1
 231 582 l 1
 231 -110 l 1
 93 -110 l 1
 93 582 l 1
 34 582 l 1
 34 690 l 1
 591 690 l 1
 591 582 l 1
EndSplineSet
EndChar

StartChar: summation
Encoding: 8721 8721 309
Width: 625
Flags: MW
HStem: -110 108<219 577 219 577> 582 108<248 571 248 248>
VStem: 50 527<-110 -18 -18 -18>
LayerCount: 2
Fore
SplineSet
577 -2 m 1
 577 -110 l 1
 50 -110 l 1
 50 -18 l 1
 308 301 l 1
 80 598 l 1
 80 690 l 1
 571 690 l 1
 571 582 l 1
 248 582 l 1
 468 300 l 1
 219 -2 l 1
 577 -2 l 1
EndSplineSet
EndChar

StartChar: minus
Encoding: 8722 8722 299
Width: 625
Flags: MW
HStem: 279 78<94 531 94 531>
VStem: 94 437<279 357 279 357>
LayerCount: 2
Fore
SplineSet
531 279 m 1
 94 279 l 1
 94 357 l 1
 531 357 l 1
 531 279 l 1
EndSplineSet
EndChar

StartChar: radical
Encoding: 8730 8730 308
Width: 625
Flags: MW
HStem: 236 74<57 132 57 197>
VStem: 57 529<236 780 310 780>
LayerCount: 2
Fore
SplineSet
586 780 m 1
 365 -160 l 1
 259 -160 l 1
 132 236 l 1
 57 236 l 1
 57 310 l 1
 197 310 l 1
 310 -65 l 1
 500 780 l 1
 586 780 l 1
EndSplineSet
EndChar

StartChar: infinity
Encoding: 8734 8734 294
Width: 1006
Flags: MW
HStem: -14 97<253.5 320.5 253.5 328 685.5 752.5> 447 97<253.5 320.5 685.5 752.5>
VStem: 27 143<210.5 320 210.5 346> 836 143<210.5 320>
LayerCount: 2
Fore
SplineSet
728 544 m 0
 885 544 979 427 979 265 c 0
 979 103 885 -14 723 -14 c 0
 624 -14 548 24 497 120 c 1
 447 24 379 -14 277 -14 c 0
 121 -14 27 103 27 265 c 0
 27 427 121 544 283 544 c 0
 381 544 459 507 511 411 c 1
 560 507 626 544 728 544 c 0
289 83 m 0
 352 83 403 133 418 265 c 1
 396 398 352 447 289 447 c 0
 218 447 170 375 170 265 c 0
 170 156 218 83 289 83 c 0
717 83 m 0
 788 83 836 156 836 265 c 0
 836 375 788 447 717 447 c 0
 654 447 605 397 590 265 c 1
 612 132 654 83 717 83 c 0
EndSplineSet
EndChar

StartChar: integral
Encoding: 8747 8747 295
Width: 625
Flags: MW
HStem: -160 78<246 275 242.5 309.5> 676 78<349.5 378 314.5 382>
VStem: 208 88<551.5 612.5 551.5 629> 329 87<-18 43.5>
LayerCount: 2
Fore
SplineSet
360 754 m 0
 396 754 421 749 447 732 c 1
 432 658 l 1
 411 672 394 676 370 676 c 0
 329 676 296 645 296 580 c 0
 296 523 302 473 355 304 c 0
 402 157 416 89 416 20 c 0
 416 -89 355 -160 264 -160 c 0
 228 -160 203 -155 177 -138 c 1
 192 -64 l 1
 213 -78 230 -82 255 -82 c 0
 295 -82 329 -51 329 15 c 0
 329 72 323 121 269 290 c 0
 222 437 208 505 208 575 c 0
 208 683 269 754 360 754 c 0
EndSplineSet
EndChar

StartChar: approxequal
Encoding: 8776 8776 287
Width: 625
Flags: MW
HStem: 127 85<406 435.5 406 444.5> 203 85<189 218> 309 85<406 435.5 406 444.5> 385 85<189 218>
VStem: 74 476<207 210 210 389>
LayerCount: 2
Fore
SplineSet
206 470 m 0x98
 246 470 272 457 326 429 c 1
 372 404 393 394 419 394 c 0
 452 394 475 409 499 441 c 1
 550 392 l 1
 513 331 471 309 418 309 c 0xa8
 378 309 352 321 299 350 c 0
 252 375 231 385 205 385 c 0
 173 385 149 370 125 337 c 1
 74 389 l 1
 111 449 153 470 206 470 c 0x98
206 288 m 0x68
 246 288 272 275 326 247 c 1
 372 222 393 212 419 212 c 0
 452 212 475 227 499 259 c 1
 550 210 l 1
 513 149 471 127 418 127 c 0xa8
 378 127 352 139 299 168 c 0
 252 193 231 203 205 203 c 0
 173 203 149 188 125 155 c 1
 74 207 l 1
 111 267 153 288 206 288 c 0x68
EndSplineSet
EndChar

StartChar: notequal
Encoding: 8800 8800 301
Width: 625
Flags: MW
HStem: 179 74<83 197 83 236 323 542 83 284> 379 74<83 303 83 342 429 542 83 390>
VStem: 83 459<179 253 179 253 379 453 179 453>
LayerCount: 2
Fore
SplineSet
390 379 m 1
 323 253 l 1
 542 253 l 1
 542 179 l 1
 284 179 l 1
 231 79 l 1
 144 79 l 1
 197 179 l 1
 83 179 l 1
 83 253 l 1
 236 253 l 1
 303 379 l 1
 83 379 l 1
 83 453 l 1
 342 453 l 1
 395 553 l 1
 482 553 l 1
 429 453 l 1
 542 453 l 1
 542 379 l 1
 390 379 l 1
EndSplineSet
EndChar

StartChar: lessequal
Encoding: 8804 8804 297
Width: 625
Flags: MW
HStem: 0 78<107 538 107 538>
VStem: 107 431<0 78 0 78 0 367 0 367>
LayerCount: 2
Fore
SplineSet
538 426 m 1
 190 314 l 1
 538 201 l 1
 538 112 l 1
 107 262 l 1
 107 367 l 1
 538 517 l 1
 538 426 l 1
107 78 m 1
 538 78 l 1
 538 0 l 1
 107 0 l 1
 107 78 l 1
EndSplineSet
EndChar

StartChar: greaterequal
Encoding: 8805 8805 293
Width: 625
Flags: MW
HStem: 0 78<88 513 88 513>
VStem: 88 425<0 78 0 78 0 203 0 203 0 517>
LayerCount: 2
Fore
SplineSet
513 367 m 1
 513 262 l 1
 88 112 l 1
 88 203 l 1
 429 315 l 1
 88 428 l 1
 88 517 l 1
 513 367 l 1
88 78 m 1
 513 78 l 1
 513 0 l 1
 88 0 l 1
 88 78 l 1
EndSplineSet
EndChar

StartChar: lozenge
Encoding: 9674 9674 310
Width: 535
Flags: MW
HStem: 0 21G<211 324 211 211> 0 89<268 268 268 324 211 268> 601 89<268 268> 670 20G<211 324 324 324>
VStem: 49 437<345 345>
LayerCount: 2
Fore
SplineSet
486 345 m 1x98
 324 0 l 1
 211 0 l 1
 49 345 l 1
 211 690 l 1
 324 690 l 1
 486 345 l 1x98
383 345 m 1
 268 601 l 1
 152 345 l 1
 268 89 l 1x68
 383 345 l 1
EndSplineSet
EndChar

StartChar: fi
Encoding: 64257 64257 230
Width: 601
GlyphClass: 3
Flags: MW
HStem: 0 21G<77 215 77 77 399 536 399 399> 437 91<20 77 20 77 215 399> 653.06 93.94 653.06 100.94
VStem: 77 138<0 437 0 437 528 537 537 540 0 546> 399 137<0 437 437 437 0 651 0 747>
LayerCount: 2
Fore
SplineSet
536 528 m 1xec
 536 0 l 1
 399 0 l 1
 399 437 l 1
 215 437 l 1
 215 0 l 1
 77 0 l 1
 77 437 l 1
 20 437 l 1
 20 528 l 1
 77 528 l 1
 77 537 l 2
 77 555 77 579 79 597 c 0
 88 696 152 754 322 754 c 0xdc
 354 754 375 751 399 747 c 1
 399 651 l 1
 265 660 223 641 217 587 c 0
 215 573 215 554 215 540 c 2
 215 528 l 1
 536 528 l 1xec
EndSplineSet
Ligature2: "'liga' Standard Ligatures in Latin lookup 4 subtable" f i
EndChar

StartChar: fl
Encoding: 64258 64258 231
Width: 601
GlyphClass: 3
Flags: MW
HStem: -7 94<460.5 582> 0 21G<67 205 67 67> 437 91<20 67 20 67 205 314> 657 97<281 330>
VStem: 67 138<0 437 0 437 528 537 537 540 0 546> 382 137<171 174 174 650 650 650>
LayerCount: 2
Fore
SplineSet
521 125 m 0xbc
 524 92 539 83 582 87 c 1
 582 -2 l 1
 553 -6 523 -7 492 -7 c 0
 429 -7 387 18 383 87 c 0xbc
 382 111 382 136 382 171 c 2
 382 650 l 1
 362 656 343 657 317 657 c 0
 245 657 212 630 207 587 c 0
 205 573 205 554 205 540 c 2
 205 528 l 1
 314 528 l 1
 314 437 l 1
 205 437 l 1
 205 0 l 1
 67 0 l 1x7c
 67 437 l 1
 20 437 l 1
 20 528 l 1
 67 528 l 1
 67 537 l 2
 67 555 67 574 69 592 c 0
 78 691 147 754 319 754 c 0
 403 754 469 745 519 728 c 1
 519 174 l 2
 519 153 519 139 521 125 c 0xbc
EndSplineSet
Ligature2: "'liga' Standard Ligatures in Latin lookup 4 subtable" f l
EndChar
